<ttFont>
    <TTGlyph name=".notdef" xMin="50" yMin="0" xMax="700" yMax="700">
      <contour>
        <pt x="50" y="700" on="1"/>
        <pt x="700" y="700" on="1"/>
        <pt x="700" y="0" on="1"/>
        <pt x="50" y="0" on="1"/>
      </contour>
      <contour>
        <pt x="570" y="620" on="1"/>
        <pt x="375" y="403" on="1"/>
        <pt x="180" y="620" on="1"/>
        <pt x="130" y="570" on="1"/>
        <pt x="327" y="350" on="1"/>
        <pt x="130" y="130" on="1"/>
        <pt x="180" y="80" on="1"/>
        <pt x="375" y="297" on="1"/>
        <pt x="570" y="80" on="1"/>
        <pt x="620" y="130" on="1"/>
        <pt x="422" y="350" on="1"/>
        <pt x="620" y="570" on="1"/>
      </contour>
      <contour>
        <pt x="129" y="27" on="1"/>
        <pt x="137" y="27" on="1"/>
        <pt x="137" y="39" on="1"/>
        <pt x="141" y="39" on="1"/>
        <pt x="147" y="39" on="0"/>
        <pt x="157" y="44" on="0"/>
        <pt x="157" y="51" on="1"/>
        <pt x="157" y="59" on="0"/>
        <pt x="146" y="63" on="0"/>
        <pt x="140" y="63" on="1"/>
        <pt x="129" y="63" on="1"/>
      </contour>
      <contour>
        <pt x="141" y="57" on="1"/>
        <pt x="149" y="57" on="0"/>
        <pt x="149" y="52" on="1"/>
        <pt x="149" y="47" on="0"/>
        <pt x="144" y="46" on="0"/>
        <pt x="140" y="46" on="1"/>
        <pt x="137" y="46" on="1"/>
        <pt x="137" y="57" on="1"/>
      </contour>
      <contour>
        <pt x="189" y="63" on="1"/>
        <pt x="158" y="63" on="1"/>
        <pt x="158" y="57" on="1"/>
        <pt x="170" y="57" on="1"/>
        <pt x="170" y="27" on="1"/>
        <pt x="177" y="27" on="1"/>
        <pt x="177" y="57" on="1"/>
        <pt x="189" y="57" on="1"/>
      </contour>
      <contour>
        <pt x="222" y="37" on="1"/>
        <pt x="222" y="33" on="0"/>
        <pt x="215" y="33" on="1"/>
        <pt x="208" y="33" on="0"/>
        <pt x="206" y="35" on="1"/>
        <pt x="203" y="28" on="1"/>
        <pt x="205" y="28" on="0"/>
        <pt x="211" y="26" on="0"/>
        <pt x="216" y="26" on="1"/>
        <pt x="230" y="26" on="0"/>
        <pt x="230" y="38" on="1"/>
        <pt x="230" y="47" on="0"/>
        <pt x="212" y="49" on="0"/>
        <pt x="212" y="54" on="1"/>
        <pt x="212" y="57" on="0"/>
        <pt x="218" y="57" on="1"/>
        <pt x="223" y="57" on="0"/>
        <pt x="227" y="55" on="1"/>
        <pt x="229" y="62" on="1"/>
        <pt x="223" y="64" on="0"/>
        <pt x="218" y="64" on="1"/>
        <pt x="204" y="64" on="0"/>
        <pt x="204" y="53" on="1"/>
        <pt x="204" y="48" on="0"/>
        <pt x="210" y="44" on="0"/>
        <pt x="216" y="41" on="0"/>
        <pt x="222" y="39" on="0"/>
      </contour>
      <contour>
        <pt x="237" y="47" on="1"/>
        <pt x="241" y="49" on="0"/>
        <pt x="246" y="49" on="1"/>
        <pt x="251" y="49" on="0"/>
        <pt x="251" y="45" on="1"/>
        <pt x="251" y="43" on="1"/>
        <pt x="250" y="43" on="0"/>
        <pt x="248" y="44" on="0"/>
        <pt x="246" y="44" on="1"/>
        <pt x="234" y="44" on="0"/>
        <pt x="234" y="34" on="1"/>
        <pt x="234" y="26" on="0"/>
        <pt x="242" y="26" on="1"/>
        <pt x="248" y="26" on="0"/>
        <pt x="251" y="31" on="1"/>
        <pt x="253" y="27" on="1"/>
        <pt x="259" y="27" on="1"/>
        <pt x="258" y="29" on="0"/>
        <pt x="258" y="34" on="1"/>
        <pt x="258" y="45" on="1"/>
        <pt x="258" y="55" on="0"/>
        <pt x="248" y="55" on="1"/>
        <pt x="244" y="55" on="0"/>
        <pt x="237" y="53" on="0"/>
        <pt x="235" y="52" on="1"/>
      </contour>
      <contour>
        <pt x="245" y="32" on="1"/>
        <pt x="241" y="32" on="0"/>
        <pt x="241" y="36" on="1"/>
        <pt x="241" y="40" on="0"/>
        <pt x="246" y="40" on="1"/>
        <pt x="248" y="40" on="0"/>
        <pt x="250" y="39" on="0"/>
        <pt x="251" y="39" on="1"/>
        <pt x="251" y="36" on="1"/>
        <pt x="249" y="32" on="0"/>
      </contour>
      <contour>
        <pt x="292" y="27" on="1"/>
        <pt x="292" y="43" on="1"/>
        <pt x="292" y="55" on="0"/>
        <pt x="283" y="55" on="1"/>
        <pt x="276" y="55" on="0"/>
        <pt x="273" y="50" on="1"/>
        <pt x="271" y="54" on="1"/>
        <pt x="266" y="54" on="1"/>
        <pt x="266" y="27" on="1"/>
        <pt x="273" y="27" on="1"/>
        <pt x="273" y="44" on="1"/>
        <pt x="275" y="48" on="0"/>
        <pt x="279" y="48" on="1"/>
        <pt x="284" y="48" on="0"/>
        <pt x="284" y="42" on="1"/>
        <pt x="284" y="27" on="1"/>
      </contour>
      <contour>
        <pt x="297" y="28" on="1"/>
        <pt x="301" y="26" on="0"/>
        <pt x="307" y="26" on="1"/>
        <pt x="318" y="26" on="0"/>
        <pt x="318" y="35" on="1"/>
        <pt x="318" y="40" on="0"/>
        <pt x="313" y="42" on="0"/>
        <pt x="310" y="44" on="1"/>
        <pt x="305" y="46" on="0"/>
        <pt x="305" y="47" on="1"/>
        <pt x="305" y="49" on="0"/>
        <pt x="308" y="49" on="1"/>
        <pt x="312" y="49" on="0"/>
        <pt x="316" y="47" on="1"/>
        <pt x="318" y="53" on="1"/>
        <pt x="314" y="55" on="0"/>
        <pt x="308" y="55" on="1"/>
        <pt x="298" y="55" on="0"/>
        <pt x="298" y="46" on="1"/>
        <pt x="298" y="41" on="0"/>
        <pt x="304" y="38" on="0"/>
        <pt x="306" y="37" on="1"/>
        <pt x="311" y="37" on="0"/>
        <pt x="311" y="34" on="1"/>
        <pt x="311" y="32" on="0"/>
        <pt x="308" y="32" on="1"/>
        <pt x="303" y="32" on="0"/>
        <pt x="299" y="34" on="1"/>
      </contour>
      <contour>
        <pt x="338" y="42" on="1"/>
        <pt x="338" y="21" on="0"/>
        <pt x="358" y="21" on="1"/>
        <pt x="378" y="21" on="0"/>
        <pt x="378" y="42" on="1"/>
        <pt x="378" y="62" on="0"/>
        <pt x="358" y="62" on="1"/>
        <pt x="350" y="62" on="0"/>
        <pt x="338" y="51" on="0"/>
      </contour>
      <contour>
        <pt x="344" y="42" on="1"/>
        <pt x="344" y="57" on="0"/>
        <pt x="358" y="57" on="1"/>
        <pt x="372" y="57" on="0"/>
        <pt x="372" y="42" on="1"/>
        <pt x="372" y="27" on="0"/>
        <pt x="358" y="27" on="1"/>
        <pt x="344" y="27" on="0"/>
      </contour>
      <contour>
        <pt x="364" y="38" on="1"/>
        <pt x="362" y="37" on="0"/>
        <pt x="360" y="37" on="1"/>
        <pt x="356" y="37" on="0"/>
        <pt x="356" y="42" on="1"/>
        <pt x="356" y="46" on="0"/>
        <pt x="360" y="46" on="1"/>
        <pt x="363" y="46" on="1"/>
        <pt x="365" y="50" on="1"/>
        <pt x="361" y="52" on="0"/>
        <pt x="358" y="52" on="1"/>
        <pt x="349" y="52" on="0"/>
        <pt x="349" y="42" on="1"/>
        <pt x="349" y="31" on="0"/>
        <pt x="358" y="31" on="1"/>
        <pt x="363" y="31" on="0"/>
        <pt x="365" y="33" on="1"/>
      </contour>
      <contour>
        <pt x="399" y="27" on="1"/>
        <pt x="407" y="27" on="1"/>
        <pt x="407" y="39" on="1"/>
        <pt x="411" y="39" on="1"/>
        <pt x="417" y="39" on="0"/>
        <pt x="427" y="44" on="0"/>
        <pt x="427" y="51" on="1"/>
        <pt x="427" y="59" on="0"/>
        <pt x="416" y="63" on="0"/>
        <pt x="410" y="63" on="1"/>
        <pt x="399" y="63" on="1"/>
      </contour>
      <contour>
        <pt x="411" y="57" on="1"/>
        <pt x="419" y="57" on="0"/>
        <pt x="419" y="52" on="1"/>
        <pt x="419" y="47" on="0"/>
        <pt x="414" y="46" on="0"/>
        <pt x="410" y="46" on="1"/>
        <pt x="407" y="46" on="1"/>
        <pt x="407" y="57" on="1"/>
      </contour>
      <contour>
        <pt x="432" y="47" on="1"/>
        <pt x="436" y="49" on="0"/>
        <pt x="441" y="49" on="1"/>
        <pt x="446" y="49" on="0"/>
        <pt x="446" y="45" on="1"/>
        <pt x="446" y="43" on="1"/>
        <pt x="445" y="43" on="0"/>
        <pt x="443" y="44" on="0"/>
        <pt x="441" y="44" on="1"/>
        <pt x="428" y="44" on="0"/>
        <pt x="428" y="34" on="1"/>
        <pt x="428" y="26" on="0"/>
        <pt x="437" y="26" on="1"/>
        <pt x="443" y="26" on="0"/>
        <pt x="446" y="31" on="1"/>
        <pt x="448" y="27" on="1"/>
        <pt x="454" y="27" on="1"/>
        <pt x="453" y="29" on="0"/>
        <pt x="453" y="34" on="1"/>
        <pt x="453" y="45" on="1"/>
        <pt x="453" y="55" on="0"/>
        <pt x="443" y="55" on="1"/>
        <pt x="439" y="55" on="0"/>
        <pt x="432" y="53" on="0"/>
        <pt x="430" y="52" on="1"/>
      </contour>
      <contour>
        <pt x="440" y="32" on="1"/>
        <pt x="436" y="32" on="0"/>
        <pt x="436" y="36" on="1"/>
        <pt x="436" y="40" on="0"/>
        <pt x="441" y="40" on="1"/>
        <pt x="443" y="40" on="0"/>
        <pt x="445" y="39" on="0"/>
        <pt x="446" y="39" on="1"/>
        <pt x="446" y="36" on="1"/>
        <pt x="444" y="32" on="0"/>
      </contour>
      <contour>
        <pt x="478" y="54" on="1"/>
        <pt x="477" y="55" on="0"/>
        <pt x="474" y="55" on="1"/>
        <pt x="470" y="55" on="0"/>
        <pt x="468" y="50" on="1"/>
        <pt x="467" y="50" on="1"/>
        <pt x="466" y="54" on="1"/>
        <pt x="460" y="54" on="1"/>
        <pt x="460" y="27" on="1"/>
        <pt x="468" y="27" on="1"/>
        <pt x="468" y="44" on="1"/>
        <pt x="468" y="48" on="0"/>
        <pt x="474" y="48" on="1"/>
        <pt x="475" y="48" on="1"/>
        <pt x="476" y="48" on="0"/>
        <pt x="476" y="47" on="0"/>
        <pt x="477" y="47" on="1"/>
      </contour>
      <contour>
        <pt x="483" y="47" on="1"/>
        <pt x="489" y="49" on="0"/>
        <pt x="492" y="49" on="1"/>
        <pt x="497" y="49" on="0"/>
        <pt x="497" y="45" on="1"/>
        <pt x="497" y="43" on="1"/>
        <pt x="496" y="43" on="0"/>
        <pt x="494" y="44" on="0"/>
        <pt x="492" y="44" on="1"/>
        <pt x="479" y="44" on="0"/>
        <pt x="479" y="34" on="1"/>
        <pt x="479" y="26" on="0"/>
        <pt x="488" y="26" on="1"/>
        <pt x="495" y="26" on="0"/>
        <pt x="497" y="31" on="1"/>
        <pt x="498" y="31" on="1"/>
        <pt x="499" y="27" on="1"/>
        <pt x="505" y="27" on="1"/>
        <pt x="504" y="29" on="0"/>
        <pt x="504" y="34" on="1"/>
        <pt x="504" y="45" on="1"/>
        <pt x="504" y="55" on="0"/>
        <pt x="494" y="55" on="1"/>
        <pt x="490" y="55" on="0"/>
        <pt x="484" y="53" on="0"/>
        <pt x="482" y="52" on="1"/>
      </contour>
      <contour>
        <pt x="491" y="32" on="1"/>
        <pt x="487" y="32" on="0"/>
        <pt x="487" y="36" on="1"/>
        <pt x="487" y="40" on="0"/>
        <pt x="492" y="40" on="1"/>
        <pt x="494" y="40" on="0"/>
        <pt x="496" y="39" on="0"/>
        <pt x="497" y="39" on="1"/>
        <pt x="497" y="36" on="1"/>
        <pt x="495" y="32" on="0"/>
      </contour>
      <contour>
        <pt x="533" y="63" on="1"/>
        <pt x="502" y="63" on="1"/>
        <pt x="502" y="57" on="1"/>
        <pt x="513" y="57" on="1"/>
        <pt x="513" y="27" on="1"/>
        <pt x="521" y="27" on="1"/>
        <pt x="521" y="57" on="1"/>
        <pt x="533" y="57" on="1"/>
      </contour>
      <contour>
        <pt x="541" y="54" on="1"/>
        <pt x="533" y="54" on="1"/>
        <pt x="545" y="27" on="1"/>
        <pt x="544" y="22" on="0"/>
        <pt x="540" y="22" on="1"/>
        <pt x="539" y="23" on="1"/>
        <pt x="537" y="17" on="1"/>
        <pt x="539" y="16" on="0"/>
        <pt x="542" y="16" on="1"/>
        <pt x="547" y="16" on="0"/>
        <pt x="552" y="29" on="1"/>
        <pt x="562" y="54" on="1"/>
        <pt x="554" y="54" on="1"/>
        <pt x="549" y="39" on="1"/>
        <pt x="549" y="34" on="1"/>
        <pt x="548" y="34" on="1"/>
        <pt x="547" y="39" on="1"/>
      </contour>
      <contour>
        <pt x="565" y="16" on="1"/>
        <pt x="573" y="16" on="1"/>
        <pt x="573" y="28" on="1"/>
        <pt x="574" y="26" on="0"/>
        <pt x="578" y="26" on="1"/>
        <pt x="592" y="26" on="0"/>
        <pt x="592" y="41" on="1"/>
        <pt x="592" y="55" on="0"/>
        <pt x="581" y="55" on="1"/>
        <pt x="576" y="55" on="0"/>
        <pt x="572" y="51" on="1"/>
        <pt x="571" y="51" on="1"/>
        <pt x="570" y="54" on="1"/>
        <pt x="565" y="54" on="1"/>
      </contour>
      <contour>
        <pt x="579" y="49" on="1"/>
        <pt x="584" y="49" on="0"/>
        <pt x="584" y="41" on="1"/>
        <pt x="584" y="32" on="0"/>
        <pt x="577" y="32" on="1"/>
        <pt x="575" y="32" on="0"/>
        <pt x="573" y="34" on="1"/>
        <pt x="573" y="44" on="1"/>
        <pt x="573" y="49" on="0"/>
      </contour>
      <contour>
        <pt x="618" y="34" on="1"/>
        <pt x="616" y="32" on="0"/>
        <pt x="611" y="32" on="1"/>
        <pt x="604" y="32" on="0"/>
        <pt x="603" y="38" on="1"/>
        <pt x="622" y="38" on="1"/>
        <pt x="622" y="44" on="1"/>
        <pt x="622" y="50" on="0"/>
        <pt x="615" y="55" on="0"/>
        <pt x="610" y="55" on="1"/>
        <pt x="596" y="55" on="0"/>
        <pt x="596" y="40" on="1"/>
        <pt x="596" y="26" on="0"/>
        <pt x="610" y="26" on="1"/>
        <pt x="613" y="26" on="0"/>
        <pt x="619" y="28" on="0"/>
        <pt x="621" y="29" on="1"/>
      </contour>
      <contour>
        <pt x="610" y="49" on="1"/>
        <pt x="616" y="49" on="0"/>
        <pt x="615" y="43" on="1"/>
        <pt x="604" y="43" on="1"/>
        <pt x="604" y="49" on="0"/>
      </contour>
    </TTGlyph>
    <TTGlyph name="A" xMin="8" yMin="0" xMax="577" yMax="711">
      <contour>
        <pt x="418" y="194" on="1"/>
        <pt x="160" y="194" on="1"/>
        <pt x="90" y="0" on="1"/>
        <pt x="8" y="0" on="1"/>
        <pt x="273" y="711" on="1"/>
        <pt x="311" y="711" on="1"/>
        <pt x="577" y="0" on="1"/>
        <pt x="490" y="0" on="1"/>
      </contour>
      <contour>
        <pt x="187" y="266" on="1"/>
        <pt x="393" y="266" on="1"/>
        <pt x="315" y="479" on="1"/>
        <pt x="290" y="585" on="1"/>
        <pt x="289" y="585" on="1"/>
        <pt x="264" y="477" on="1"/>
      </contour>
    </TTGlyph>
    <TTGlyph name="AE" xMin="-22" yMin="0" xMax="781" yMax="700">
      <contour>
        <pt x="391" y="600" on="1"/>
        <pt x="357" y="497" on="1"/>
        <pt x="224" y="268" on="1"/>
        <pt x="395" y="268" on="1"/>
        <pt x="395" y="600" on="1"/>
      </contour>
      <contour>
        <pt x="395" y="198" on="1"/>
        <pt x="181" y="198" on="1"/>
        <pt x="69" y="0" on="1"/>
        <pt x="-22" y="0" on="1"/>
        <pt x="393" y="700" on="1"/>
        <pt x="776" y="700" on="1"/>
        <pt x="776" y="626" on="1"/>
        <pt x="478" y="626" on="1"/>
        <pt x="478" y="397" on="1"/>
        <pt x="751" y="397" on="1"/>
        <pt x="751" y="323" on="1"/>
        <pt x="478" y="323" on="1"/>
        <pt x="478" y="74" on="1"/>
        <pt x="781" y="74" on="1"/>
        <pt x="781" y="0" on="1"/>
        <pt x="395" y="0" on="1"/>
      </contour>
    </TTGlyph>
    <TTGlyph name="Aacute" xMin="8" yMin="0" xMax="577" yMax="870">
      <component glyphName="A" x="0" y="0" flags="0x204"/>
      <component glyphName="uniF6C9" x="153" y="0" flags="0x4"/>
    </TTGlyph>
    <TTGlyph name="Abreve" xMin="8" yMin="0" xMax="577" yMax="871">
      <component glyphName="A" x="0" y="0" flags="0x204"/>
      <component glyphName="uniF406" x="61" y="0" flags="0x4"/>
    </TTGlyph>
    <TTGlyph name="Acircumflex" xMin="8" yMin="0" xMax="577" yMax="870">
      <component glyphName="A" x="0" y="0" flags="0x204"/>
      <component glyphName="uniF408" x="72" y="0" flags="0x4"/>
    </TTGlyph>
    <TTGlyph name="Adieresis" xMin="8" yMin="0" xMax="577" yMax="841">
      <component glyphName="A" x="0" y="0" flags="0x204"/>
      <component glyphName="uniF6CB" x="84" y="0" flags="0x4"/>
    </TTGlyph>
    <TTGlyph name="Agrave" xMin="8" yMin="0" xMax="577" yMax="870">
      <component glyphName="A" x="0" y="0" flags="0x204"/>
      <component glyphName="uniF6CE" x="75" y="0" flags="0x4"/>
    </TTGlyph>
    <TTGlyph name="Amacron" xMin="8" yMin="0" xMax="577" yMax="843">
      <component glyphName="A" x="0" y="0" flags="0x204"/>
      <component glyphName="uniF6D0" x="73" y="0" flags="0x4"/>
    </TTGlyph>
    <TTGlyph name="Aogonek" xMin="8" yMin="-195" xMax="601" yMax="711">
      <contour>
        <pt x="418" y="194" on="1"/>
        <pt x="160" y="194" on="1"/>
        <pt x="90" y="0" on="1"/>
        <pt x="8" y="0" on="1"/>
        <pt x="273" y="711" on="1"/>
        <pt x="311" y="711" on="1"/>
        <pt x="577" y="0" on="1"/>
        <pt x="555" y="0" on="1"/>
        <pt x="529" y="-16" on="0"/>
        <pt x="498" y="-59" on="0"/>
        <pt x="498" y="-88" on="1"/>
        <pt x="498" y="-108" on="0"/>
        <pt x="525" y="-138" on="0"/>
        <pt x="550" y="-138" on="1"/>
        <pt x="569" y="-138" on="0"/>
        <pt x="590" y="-129" on="1"/>
        <pt x="601" y="-171" on="1"/>
        <pt x="586" y="-183" on="0"/>
        <pt x="536" y="-195" on="0"/>
        <pt x="515" y="-195" on="1"/>
        <pt x="471" y="-195" on="0"/>
        <pt x="416" y="-148" on="0"/>
        <pt x="416" y="-107" on="1"/>
        <pt x="416" y="-72" on="0"/>
        <pt x="459" y="-17" on="0"/>
        <pt x="497" y="0" on="1"/>
        <pt x="490" y="0" on="1"/>
      </contour>
      <contour>
        <pt x="187" y="266" on="1"/>
        <pt x="393" y="266" on="1"/>
        <pt x="315" y="479" on="1"/>
        <pt x="290" y="585" on="1"/>
        <pt x="289" y="585" on="1"/>
        <pt x="264" y="477" on="1"/>
      </contour>
    </TTGlyph>
    <TTGlyph name="Aring" xMin="8" yMin="0" xMax="577" yMax="853">
      <contour>
        <pt x="188" y="768" on="1"/>
        <pt x="188" y="805" on="0"/>
        <pt x="238" y="853" on="0"/>
        <pt x="293" y="853" on="1"/>
        <pt x="343" y="853" on="0"/>
        <pt x="399" y="810" on="0"/>
        <pt x="399" y="768" on="1"/>
        <pt x="399" y="736" on="0"/>
        <pt x="359" y="693" on="0"/>
        <pt x="320" y="687" on="1"/>
        <pt x="577" y="0" on="1"/>
        <pt x="490" y="0" on="1"/>
        <pt x="418" y="194" on="1"/>
        <pt x="160" y="194" on="1"/>
        <pt x="90" y="0" on="1"/>
        <pt x="8" y="0" on="1"/>
        <pt x="264" y="687" on="1"/>
        <pt x="226" y="693" on="0"/>
        <pt x="188" y="736" on="0"/>
      </contour>
      <contour>
        <pt x="187" y="266" on="1"/>
        <pt x="393" y="266" on="1"/>
        <pt x="315" y="479" on="1"/>
        <pt x="290" y="585" on="1"/>
        <pt x="289" y="585" on="1"/>
        <pt x="264" y="477" on="1"/>
      </contour>
      <contour>
        <pt x="249" y="768" on="1"/>
        <pt x="249" y="751" on="0"/>
        <pt x="270" y="728" on="0"/>
        <pt x="293" y="728" on="1"/>
        <pt x="315" y="728" on="0"/>
        <pt x="338" y="750" on="0"/>
        <pt x="338" y="768" on="1"/>
        <pt x="338" y="787" on="0"/>
        <pt x="316" y="810" on="0"/>
        <pt x="293" y="810" on="1"/>
        <pt x="271" y="810" on="0"/>
        <pt x="249" y="787" on="0"/>
      </contour>
    </TTGlyph>
    <TTGlyph name="Atilde" xMin="8" yMin="0" xMax="577" yMax="840">
      <component glyphName="A" x="0" y="0" flags="0x204"/>
      <component glyphName="uniF40D" x="75" y="0" flags="0x4"/>
    </TTGlyph>
    <TTGlyph name="B" xMin="85" yMin="-8" xMax="528" yMax="708">
      <contour>
        <pt x="507" y="540" on="1"/>
        <pt x="507" y="515" on="0"/>
        <pt x="491" y="463" on="0"/>
        <pt x="459" y="418" on="0"/>
        <pt x="409" y="384" on="0"/>
        <pt x="375" y="375" on="1"/>
        <pt x="375" y="371" on="1"/>
        <pt x="405" y="366" on="0"/>
        <pt x="460" y="342" on="0"/>
        <pt x="502" y="300" on="0"/>
        <pt x="528" y="240" on="0"/>
        <pt x="528" y="199" on="1"/>
        <pt x="528" y="145" on="0"/>
        <pt x="483" y="66" on="0"/>
        <pt x="410" y="16" on="0"/>
        <pt x="316" y="-8" on="0"/>
        <pt x="267" y="-8" on="1"/>
        <pt x="250" y="-8" on="0"/>
        <pt x="204" y="-8" on="0"/>
        <pt x="154" y="-5" on="0"/>
        <pt x="104" y="0" on="0"/>
        <pt x="85" y="5" on="1"/>
        <pt x="85" y="694" on="1"/>
        <pt x="122" y="700" on="0"/>
        <pt x="220" y="708" on="0"/>
        <pt x="278" y="708" on="1"/>
        <pt x="317" y="708" on="0"/>
        <pt x="398" y="695" on="0"/>
        <pt x="464" y="658" on="0"/>
        <pt x="507" y="592" on="0"/>
      </contour>
      <contour>
        <pt x="275" y="64" on="1"/>
        <pt x="307" y="64" on="0"/>
        <pt x="367" y="79" on="0"/>
        <pt x="413" y="112" on="0"/>
        <pt x="440" y="160" on="0"/>
        <pt x="440" y="193" on="1"/>
        <pt x="440" y="234" on="0"/>
        <pt x="407" y="284" on="0"/>
        <pt x="354" y="312" on="0"/>
        <pt x="288" y="322" on="0"/>
        <pt x="255" y="322" on="1"/>
        <pt x="168" y="322" on="1"/>
        <pt x="168" y="71" on="1"/>
        <pt x="175" y="69" on="0"/>
        <pt x="201" y="67" on="0"/>
        <pt x="231" y="65" on="0"/>
        <pt x="263" y="64" on="0"/>
      </contour>
      <contour>
        <pt x="220" y="392" on="1"/>
        <pt x="237" y="392" on="0"/>
        <pt x="285" y="394" on="0"/>
        <pt x="301" y="396" on="1"/>
        <pt x="325" y="404" on="0"/>
        <pt x="367" y="427" on="0"/>
        <pt x="400" y="458" on="0"/>
        <pt x="419" y="499" on="0"/>
        <pt x="419" y="523" on="1"/>
        <pt x="419" y="556" on="0"/>
        <pt x="394" y="599" on="0"/>
        <pt x="352" y="625" on="0"/>
        <pt x="298" y="636" on="0"/>
        <pt x="270" y="636" on="1"/>
        <pt x="237" y="636" on="0"/>
        <pt x="182" y="633" on="0"/>
        <pt x="168" y="630" on="1"/>
        <pt x="168" y="392" on="1"/>
      </contour>
    </TTGlyph>
    <TTGlyph name="C" xMin="56" yMin="-12" xMax="533" yMax="712">
      <contour>
        <pt x="533" y="29" on="1"/>
        <pt x="503" y="6" on="0"/>
        <pt x="411" y="-12" on="0"/>
        <pt x="359" y="-12" on="1"/>
        <pt x="296" y="-12" on="0"/>
        <pt x="186" y="31" on="0"/>
        <pt x="104" y="119" on="0"/>
        <pt x="56" y="256" on="0"/>
        <pt x="56" y="350" on="1"/>
        <pt x="56" y="448" on="0"/>
        <pt x="109" y="585" on="0"/>
        <pt x="196" y="672" on="0"/>
        <pt x="304" y="712" on="0"/>
        <pt x="360" y="712" on="1"/>
        <pt x="420" y="712" on="0"/>
        <pt x="496" y="699" on="0"/>
        <pt x="523" y="688" on="1"/>
        <pt x="503" y="615" on="1"/>
        <pt x="455" y="638" on="0"/>
        <pt x="366" y="638" on="1"/>
        <pt x="325" y="638" on="0"/>
        <pt x="245" y="608" on="0"/>
        <pt x="182" y="540" on="0"/>
        <pt x="144" y="430" on="0"/>
        <pt x="144" y="350" on="1"/>
        <pt x="144" y="278" on="0"/>
        <pt x="180" y="170" on="0"/>
        <pt x="243" y="98" on="0"/>
        <pt x="328" y="62" on="0"/>
        <pt x="378" y="62" on="1"/>
        <pt x="423" y="62" on="0"/>
        <pt x="490" y="80" on="0"/>
        <pt x="513" y="94" on="1"/>
      </contour>
    </TTGlyph>
    <TTGlyph name="Cacute" xMin="56" yMin="-12" xMax="533" yMax="870">
      <component glyphName="C" x="0" y="0" flags="0x204"/>
      <component glyphName="uniF6C9" x="239" y="0" flags="0x4"/>
    </TTGlyph>
    <TTGlyph name="Ccaron" xMin="56" yMin="-12" xMax="533" yMax="870">
      <component glyphName="C" x="0" y="0" flags="0x204"/>
      <component glyphName="uniF6CA" x="137" y="0" flags="0x4"/>
    </TTGlyph>
    <TTGlyph name="Ccedilla" xMin="56" yMin="-208" xMax="533" yMax="712">
      <contour>
        <pt x="533" y="29" on="1"/>
        <pt x="507" y="9" on="0"/>
        <pt x="431" y="-9" on="0"/>
        <pt x="386" y="-11" on="1"/>
        <pt x="369" y="-43" on="1"/>
        <pt x="411" y="-51" on="0"/>
        <pt x="448" y="-87" on="0"/>
        <pt x="448" y="-118" on="1"/>
        <pt x="448" y="-157" on="0"/>
        <pt x="384" y="-208" on="0"/>
        <pt x="326" y="-208" on="1"/>
        <pt x="315" y="-208" on="0"/>
        <pt x="293" y="-206" on="0"/>
        <pt x="281" y="-204" on="1"/>
        <pt x="290" y="-165" on="1"/>
        <pt x="296" y="-166" on="0"/>
        <pt x="306" y="-166" on="0"/>
        <pt x="311" y="-166" on="1"/>
        <pt x="333" y="-166" on="0"/>
        <pt x="358" y="-158" on="0"/>
        <pt x="371" y="-147" on="0"/>
        <pt x="374" y="-133" on="0"/>
        <pt x="374" y="-127" on="1"/>
        <pt x="374" y="-99" on="0"/>
        <pt x="288" y="-90" on="1"/>
        <pt x="330" y="-10" on="1"/>
        <pt x="272" y="-6" on="0"/>
        <pt x="172" y="41" on="0"/>
        <pt x="98" y="129" on="0"/>
        <pt x="56" y="261" on="0"/>
        <pt x="56" y="350" on="1"/>
        <pt x="56" y="448" on="0"/>
        <pt x="109" y="585" on="0"/>
        <pt x="196" y="672" on="0"/>
        <pt x="304" y="712" on="0"/>
        <pt x="360" y="712" on="1"/>
        <pt x="420" y="712" on="0"/>
        <pt x="496" y="699" on="0"/>
        <pt x="523" y="688" on="1"/>
        <pt x="503" y="615" on="1"/>
        <pt x="455" y="638" on="0"/>
        <pt x="366" y="638" on="1"/>
        <pt x="325" y="638" on="0"/>
        <pt x="245" y="608" on="0"/>
        <pt x="182" y="540" on="0"/>
        <pt x="144" y="430" on="0"/>
        <pt x="144" y="350" on="1"/>
        <pt x="144" y="278" on="0"/>
        <pt x="180" y="170" on="0"/>
        <pt x="243" y="98" on="0"/>
        <pt x="328" y="62" on="0"/>
        <pt x="378" y="62" on="1"/>
        <pt x="423" y="62" on="0"/>
        <pt x="490" y="80" on="0"/>
        <pt x="513" y="94" on="1"/>
      </contour>
    </TTGlyph>
    <TTGlyph name="Ccircumflex" xMin="56" yMin="-12" xMax="533" yMax="870">
      <component glyphName="C" x="0" y="0" flags="0x204"/>
      <component glyphName="uniF408" x="127" y="0" flags="0x4"/>
    </TTGlyph>
    <TTGlyph name="D" xMin="85" yMin="-9" xMax="598" yMax="708">
      <contour>
        <pt x="85" y="700" on="1"/>
        <pt x="104" y="703" on="0"/>
        <pt x="151" y="706" on="0"/>
        <pt x="202" y="707" on="0"/>
        <pt x="251" y="708" on="0"/>
        <pt x="272" y="708" on="1"/>
        <pt x="356" y="708" on="0"/>
        <pt x="479" y="656" on="0"/>
        <pt x="559" y="563" on="0"/>
        <pt x="598" y="433" on="0"/>
        <pt x="598" y="355" on="1"/>
        <pt x="598" y="284" on="0"/>
        <pt x="561" y="153" on="0"/>
        <pt x="481" y="52" on="0"/>
        <pt x="353" y="-9" on="0"/>
        <pt x="262" y="-9" on="1"/>
        <pt x="246" y="-9" on="0"/>
        <pt x="195" y="-8" on="0"/>
        <pt x="141" y="-5" on="0"/>
        <pt x="95" y="-3" on="0"/>
        <pt x="85" y="-1" on="1"/>
      </contour>
      <contour>
        <pt x="274" y="634" on="1"/>
        <pt x="261" y="634" on="0"/>
        <pt x="230" y="634" on="0"/>
        <pt x="200" y="632" on="0"/>
        <pt x="175" y="630" on="0"/>
        <pt x="168" y="629" on="1"/>
        <pt x="168" y="69" on="1"/>
        <pt x="173" y="68" on="0"/>
        <pt x="201" y="67" on="0"/>
        <pt x="231" y="66" on="0"/>
        <pt x="259" y="65" on="0"/>
        <pt x="264" y="65" on="1"/>
        <pt x="334" y="65" on="0"/>
        <pt x="429" y="113" on="0"/>
        <pt x="486" y="194" on="0"/>
        <pt x="510" y="299" on="0"/>
        <pt x="510" y="355" on="1"/>
        <pt x="510" y="404" on="0"/>
        <pt x="488" y="503" on="0"/>
        <pt x="434" y="583" on="0"/>
        <pt x="343" y="634" on="0"/>
      </contour>
    </TTGlyph>
    <TTGlyph name="Dcaron" xMin="85" yMin="-9" xMax="598" yMax="870">
      <component glyphName="D" x="0" y="0" flags="0x204"/>
      <component glyphName="uniF6CA" x="61" y="0" flags="0x4"/>
    </TTGlyph>
    <TTGlyph name="Dcroat" xMin="-1" yMin="-9" xMax="602" yMax="708">
      <component glyphName="Eth" x="0" y="0" flags="0x204"/>
    </TTGlyph>
    <TTGlyph name="E" xMin="85" yMin="0" xMax="471" yMax="700">
      <contour>
        <pt x="85" y="700" on="1"/>
        <pt x="466" y="700" on="1"/>
        <pt x="466" y="626" on="1"/>
        <pt x="168" y="626" on="1"/>
        <pt x="168" y="397" on="1"/>
        <pt x="441" y="397" on="1"/>
        <pt x="441" y="323" on="1"/>
        <pt x="168" y="323" on="1"/>
        <pt x="168" y="74" on="1"/>
        <pt x="471" y="74" on="1"/>
        <pt x="471" y="0" on="1"/>
        <pt x="85" y="0" on="1"/>
      </contour>
    </TTGlyph>
    <TTGlyph name="Eacute" xMin="85" yMin="0" xMax="471" yMax="870">
      <component glyphName="E" x="0" y="0" flags="0x204"/>
      <component glyphName="uniF6C9" x="152" y="0" flags="0x4"/>
    </TTGlyph>
    <TTGlyph name="Ecaron" xMin="85" yMin="0" xMax="471" yMax="870">
      <component glyphName="E" x="0" y="0" flags="0x204"/>
      <component glyphName="uniF6CA" x="49" y="0" flags="0x4"/>
    </TTGlyph>
    <TTGlyph name="Ecircumflex" xMin="85" yMin="0" xMax="471" yMax="870">
      <component glyphName="E" x="0" y="0" flags="0x204"/>
      <component glyphName="uniF408" x="49" y="0" flags="0x4"/>
    </TTGlyph>
    <TTGlyph name="Edieresis" xMin="85" yMin="0" xMax="471" yMax="841">
      <component glyphName="E" x="0" y="0" flags="0x204"/>
      <component glyphName="uniF6CB" x="60" y="0" flags="0x4"/>
    </TTGlyph>
    <TTGlyph name="Edotaccent" xMin="85" yMin="0" xMax="471" yMax="849">
      <component glyphName="E" x="0" y="0" flags="0x204"/>
      <component glyphName="uniF40B" x="152" y="0" flags="0x4"/>
    </TTGlyph>
    <TTGlyph name="Egrave" xMin="85" yMin="0" xMax="471" yMax="870">
      <component glyphName="E" x="0" y="0" flags="0x204"/>
      <component glyphName="uniF6CE" x="34" y="0" flags="0x4"/>
    </TTGlyph>
    <TTGlyph name="Emacron" xMin="85" yMin="0" xMax="471" yMax="843">
      <component glyphName="E" x="0" y="0" flags="0x204"/>
      <component glyphName="uniF6D0" x="49" y="0" flags="0x4"/>
    </TTGlyph>
    <TTGlyph name="Eogonek" xMin="85" yMin="-195" xMax="480" yMax="700">
      <contour>
        <pt x="85" y="700" on="1"/>
        <pt x="466" y="700" on="1"/>
        <pt x="466" y="626" on="1"/>
        <pt x="168" y="626" on="1"/>
        <pt x="168" y="397" on="1"/>
        <pt x="441" y="397" on="1"/>
        <pt x="441" y="323" on="1"/>
        <pt x="168" y="323" on="1"/>
        <pt x="168" y="74" on="1"/>
        <pt x="471" y="74" on="1"/>
        <pt x="471" y="0" on="1"/>
        <pt x="435" y="0" on="1"/>
        <pt x="409" y="-16" on="0"/>
        <pt x="378" y="-58" on="0"/>
        <pt x="378" y="-87" on="1"/>
        <pt x="378" y="-107" on="0"/>
        <pt x="404" y="-138" on="0"/>
        <pt x="429" y="-138" on="1"/>
        <pt x="448" y="-138" on="0"/>
        <pt x="469" y="-128" on="1"/>
        <pt x="480" y="-171" on="1"/>
        <pt x="465" y="-183" on="0"/>
        <pt x="415" y="-195" on="0"/>
        <pt x="394" y="-195" on="1"/>
        <pt x="349" y="-195" on="0"/>
        <pt x="295" y="-147" on="0"/>
        <pt x="295" y="-106" on="1"/>
        <pt x="295" y="-71" on="0"/>
        <pt x="337" y="-17" on="0"/>
        <pt x="375" y="0" on="1"/>
        <pt x="85" y="0" on="1"/>
      </contour>
    </TTGlyph>
    <TTGlyph name="Eth" xMin="-1" yMin="-9" xMax="602" yMax="708">
      <contour>
        <pt x="-1" y="392" on="1"/>
        <pt x="89" y="392" on="1"/>
        <pt x="89" y="700" on="1"/>
        <pt x="108" y="703" on="0"/>
        <pt x="155" y="706" on="0"/>
        <pt x="206" y="707" on="0"/>
        <pt x="255" y="708" on="0"/>
        <pt x="276" y="708" on="1"/>
        <pt x="360" y="708" on="0"/>
        <pt x="483" y="656" on="0"/>
        <pt x="563" y="563" on="0"/>
        <pt x="602" y="433" on="0"/>
        <pt x="602" y="355" on="1"/>
        <pt x="602" y="284" on="0"/>
        <pt x="565" y="153" on="0"/>
        <pt x="485" y="52" on="0"/>
        <pt x="357" y="-9" on="0"/>
        <pt x="266" y="-9" on="1"/>
        <pt x="250" y="-9" on="0"/>
        <pt x="199" y="-8" on="0"/>
        <pt x="145" y="-5" on="0"/>
        <pt x="99" y="-3" on="0"/>
        <pt x="89" y="-1" on="1"/>
        <pt x="89" y="332" on="1"/>
        <pt x="-1" y="332" on="1"/>
      </contour>
      <contour>
        <pt x="278" y="634" on="1"/>
        <pt x="265" y="634" on="0"/>
        <pt x="234" y="634" on="0"/>
        <pt x="204" y="632" on="0"/>
        <pt x="179" y="630" on="0"/>
        <pt x="172" y="629" on="1"/>
        <pt x="172" y="392" on="1"/>
        <pt x="319" y="392" on="1"/>
        <pt x="319" y="332" on="1"/>
        <pt x="172" y="332" on="1"/>
        <pt x="172" y="69" on="1"/>
        <pt x="177" y="68" on="0"/>
        <pt x="205" y="67" on="0"/>
        <pt x="235" y="66" on="0"/>
        <pt x="263" y="65" on="0"/>
        <pt x="268" y="65" on="1"/>
        <pt x="338" y="65" on="0"/>
        <pt x="433" y="113" on="0"/>
        <pt x="490" y="194" on="0"/>
        <pt x="514" y="299" on="0"/>
        <pt x="514" y="355" on="1"/>
        <pt x="514" y="404" on="0"/>
        <pt x="492" y="503" on="0"/>
        <pt x="438" y="583" on="0"/>
        <pt x="347" y="634" on="0"/>
      </contour>
    </TTGlyph>
    <TTGlyph name="Euro" xMin="10" yMin="-12" xMax="530" yMax="712">
      <contour>
        <pt x="28" y="454" on="1"/>
        <pt x="91" y="454" on="1"/>
        <pt x="103" y="521" on="0"/>
        <pt x="154" y="619" on="0"/>
        <pt x="227" y="682" on="0"/>
        <pt x="317" y="712" on="0"/>
        <pt x="368" y="712" on="1"/>
        <pt x="419" y="712" on="0"/>
        <pt x="493" y="699" on="0"/>
        <pt x="520" y="688" on="1"/>
        <pt x="499" y="615" on="1"/>
        <pt x="476" y="626" on="0"/>
        <pt x="414" y="638" on="0"/>
        <pt x="370" y="638" on="1"/>
        <pt x="337" y="638" on="0"/>
        <pt x="275" y="618" on="0"/>
        <pt x="224" y="573" on="0"/>
        <pt x="185" y="503" on="0"/>
        <pt x="175" y="454" on="1"/>
        <pt x="457" y="454" on="1"/>
        <pt x="440" y="388" on="1"/>
        <pt x="166" y="388" on="1"/>
        <pt x="165" y="377" on="0"/>
        <pt x="165" y="361" on="0"/>
        <pt x="165" y="350" on="1"/>
        <pt x="165" y="340" on="0"/>
        <pt x="165" y="327" on="0"/>
        <pt x="166" y="318" on="1"/>
        <pt x="420" y="318" on="1"/>
        <pt x="403" y="252" on="1"/>
        <pt x="173" y="252" on="1"/>
        <pt x="191" y="158" on="0"/>
        <pt x="298" y="62" on="0"/>
        <pt x="383" y="62" on="1"/>
        <pt x="422" y="62" on="0"/>
        <pt x="487" y="80" on="0"/>
        <pt x="510" y="94" on="1"/>
        <pt x="530" y="29" on="1"/>
        <pt x="500" y="6" on="0"/>
        <pt x="411" y="-12" on="0"/>
        <pt x="366" y="-12" on="1"/>
        <pt x="252" y="-12" on="0"/>
        <pt x="109" y="118" on="0"/>
        <pt x="89" y="252" on="1"/>
        <pt x="10" y="252" on="1"/>
        <pt x="28" y="318" on="1"/>
        <pt x="83" y="318" on="1"/>
        <pt x="82" y="327" on="0"/>
        <pt x="82" y="340" on="0"/>
        <pt x="82" y="350" on="1"/>
        <pt x="82" y="361" on="0"/>
        <pt x="82" y="377" on="0"/>
        <pt x="83" y="388" on="1"/>
        <pt x="10" y="388" on="1"/>
      </contour>
    </TTGlyph>
    <TTGlyph name="F" xMin="85" yMin="0" xMax="466" yMax="700">
      <contour>
        <pt x="85" y="700" on="1"/>
        <pt x="466" y="700" on="1"/>
        <pt x="466" y="626" on="1"/>
        <pt x="168" y="626" on="1"/>
        <pt x="168" y="387" on="1"/>
        <pt x="446" y="387" on="1"/>
        <pt x="446" y="313" on="1"/>
        <pt x="168" y="313" on="1"/>
        <pt x="168" y="0" on="1"/>
        <pt x="85" y="0" on="1"/>
      </contour>
    </TTGlyph>
    <TTGlyph name="G" xMin="56" yMin="-12" xMax="556" yMax="712">
      <contour>
        <pt x="321" y="349" on="1"/>
        <pt x="556" y="349" on="1"/>
        <pt x="556" y="41" on="1"/>
        <pt x="540" y="29" on="0"/>
        <pt x="495" y="9" on="0"/>
        <pt x="444" y="-5" on="0"/>
        <pt x="389" y="-12" on="0"/>
        <pt x="363" y="-12" on="1"/>
        <pt x="296" y="-12" on="0"/>
        <pt x="184" y="31" on="0"/>
        <pt x="102" y="120" on="0"/>
        <pt x="56" y="257" on="0"/>
        <pt x="56" y="350" on="1"/>
        <pt x="56" y="447" on="0"/>
        <pt x="112" y="585" on="0"/>
        <pt x="202" y="672" on="0"/>
        <pt x="314" y="712" on="0"/>
        <pt x="370" y="712" on="1"/>
        <pt x="430" y="712" on="0"/>
        <pt x="508" y="699" on="0"/>
        <pt x="535" y="688" on="1"/>
        <pt x="514" y="615" on="1"/>
        <pt x="466" y="638" on="0"/>
        <pt x="377" y="638" on="1"/>
        <pt x="335" y="638" on="0"/>
        <pt x="252" y="609" on="0"/>
        <pt x="186" y="541" on="0"/>
        <pt x="144" y="431" on="0"/>
        <pt x="144" y="350" on="1"/>
        <pt x="144" y="276" on="0"/>
        <pt x="178" y="168" on="0"/>
        <pt x="239" y="97" on="0"/>
        <pt x="325" y="62" on="0"/>
        <pt x="376" y="62" on="1"/>
        <pt x="440" y="62" on="0"/>
        <pt x="485" y="87" on="1"/>
        <pt x="485" y="282" on="1"/>
        <pt x="321" y="302" on="1"/>
      </contour>
    </TTGlyph>
    <TTGlyph name="Gbreve" xMin="56" yMin="-12" xMax="556" yMax="871">
      <component glyphName="G" x="0" y="0" flags="0x204"/>
      <component glyphName="uniF406" x="120" y="0" flags="0x4"/>
    </TTGlyph>
    <TTGlyph name="Gcircumflex" xMin="56" yMin="-12" xMax="556" yMax="870">
      <component glyphName="G" x="0" y="0" flags="0x204"/>
      <component glyphName="uniF408" x="138" y="0" flags="0x4"/>
    </TTGlyph>
    <TTGlyph name="Gcommaaccent" xMin="56" yMin="-245" xMax="556" yMax="712">
      <component glyphName="G" x="0" y="0" flags="0x204"/>
      <component glyphName="uniF6C3" x="234" y="0" flags="0x4"/>
    </TTGlyph>
    <TTGlyph name="H" xMin="85" yMin="0" xMax="587" yMax="700">
      <contour>
        <pt x="504" y="321" on="1"/>
        <pt x="168" y="321" on="1"/>
        <pt x="168" y="0" on="1"/>
        <pt x="85" y="0" on="1"/>
        <pt x="85" y="700" on="1"/>
        <pt x="168" y="700" on="1"/>
        <pt x="168" y="395" on="1"/>
        <pt x="504" y="395" on="1"/>
        <pt x="504" y="700" on="1"/>
        <pt x="587" y="700" on="1"/>
        <pt x="587" y="0" on="1"/>
        <pt x="504" y="0" on="1"/>
      </contour>
    </TTGlyph>
    <TTGlyph name="Hbar" xMin="9" yMin="0" xMax="669" yMax="700">
      <contour>
        <pt x="9" y="587" on="1"/>
        <pt x="88" y="587" on="1"/>
        <pt x="88" y="700" on="1"/>
        <pt x="171" y="700" on="1"/>
        <pt x="171" y="587" on="1"/>
        <pt x="507" y="587" on="1"/>
        <pt x="507" y="700" on="1"/>
        <pt x="590" y="700" on="1"/>
        <pt x="590" y="587" on="1"/>
        <pt x="669" y="587" on="1"/>
        <pt x="669" y="523" on="1"/>
        <pt x="590" y="523" on="1"/>
        <pt x="590" y="0" on="1"/>
        <pt x="507" y="0" on="1"/>
        <pt x="507" y="321" on="1"/>
        <pt x="171" y="321" on="1"/>
        <pt x="171" y="0" on="1"/>
        <pt x="88" y="0" on="1"/>
        <pt x="88" y="523" on="1"/>
        <pt x="9" y="523" on="1"/>
      </contour>
      <contour>
        <pt x="507" y="395" on="1"/>
        <pt x="507" y="523" on="1"/>
        <pt x="171" y="523" on="1"/>
        <pt x="171" y="395" on="1"/>
      </contour>
    </TTGlyph>
    <TTGlyph name="Hcircumflex" xMin="85" yMin="0" xMax="587" yMax="870">
      <component glyphName="H" x="0" y="0" flags="0x204"/>
      <component glyphName="uniF408" x="114" y="0" flags="0x4"/>
    </TTGlyph>
    <TTGlyph name="I" xMin="104" yMin="0" xMax="187" yMax="700">
      <contour>
        <pt x="104" y="700" on="1"/>
        <pt x="187" y="700" on="1"/>
        <pt x="187" y="0" on="1"/>
        <pt x="104" y="0" on="1"/>
      </contour>
    </TTGlyph>
    <TTGlyph name="Iacute" xMin="62" yMin="0" xMax="294" yMax="870">
      <component glyphName="I" x="0" y="0" flags="0x204"/>
      <component glyphName="uniF6C9" x="2" y="0" flags="0x4"/>
    </TTGlyph>
    <TTGlyph name="Icircumflex" xMin="-15" yMin="0" xMax="305" yMax="870">
      <component glyphName="I" x="0" y="0" flags="0x204"/>
      <component glyphName="uniF408" x="-75" y="0" flags="0x4"/>
    </TTGlyph>
    <TTGlyph name="Idieresis" xMin="-2" yMin="0" xMax="296" yMax="841">
      <component glyphName="I" x="0" y="0" flags="0x204"/>
      <component glyphName="uniF6CB" x="-62" y="0" flags="0x4"/>
    </TTGlyph>
    <TTGlyph name="Idotaccent" xMin="84" yMin="0" xMax="210" yMax="849">
      <component glyphName="I" x="0" y="0" flags="0x204"/>
      <component glyphName="uniF40B" x="24" y="0" flags="0x4"/>
    </TTGlyph>
    <TTGlyph name="Igrave" xMin="1" yMin="0" xMax="233" yMax="870">
      <component glyphName="I" x="0" y="0" flags="0x204"/>
      <component glyphName="uniF6CE" x="-59" y="0" flags="0x4"/>
    </TTGlyph>
    <TTGlyph name="Imacron" xMin="-11" yMin="0" xMax="305" yMax="843">
      <component glyphName="I" x="0" y="0" flags="0x204"/>
      <component glyphName="uniF6D0" x="-71" y="0" flags="0x4"/>
    </TTGlyph>
    <TTGlyph name="Iogonek" xMin="34" yMin="-195" xMax="219" yMax="700">
      <contour>
        <pt x="104" y="700" on="1"/>
        <pt x="187" y="700" on="1"/>
        <pt x="187" y="0" on="1"/>
        <pt x="173" y="0" on="1"/>
        <pt x="147" y="-16" on="0"/>
        <pt x="117" y="-59" on="0"/>
        <pt x="117" y="-88" on="1"/>
        <pt x="117" y="-108" on="0"/>
        <pt x="143" y="-139" on="0"/>
        <pt x="168" y="-139" on="1"/>
        <pt x="187" y="-139" on="0"/>
        <pt x="208" y="-129" on="1"/>
        <pt x="219" y="-172" on="1"/>
        <pt x="204" y="-184" on="0"/>
        <pt x="154" y="-195" on="0"/>
        <pt x="133" y="-195" on="1"/>
        <pt x="88" y="-195" on="0"/>
        <pt x="34" y="-148" on="0"/>
        <pt x="34" y="-107" on="1"/>
        <pt x="34" y="-72" on="0"/>
        <pt x="76" y="-17" on="0"/>
        <pt x="114" y="0" on="1"/>
        <pt x="104" y="0" on="1"/>
      </contour>
    </TTGlyph>
    <TTGlyph name="J" xMin="-34" yMin="-10" xMax="195" yMax="700">
      <contour>
        <pt x="112" y="700" on="1"/>
        <pt x="195" y="700" on="1"/>
        <pt x="195" y="154" on="1"/>
        <pt x="195" y="74" on="0"/>
        <pt x="124" y="-10" on="0"/>
        <pt x="52" y="-10" on="1"/>
        <pt x="44" y="-10" on="0"/>
        <pt x="20" y="-8" on="0"/>
        <pt x="-4" y="-4" on="0"/>
        <pt x="-27" y="2" on="0"/>
        <pt x="-34" y="6" on="1"/>
        <pt x="-18" y="77" on="1"/>
        <pt x="10" y="64" on="0"/>
        <pt x="43" y="64" on="1"/>
        <pt x="85" y="64" on="0"/>
        <pt x="112" y="123" on="0"/>
        <pt x="112" y="174" on="1"/>
      </contour>
    </TTGlyph>
    <TTGlyph name="Jcircumflex" xMin="-34" yMin="-10" xMax="312" yMax="870">
      <component glyphName="J" x="0" y="0" flags="0x204"/>
      <component glyphName="uniF408" x="-68" y="0" flags="0x4"/>
    </TTGlyph>
    <TTGlyph name="K" xMin="85" yMin="0" xMax="575" yMax="700">
      <contour>
        <pt x="215" y="324" on="1"/>
        <pt x="168" y="324" on="1"/>
        <pt x="168" y="0" on="1"/>
        <pt x="85" y="0" on="1"/>
        <pt x="85" y="700" on="1"/>
        <pt x="168" y="700" on="1"/>
        <pt x="168" y="374" on="1"/>
        <pt x="213" y="388" on="1"/>
        <pt x="448" y="700" on="1"/>
        <pt x="544" y="700" on="1"/>
        <pt x="310" y="399" on="1"/>
        <pt x="268" y="366" on="1"/>
        <pt x="319" y="326" on="1"/>
        <pt x="575" y="0" on="1"/>
        <pt x="470" y="0" on="1"/>
      </contour>
    </TTGlyph>
    <TTGlyph name="Kcommaaccent" xMin="85" yMin="-245" xMax="575" yMax="700">
      <component glyphName="K" x="0" y="0" flags="0x204"/>
      <component glyphName="uniF6C3" x="172" y="0" flags="0x4"/>
    </TTGlyph>
    <TTGlyph name="L" xMin="85" yMin="0" xMax="499" yMax="700">
      <contour>
        <pt x="499" y="0" on="1"/>
        <pt x="85" y="0" on="1"/>
        <pt x="85" y="700" on="1"/>
        <pt x="168" y="700" on="1"/>
        <pt x="168" y="74" on="1"/>
        <pt x="499" y="74" on="1"/>
      </contour>
    </TTGlyph>
    <TTGlyph name="Lacute" xMin="85" yMin="0" xMax="499" yMax="870">
      <component glyphName="L" x="0" y="0" flags="0x204"/>
      <component glyphName="uniF6C9" x="53" y="0" flags="0x4"/>
    </TTGlyph>
    <TTGlyph name="Lcaron" xMin="85" yMin="0" xMax="499" yMax="700">
      <component glyphName="L" x="0" y="0" flags="0x204"/>
      <component glyphName="caron.l" x="110" y="0" flags="0x4"/>
    </TTGlyph>
    <TTGlyph name="Lcommaaccent" xMin="85" yMin="-245" xMax="499" yMax="700">
      <component glyphName="L" x="0" y="0" flags="0x204"/>
      <component glyphName="uniF6C3" x="132" y="0" flags="0x4"/>
    </TTGlyph>
    <TTGlyph name="Lslash" xMin="15" yMin="0" xMax="499" yMax="700">
      <contour>
        <pt x="15" y="287" on="1"/>
        <pt x="85" y="342" on="1"/>
        <pt x="85" y="700" on="1"/>
        <pt x="168" y="700" on="1"/>
        <pt x="168" y="407" on="1"/>
        <pt x="275" y="491" on="1"/>
        <pt x="275" y="411" on="1"/>
        <pt x="168" y="329" on="1"/>
        <pt x="168" y="74" on="1"/>
        <pt x="499" y="74" on="1"/>
        <pt x="499" y="0" on="1"/>
        <pt x="85" y="0" on="1"/>
        <pt x="85" y="265" on="1"/>
        <pt x="15" y="211" on="1"/>
      </contour>
    </TTGlyph>
    <TTGlyph name="M" xMin="85" yMin="0" xMax="706" yMax="700">
      <contour>
        <pt x="623" y="470" on="1"/>
        <pt x="633" y="575" on="1"/>
        <pt x="628" y="575" on="1"/>
        <pt x="590" y="479" on="1"/>
        <pt x="408" y="163" on="1"/>
        <pt x="383" y="163" on="1"/>
        <pt x="190" y="480" on="1"/>
        <pt x="154" y="575" on="1"/>
        <pt x="149" y="575" on="1"/>
        <pt x="163" y="471" on="1"/>
        <pt x="163" y="0" on="1"/>
        <pt x="85" y="0" on="1"/>
        <pt x="85" y="700" on="1"/>
        <pt x="147" y="700" on="1"/>
        <pt x="366" y="342" on="1"/>
        <pt x="399" y="264" on="1"/>
        <pt x="401" y="264" on="1"/>
        <pt x="432" y="344" on="1"/>
        <pt x="641" y="700" on="1"/>
        <pt x="706" y="700" on="1"/>
        <pt x="706" y="0" on="1"/>
        <pt x="623" y="0" on="1"/>
      </contour>
    </TTGlyph>
    <TTGlyph name="N" xMin="85" yMin="-11" xMax="588" yMax="711">
      <contour>
        <pt x="211" y="458" on="1"/>
        <pt x="157" y="559" on="1"/>
        <pt x="153" y="559" on="1"/>
        <pt x="163" y="458" on="1"/>
        <pt x="163" y="0" on="1"/>
        <pt x="85" y="0" on="1"/>
        <pt x="85" y="711" on="1"/>
        <pt x="129" y="711" on="1"/>
        <pt x="464" y="244" on="1"/>
        <pt x="516" y="148" on="1"/>
        <pt x="521" y="148" on="1"/>
        <pt x="510" y="244" on="1"/>
        <pt x="510" y="700" on="1"/>
        <pt x="588" y="700" on="1"/>
        <pt x="588" y="-11" on="1"/>
        <pt x="544" y="-11" on="1"/>
      </contour>
    </TTGlyph>
    <TTGlyph name="Nacute" xMin="85" yMin="-11" xMax="588" yMax="870">
      <component glyphName="N" x="0" y="0" flags="0x204"/>
      <component glyphName="uniF6C9" x="229" y="0" flags="0x4"/>
    </TTGlyph>
    <TTGlyph name="Ncaron" xMin="85" yMin="-11" xMax="588" yMax="870">
      <component glyphName="N" x="0" y="0" flags="0x204"/>
      <component glyphName="uniF6CA" x="119" y="0" flags="0x4"/>
    </TTGlyph>
    <TTGlyph name="Ncommaaccent" xMin="85" yMin="-245" xMax="588" yMax="711">
      <component glyphName="N" x="0" y="0" flags="0x204"/>
      <component glyphName="uniF6C3" x="219" y="0" flags="0x4"/>
    </TTGlyph>
    <TTGlyph name="Ntilde" xMin="85" yMin="-11" xMax="588" yMax="840">
      <component glyphName="N" x="0" y="0" flags="0x204"/>
      <component glyphName="uniF40D" x="119" y="0" flags="0x4"/>
    </TTGlyph>
    <TTGlyph name="O" xMin="56" yMin="-12" xMax="628" yMax="712">
      <contour>
        <pt x="56" y="350" on="1"/>
        <pt x="56" y="525" on="0"/>
        <pt x="204" y="712" on="0"/>
        <pt x="341" y="712" on="1"/>
        <pt x="415" y="712" on="0"/>
        <pt x="523" y="660" on="0"/>
        <pt x="594" y="565" on="0"/>
        <pt x="628" y="432" on="0"/>
        <pt x="628" y="350" on="1"/>
        <pt x="628" y="175" on="0"/>
        <pt x="479" y="-12" on="0"/>
        <pt x="341" y="-12" on="1"/>
        <pt x="268" y="-12" on="0"/>
        <pt x="161" y="40" on="0"/>
        <pt x="90" y="135" on="0"/>
        <pt x="56" y="268" on="0"/>
      </contour>
      <contour>
        <pt x="144" y="350" on="1"/>
        <pt x="144" y="292" on="0"/>
        <pt x="167" y="188" on="0"/>
        <pt x="215" y="109" on="0"/>
        <pt x="290" y="62" on="0"/>
        <pt x="341" y="62" on="1"/>
        <pt x="434" y="62" on="0"/>
        <pt x="540" y="203" on="0"/>
        <pt x="540" y="350" on="1"/>
        <pt x="540" y="407" on="0"/>
        <pt x="517" y="512" on="0"/>
        <pt x="468" y="591" on="0"/>
        <pt x="393" y="638" on="0"/>
        <pt x="341" y="638" on="1"/>
        <pt x="249" y="638" on="0"/>
        <pt x="144" y="497" on="0"/>
      </contour>
    </TTGlyph>
    <TTGlyph name="OE" xMin="56" yMin="-12" xMax="867" yMax="712">
      <contour>
        <pt x="481" y="618" on="1"/>
        <pt x="453" y="629" on="0"/>
        <pt x="379" y="638" on="0"/>
        <pt x="341" y="638" on="1"/>
        <pt x="249" y="638" on="0"/>
        <pt x="144" y="497" on="0"/>
        <pt x="144" y="350" on="1"/>
        <pt x="144" y="292" on="0"/>
        <pt x="167" y="188" on="0"/>
        <pt x="217" y="109" on="0"/>
        <pt x="295" y="62" on="0"/>
        <pt x="349" y="62" on="1"/>
        <pt x="378" y="62" on="0"/>
        <pt x="439" y="66" on="0"/>
        <pt x="481" y="79" on="1"/>
      </contour>
      <contour>
        <pt x="481" y="0" on="1"/>
        <pt x="456" y="-5" on="0"/>
        <pt x="386" y="-12" on="0"/>
        <pt x="341" y="-12" on="1"/>
        <pt x="268" y="-12" on="0"/>
        <pt x="161" y="40" on="0"/>
        <pt x="90" y="135" on="0"/>
        <pt x="56" y="268" on="0"/>
        <pt x="56" y="350" on="1"/>
        <pt x="56" y="525" on="0"/>
        <pt x="204" y="712" on="0"/>
        <pt x="341" y="712" on="1"/>
        <pt x="388" y="712" on="0"/>
        <pt x="449" y="705" on="0"/>
        <pt x="481" y="700" on="1"/>
        <pt x="862" y="700" on="1"/>
        <pt x="862" y="626" on="1"/>
        <pt x="564" y="626" on="1"/>
        <pt x="564" y="397" on="1"/>
        <pt x="837" y="397" on="1"/>
        <pt x="837" y="323" on="1"/>
        <pt x="564" y="323" on="1"/>
        <pt x="564" y="74" on="1"/>
        <pt x="867" y="74" on="1"/>
        <pt x="867" y="0" on="1"/>
      </contour>
    </TTGlyph>
    <TTGlyph name="Oacute" xMin="56" yMin="-12" xMax="628" yMax="870">
      <component glyphName="O" x="0" y="0" flags="0x204"/>
      <component glyphName="uniF6C9" x="237" y="0" flags="0x4"/>
    </TTGlyph>
    <TTGlyph name="Ocircumflex" xMin="56" yMin="-12" xMax="628" yMax="870">
      <component glyphName="O" x="0" y="0" flags="0x204"/>
      <component glyphName="uniF408" x="119" y="0" flags="0x4"/>
    </TTGlyph>
    <TTGlyph name="Odieresis" xMin="56" yMin="-12" xMax="628" yMax="841">
      <component glyphName="O" x="0" y="0" flags="0x204"/>
      <component glyphName="uniF6CB" x="130" y="0" flags="0x4"/>
    </TTGlyph>
    <TTGlyph name="Ograve" xMin="56" yMin="-12" xMax="628" yMax="870">
      <component glyphName="O" x="0" y="0" flags="0x204"/>
      <component glyphName="uniF6CE" x="118" y="0" flags="0x4"/>
    </TTGlyph>
    <TTGlyph name="Ohungarumlaut" xMin="56" yMin="-12" xMax="628" yMax="850">
      <component glyphName="O" x="0" y="0" flags="0x204"/>
      <component glyphName="uniF6CF" x="182" y="0" flags="0x4"/>
    </TTGlyph>
    <TTGlyph name="Omacron" xMin="56" yMin="-12" xMax="628" yMax="843">
      <component glyphName="O" x="0" y="0" flags="0x204"/>
      <component glyphName="uniF6D0" x="130" y="0" flags="0x4"/>
    </TTGlyph>
    <TTGlyph name="Oslash" xMin="56" yMin="-12" xMax="628" yMax="713">
      <contour>
        <pt x="122" y="91" on="1"/>
        <pt x="88" y="139" on="0"/>
        <pt x="56" y="269" on="0"/>
        <pt x="56" y="350" on="1"/>
        <pt x="56" y="525" on="0"/>
        <pt x="204" y="712" on="0"/>
        <pt x="341" y="712" on="1"/>
        <pt x="398" y="712" on="0"/>
        <pt x="486" y="682" on="0"/>
        <pt x="520" y="653" on="1"/>
        <pt x="562" y="713" on="1"/>
        <pt x="614" y="678" on="1"/>
        <pt x="563" y="606" on="1"/>
        <pt x="596" y="558" on="0"/>
        <pt x="628" y="429" on="0"/>
        <pt x="628" y="350" on="1"/>
        <pt x="628" y="175" on="0"/>
        <pt x="479" y="-12" on="0"/>
        <pt x="341" y="-12" on="1"/>
        <pt x="234" y="-12" on="0"/>
        <pt x="166" y="44" on="1"/>
        <pt x="127" y="-12" on="1"/>
        <pt x="75" y="24" on="1"/>
      </contour>
      <contour>
        <pt x="144" y="350" on="1"/>
        <pt x="144" y="299" on="0"/>
        <pt x="161" y="209" on="0"/>
        <pt x="179" y="171" on="1"/>
        <pt x="469" y="582" on="1"/>
        <pt x="446" y="608" on="0"/>
        <pt x="383" y="638" on="0"/>
        <pt x="341" y="638" on="1"/>
        <pt x="249" y="638" on="0"/>
        <pt x="144" y="497" on="0"/>
      </contour>
      <contour>
        <pt x="540" y="350" on="1"/>
        <pt x="540" y="398" on="0"/>
        <pt x="523" y="488" on="0"/>
        <pt x="506" y="525" on="1"/>
        <pt x="216" y="114" on="1"/>
        <pt x="239" y="89" on="0"/>
        <pt x="301" y="62" on="0"/>
        <pt x="341" y="62" on="1"/>
        <pt x="434" y="62" on="0"/>
        <pt x="540" y="203" on="0"/>
      </contour>
    </TTGlyph>
    <TTGlyph name="Otilde" xMin="56" yMin="-12" xMax="628" yMax="840">
      <component glyphName="O" x="0" y="0" flags="0x204"/>
      <component glyphName="uniF40D" x="122" y="0" flags="0x4"/>
    </TTGlyph>
    <TTGlyph name="P" xMin="85" yMin="0" xMax="522" yMax="708">
      <contour>
        <pt x="85" y="693" on="1"/>
        <pt x="123" y="702" on="0"/>
        <pt x="211" y="708" on="0"/>
        <pt x="254" y="708" on="1"/>
        <pt x="300" y="708" on="0"/>
        <pt x="395" y="690" on="0"/>
        <pt x="473" y="642" on="0"/>
        <pt x="522" y="558" on="0"/>
        <pt x="522" y="493" on="1"/>
        <pt x="522" y="429" on="0"/>
        <pt x="476" y="341" on="0"/>
        <pt x="400" y="286" on="0"/>
        <pt x="302" y="262" on="0"/>
        <pt x="250" y="262" on="1"/>
        <pt x="245" y="262" on="0"/>
        <pt x="222" y="262" on="0"/>
        <pt x="197" y="263" on="0"/>
        <pt x="173" y="265" on="0"/>
        <pt x="168" y="266" on="1"/>
        <pt x="168" y="0" on="1"/>
        <pt x="85" y="0" on="1"/>
      </contour>
      <contour>
        <pt x="256" y="636" on="1"/>
        <pt x="230" y="636" on="0"/>
        <pt x="182" y="634" on="0"/>
        <pt x="168" y="630" on="1"/>
        <pt x="168" y="340" on="1"/>
        <pt x="173" y="338" on="0"/>
        <pt x="195" y="337" on="0"/>
        <pt x="219" y="336" on="0"/>
        <pt x="241" y="336" on="0"/>
        <pt x="246" y="336" on="1"/>
        <pt x="280" y="336" on="0"/>
        <pt x="347" y="349" on="0"/>
        <pt x="401" y="383" on="0"/>
        <pt x="434" y="445" on="0"/>
        <pt x="434" y="493" on="1"/>
        <pt x="434" y="534" on="0"/>
        <pt x="403" y="589" on="0"/>
        <pt x="352" y="622" on="0"/>
        <pt x="288" y="636" on="0"/>
      </contour>
    </TTGlyph>
    <TTGlyph name="Q" xMin="56" yMin="-183" xMax="704" yMax="712">
      <contour>
        <pt x="704" y="-171" on="1"/>
        <pt x="680" y="-178" on="0"/>
        <pt x="634" y="-183" on="0"/>
        <pt x="611" y="-183" on="1"/>
        <pt x="561" y="-183" on="0"/>
        <pt x="466" y="-162" on="0"/>
        <pt x="377" y="-137" on="0"/>
        <pt x="295" y="-116" on="0"/>
        <pt x="258" y="-116" on="1"/>
        <pt x="234" y="-116" on="0"/>
        <pt x="212" y="-122" on="1"/>
        <pt x="212" y="-49" on="1"/>
        <pt x="226" y="-46" on="0"/>
        <pt x="252" y="-42" on="0"/>
        <pt x="266" y="-42" on="1"/>
        <pt x="308" y="-42" on="0"/>
        <pt x="391" y="-63" on="0"/>
        <pt x="477" y="-88" on="0"/>
        <pt x="567" y="-109" on="0"/>
        <pt x="617" y="-109" on="1"/>
        <pt x="661" y="-109" on="0"/>
        <pt x="704" y="-99" on="1"/>
      </contour>
      <contour>
        <pt x="56" y="350" on="1"/>
        <pt x="56" y="525" on="0"/>
        <pt x="204" y="712" on="0"/>
        <pt x="341" y="712" on="1"/>
        <pt x="415" y="712" on="0"/>
        <pt x="523" y="660" on="0"/>
        <pt x="594" y="565" on="0"/>
        <pt x="628" y="432" on="0"/>
        <pt x="628" y="350" on="1"/>
        <pt x="628" y="175" on="0"/>
        <pt x="479" y="-12" on="0"/>
        <pt x="341" y="-12" on="1"/>
        <pt x="268" y="-12" on="0"/>
        <pt x="161" y="40" on="0"/>
        <pt x="90" y="135" on="0"/>
        <pt x="56" y="268" on="0"/>
      </contour>
      <contour>
        <pt x="144" y="350" on="1"/>
        <pt x="144" y="292" on="0"/>
        <pt x="167" y="188" on="0"/>
        <pt x="215" y="109" on="0"/>
        <pt x="290" y="62" on="0"/>
        <pt x="341" y="62" on="1"/>
        <pt x="434" y="62" on="0"/>
        <pt x="540" y="203" on="0"/>
        <pt x="540" y="350" on="1"/>
        <pt x="540" y="407" on="0"/>
        <pt x="517" y="512" on="0"/>
        <pt x="468" y="591" on="0"/>
        <pt x="393" y="638" on="0"/>
        <pt x="341" y="638" on="1"/>
        <pt x="249" y="638" on="0"/>
        <pt x="144" y="497" on="0"/>
      </contour>
    </TTGlyph>
    <TTGlyph name="R" xMin="85" yMin="0" xMax="556" yMax="708">
      <contour>
        <pt x="85" y="693" on="1"/>
        <pt x="123" y="700" on="0"/>
        <pt x="222" y="708" on="0"/>
        <pt x="263" y="708" on="1"/>
        <pt x="309" y="708" on="0"/>
        <pt x="392" y="688" on="0"/>
        <pt x="455" y="642" on="0"/>
        <pt x="493" y="568" on="0"/>
        <pt x="493" y="515" on="1"/>
        <pt x="493" y="433" on="0"/>
        <pt x="403" y="331" on="0"/>
        <pt x="334" y="314" on="1"/>
        <pt x="382" y="277" on="1"/>
        <pt x="556" y="0" on="1"/>
        <pt x="459" y="0" on="1"/>
        <pt x="266" y="302" on="1"/>
        <pt x="168" y="317" on="1"/>
        <pt x="168" y="0" on="1"/>
        <pt x="85" y="0" on="1"/>
      </contour>
      <contour>
        <pt x="265" y="636" on="1"/>
        <pt x="252" y="636" on="0"/>
        <pt x="224" y="636" on="0"/>
        <pt x="198" y="634" on="0"/>
        <pt x="175" y="632" on="0"/>
        <pt x="168" y="630" on="1"/>
        <pt x="168" y="372" on="1"/>
        <pt x="246" y="372" on="1"/>
        <pt x="315" y="372" on="0"/>
        <pt x="405" y="440" on="0"/>
        <pt x="405" y="512" on="1"/>
        <pt x="405" y="566" on="0"/>
        <pt x="331" y="636" on="0"/>
      </contour>
    </TTGlyph>
    <TTGlyph name="Racute" xMin="85" yMin="0" xMax="556" yMax="870">
      <component glyphName="R" x="0" y="0" flags="0x204"/>
      <component glyphName="uniF6C9" x="142" y="0" flags="0x4"/>
    </TTGlyph>
    <TTGlyph name="Rcaron" xMin="85" yMin="0" xMax="556" yMax="870">
      <component glyphName="R" x="0" y="0" flags="0x204"/>
      <component glyphName="uniF6CA" x="32" y="0" flags="0x4"/>
    </TTGlyph>
    <TTGlyph name="Rcommaaccent" xMin="85" yMin="-245" xMax="556" yMax="708">
      <component glyphName="R" x="0" y="0" flags="0x204"/>
      <component glyphName="uniF6C3" x="179" y="0" flags="0x4"/>
    </TTGlyph>
    <TTGlyph name="S" xMin="46" yMin="-12" xMax="484" yMax="712">
      <contour>
        <pt x="401" y="178" on="1"/>
        <pt x="401" y="220" on="0"/>
        <pt x="351" y="273" on="0"/>
        <pt x="276" y="314" on="0"/>
        <pt x="188" y="350" on="0"/>
        <pt x="113" y="401" on="0"/>
        <pt x="63" y="476" on="0"/>
        <pt x="63" y="534" on="1"/>
        <pt x="63" y="616" on="0"/>
        <pt x="177" y="712" on="0"/>
        <pt x="282" y="712" on="1"/>
        <pt x="343" y="712" on="0"/>
        <pt x="443" y="694" on="0"/>
        <pt x="471" y="680" on="1"/>
        <pt x="446" y="607" on="1"/>
        <pt x="423" y="618" on="0"/>
        <pt x="334" y="638" on="0"/>
        <pt x="278" y="638" on="1"/>
        <pt x="212" y="638" on="0"/>
        <pt x="146" y="579" on="0"/>
        <pt x="146" y="539" on="1"/>
        <pt x="146" y="500" on="0"/>
        <pt x="196" y="448" on="0"/>
        <pt x="271" y="407" on="0"/>
        <pt x="359" y="367" on="0"/>
        <pt x="434" y="314" on="0"/>
        <pt x="484" y="240" on="0"/>
        <pt x="484" y="185" on="1"/>
        <pt x="484" y="140" on="0"/>
        <pt x="452" y="68" on="0"/>
        <pt x="390" y="16" on="0"/>
        <pt x="302" y="-12" on="0"/>
        <pt x="246" y="-12" on="1"/>
        <pt x="171" y="-12" on="0"/>
        <pt x="73" y="11" on="0"/>
        <pt x="46" y="25" on="1"/>
        <pt x="74" y="100" on="1"/>
        <pt x="97" y="87" on="0"/>
        <pt x="187" y="62" on="0"/>
        <pt x="243" y="62" on="1"/>
        <pt x="276" y="62" on="0"/>
        <pt x="334" y="75" on="0"/>
        <pt x="376" y="104" on="0"/>
        <pt x="401" y="148" on="0"/>
      </contour>
    </TTGlyph>
    <TTGlyph name="Sacute" xMin="46" yMin="-12" xMax="484" yMax="870">
      <component glyphName="S" x="0" y="0" flags="0x204"/>
      <component glyphName="uniF6C9" x="168" y="0" flags="0x4"/>
    </TTGlyph>
    <TTGlyph name="Scaron" xMin="46" yMin="-12" xMax="484" yMax="870">
      <component glyphName="S" x="0" y="0" flags="0x204"/>
      <component glyphName="uniF6CA" x="77" y="0" flags="0x4"/>
    </TTGlyph>
    <TTGlyph name="Scedilla" xMin="46" yMin="-208" xMax="484" yMax="712">
      <contour>
        <pt x="401" y="178" on="1"/>
        <pt x="401" y="220" on="0"/>
        <pt x="351" y="273" on="0"/>
        <pt x="276" y="314" on="0"/>
        <pt x="188" y="350" on="0"/>
        <pt x="113" y="401" on="0"/>
        <pt x="63" y="476" on="0"/>
        <pt x="63" y="534" on="1"/>
        <pt x="63" y="616" on="0"/>
        <pt x="177" y="712" on="0"/>
        <pt x="282" y="712" on="1"/>
        <pt x="343" y="712" on="0"/>
        <pt x="443" y="694" on="0"/>
        <pt x="471" y="680" on="1"/>
        <pt x="446" y="607" on="1"/>
        <pt x="423" y="618" on="0"/>
        <pt x="334" y="638" on="0"/>
        <pt x="278" y="638" on="1"/>
        <pt x="212" y="638" on="0"/>
        <pt x="146" y="579" on="0"/>
        <pt x="146" y="539" on="1"/>
        <pt x="146" y="500" on="0"/>
        <pt x="196" y="448" on="0"/>
        <pt x="271" y="407" on="0"/>
        <pt x="359" y="367" on="0"/>
        <pt x="434" y="314" on="0"/>
        <pt x="484" y="240" on="0"/>
        <pt x="484" y="185" on="1"/>
        <pt x="484" y="106" on="0"/>
        <pt x="386" y="4" on="0"/>
        <pt x="298" y="-8" on="1"/>
        <pt x="279" y="-43" on="1"/>
        <pt x="321" y="-51" on="0"/>
        <pt x="358" y="-87" on="0"/>
        <pt x="358" y="-118" on="1"/>
        <pt x="358" y="-157" on="0"/>
        <pt x="294" y="-208" on="0"/>
        <pt x="236" y="-208" on="1"/>
        <pt x="225" y="-208" on="0"/>
        <pt x="203" y="-206" on="0"/>
        <pt x="191" y="-204" on="1"/>
        <pt x="200" y="-165" on="1"/>
        <pt x="206" y="-166" on="0"/>
        <pt x="216" y="-166" on="0"/>
        <pt x="221" y="-166" on="1"/>
        <pt x="243" y="-166" on="0"/>
        <pt x="268" y="-158" on="0"/>
        <pt x="281" y="-147" on="0"/>
        <pt x="284" y="-133" on="0"/>
        <pt x="284" y="-127" on="1"/>
        <pt x="284" y="-99" on="0"/>
        <pt x="198" y="-90" on="1"/>
        <pt x="239" y="-12" on="1"/>
        <pt x="167" y="-11" on="0"/>
        <pt x="72" y="11" on="0"/>
        <pt x="46" y="25" on="1"/>
        <pt x="74" y="100" on="1"/>
        <pt x="97" y="87" on="0"/>
        <pt x="187" y="62" on="0"/>
        <pt x="243" y="62" on="1"/>
        <pt x="276" y="62" on="0"/>
        <pt x="334" y="75" on="0"/>
        <pt x="376" y="104" on="0"/>
        <pt x="401" y="148" on="0"/>
      </contour>
    </TTGlyph>
    <TTGlyph name="Scircumflex" xMin="46" yMin="-12" xMax="484" yMax="870">
      <component glyphName="S" x="0" y="0" flags="0x204"/>
      <component glyphName="uniF408" x="59" y="0" flags="0x4"/>
    </TTGlyph>
    <TTGlyph name="Scommaaccent" xMin="46" yMin="-245" xMax="484" yMax="712">
      <component glyphName="S" x="0" y="0" flags="0x204"/>
      <component glyphName="uniF6C3" x="143" y="0" flags="0x4"/>
    </TTGlyph>
    <TTGlyph name="T" xMin="18" yMin="0" xMax="537" yMax="700">
      <contour>
        <pt x="537" y="626" on="1"/>
        <pt x="319" y="626" on="1"/>
        <pt x="319" y="0" on="1"/>
        <pt x="236" y="0" on="1"/>
        <pt x="236" y="626" on="1"/>
        <pt x="18" y="626" on="1"/>
        <pt x="18" y="700" on="1"/>
        <pt x="537" y="700" on="1"/>
      </contour>
    </TTGlyph>
    <TTGlyph name="Tcaron" xMin="18" yMin="0" xMax="537" yMax="870">
      <component glyphName="T" x="0" y="0" flags="0x204"/>
      <component glyphName="uniF6CA" x="59" y="0" flags="0x4"/>
    </TTGlyph>
    <TTGlyph name="Tcedilla" xMin="18" yMin="-208" xMax="537" yMax="700">
      <contour>
        <pt x="236" y="0" on="1"/>
        <pt x="236" y="626" on="1"/>
        <pt x="18" y="626" on="1"/>
        <pt x="18" y="700" on="1"/>
        <pt x="537" y="700" on="1"/>
        <pt x="537" y="626" on="1"/>
        <pt x="319" y="626" on="1"/>
        <pt x="319" y="0" on="1"/>
        <pt x="307" y="0" on="1"/>
        <pt x="283" y="-43" on="1"/>
        <pt x="325" y="-51" on="0"/>
        <pt x="362" y="-87" on="0"/>
        <pt x="362" y="-118" on="1"/>
        <pt x="362" y="-157" on="0"/>
        <pt x="298" y="-208" on="0"/>
        <pt x="240" y="-208" on="1"/>
        <pt x="229" y="-208" on="0"/>
        <pt x="207" y="-206" on="0"/>
        <pt x="195" y="-204" on="1"/>
        <pt x="204" y="-165" on="1"/>
        <pt x="210" y="-166" on="0"/>
        <pt x="220" y="-166" on="0"/>
        <pt x="225" y="-166" on="1"/>
        <pt x="247" y="-166" on="0"/>
        <pt x="272" y="-158" on="0"/>
        <pt x="285" y="-147" on="0"/>
        <pt x="288" y="-133" on="0"/>
        <pt x="288" y="-127" on="1"/>
        <pt x="288" y="-99" on="0"/>
        <pt x="202" y="-90" on="1"/>
        <pt x="250" y="0" on="1"/>
      </contour>
    </TTGlyph>
    <TTGlyph name="Tcommaaccent" xMin="18" yMin="-245" xMax="537" yMax="700">
      <component glyphName="T" x="0" y="0" flags="0x204"/>
      <component glyphName="uniF6C3" x="158" y="0" flags="0x4"/>
    </TTGlyph>
    <TTGlyph name="Thorn" xMin="85" yMin="0" xMax="522" yMax="700">
      <contour>
        <pt x="85" y="700" on="1"/>
        <pt x="168" y="700" on="1"/>
        <pt x="168" y="625" on="1"/>
        <pt x="210" y="628" on="0"/>
        <pt x="254" y="628" on="1"/>
        <pt x="300" y="628" on="0"/>
        <pt x="395" y="610" on="0"/>
        <pt x="473" y="562" on="0"/>
        <pt x="522" y="478" on="0"/>
        <pt x="522" y="413" on="1"/>
        <pt x="522" y="349" on="0"/>
        <pt x="476" y="261" on="0"/>
        <pt x="400" y="206" on="0"/>
        <pt x="302" y="181" on="0"/>
        <pt x="250" y="181" on="1"/>
        <pt x="245" y="181" on="0"/>
        <pt x="222" y="181" on="0"/>
        <pt x="197" y="182" on="0"/>
        <pt x="173" y="184" on="0"/>
        <pt x="168" y="185" on="1"/>
        <pt x="168" y="0" on="1"/>
        <pt x="85" y="0" on="1"/>
      </contour>
      <contour>
        <pt x="256" y="556" on="1"/>
        <pt x="230" y="556" on="0"/>
        <pt x="182" y="554" on="0"/>
        <pt x="168" y="550" on="1"/>
        <pt x="168" y="260" on="1"/>
        <pt x="173" y="258" on="0"/>
        <pt x="195" y="257" on="0"/>
        <pt x="219" y="255" on="0"/>
        <pt x="241" y="255" on="0"/>
        <pt x="246" y="255" on="1"/>
        <pt x="280" y="255" on="0"/>
        <pt x="347" y="268" on="0"/>
        <pt x="401" y="303" on="0"/>
        <pt x="434" y="365" on="0"/>
        <pt x="434" y="413" on="1"/>
        <pt x="434" y="454" on="0"/>
        <pt x="403" y="509" on="0"/>
        <pt x="352" y="542" on="0"/>
        <pt x="288" y="556" on="0"/>
      </contour>
    </TTGlyph>
    <TTGlyph name="U" xMin="85" yMin="-9" xMax="567" yMax="700">
      <contour>
        <pt x="487" y="700" on="1"/>
        <pt x="567" y="700" on="1"/>
        <pt x="567" y="233" on="1"/>
        <pt x="567" y="170" on="0"/>
        <pt x="534" y="78" on="0"/>
        <pt x="473" y="19" on="0"/>
        <pt x="387" y="-9" on="0"/>
        <pt x="335" y="-9" on="1"/>
        <pt x="211" y="-9" on="0"/>
        <pt x="85" y="103" on="0"/>
        <pt x="85" y="217" on="1"/>
        <pt x="85" y="700" on="1"/>
        <pt x="168" y="700" on="1"/>
        <pt x="168" y="256" on="1"/>
        <pt x="168" y="203" on="0"/>
        <pt x="189" y="130" on="0"/>
        <pt x="231" y="85" on="0"/>
        <pt x="294" y="65" on="0"/>
        <pt x="336" y="65" on="1"/>
        <pt x="417" y="65" on="0"/>
        <pt x="487" y="154" on="0"/>
        <pt x="487" y="256" on="1"/>
      </contour>
    </TTGlyph>
    <TTGlyph name="Uacute" xMin="85" yMin="-9" xMax="567" yMax="870">
      <component glyphName="U" x="0" y="0" flags="0x204"/>
      <component glyphName="uniF6C9" x="212" y="0" flags="0x4"/>
    </TTGlyph>
    <TTGlyph name="Ubreve" xMin="85" yMin="-9" xMax="567" yMax="871">
      <component glyphName="U" x="0" y="0" flags="0x204"/>
      <component glyphName="uniF406" x="94" y="0" flags="0x4"/>
    </TTGlyph>
    <TTGlyph name="Ucircumflex" xMin="85" yMin="-9" xMax="567" yMax="870">
      <component glyphName="U" x="0" y="0" flags="0x204"/>
      <component glyphName="uniF408" x="108" y="0" flags="0x4"/>
    </TTGlyph>
    <TTGlyph name="Udieresis" xMin="85" yMin="-9" xMax="567" yMax="841">
      <component glyphName="U" x="0" y="0" flags="0x204"/>
      <component glyphName="uniF6CB" x="118" y="0" flags="0x4"/>
    </TTGlyph>
    <TTGlyph name="Ugrave" xMin="85" yMin="-9" xMax="567" yMax="870">
      <component glyphName="U" x="0" y="0" flags="0x204"/>
      <component glyphName="uniF6CE" x="115" y="0" flags="0x4"/>
    </TTGlyph>
    <TTGlyph name="Uhungarumlaut" xMin="85" yMin="-9" xMax="567" yMax="850">
      <component glyphName="U" x="0" y="0" flags="0x204"/>
      <component glyphName="uniF6CF" x="153" y="0" flags="0x4"/>
    </TTGlyph>
    <TTGlyph name="Umacron" xMin="85" yMin="-9" xMax="567" yMax="843">
      <component glyphName="U" x="0" y="0" flags="0x204"/>
      <component glyphName="uniF6D0" x="110" y="0" flags="0x4"/>
    </TTGlyph>
    <TTGlyph name="Uogonek" xMin="85" yMin="-195" xMax="567" yMax="700">
      <contour>
        <pt x="487" y="700" on="1"/>
        <pt x="567" y="700" on="1"/>
        <pt x="567" y="233" on="1"/>
        <pt x="565" y="136" on="0"/>
        <pt x="493" y="25" on="0"/>
        <pt x="428" y="4" on="1"/>
        <pt x="398" y="-12" on="0"/>
        <pt x="366" y="-58" on="0"/>
        <pt x="366" y="-87" on="1"/>
        <pt x="367" y="-108" on="0"/>
        <pt x="393" y="-137" on="0"/>
        <pt x="417" y="-138" on="1"/>
        <pt x="438" y="-138" on="0"/>
        <pt x="458" y="-129" on="1"/>
        <pt x="469" y="-172" on="1"/>
        <pt x="455" y="-183" on="0"/>
        <pt x="407" y="-195" on="0"/>
        <pt x="384" y="-195" on="1"/>
        <pt x="339" y="-195" on="0"/>
        <pt x="284" y="-147" on="0"/>
        <pt x="284" y="-106" on="1"/>
        <pt x="284" y="-76" on="0"/>
        <pt x="316" y="-26" on="0"/>
        <pt x="344" y="-9" on="1"/>
        <pt x="335" y="-9" on="1"/>
        <pt x="211" y="-9" on="0"/>
        <pt x="85" y="103" on="0"/>
        <pt x="85" y="217" on="1"/>
        <pt x="85" y="700" on="1"/>
        <pt x="168" y="700" on="1"/>
        <pt x="168" y="256" on="1"/>
        <pt x="168" y="203" on="0"/>
        <pt x="189" y="130" on="0"/>
        <pt x="231" y="85" on="0"/>
        <pt x="294" y="65" on="0"/>
        <pt x="336" y="65" on="1"/>
        <pt x="416" y="65" on="0"/>
        <pt x="486" y="154" on="0"/>
        <pt x="487" y="256" on="1"/>
      </contour>
    </TTGlyph>
    <TTGlyph name="Uring" xMin="85" yMin="-9" xMax="567" yMax="853">
      <component glyphName="U" x="0" y="0" flags="0x204"/>
      <component glyphName="uniF40C" x="165" y="0" flags="0x4"/>
    </TTGlyph>
    <TTGlyph name="V" xMin="-2" yMin="-11" xMax="570" yMax="700">
      <contour>
        <pt x="267" y="219" on="1"/>
        <pt x="291" y="113" on="1"/>
        <pt x="292" y="113" on="1"/>
        <pt x="318" y="221" on="1"/>
        <pt x="487" y="700" on="1"/>
        <pt x="570" y="700" on="1"/>
        <pt x="305" y="-11" on="1"/>
        <pt x="268" y="-11" on="1"/>
        <pt x="-2" y="700" on="1"/>
        <pt x="89" y="700" on="1"/>
      </contour>
    </TTGlyph>
    <TTGlyph name="W" xMin="8" yMin="-11" xMax="820" yMax="700">
      <contour>
        <pt x="222" y="231" on="1"/>
        <pt x="238" y="115" on="1"/>
        <pt x="239" y="115" on="1"/>
        <pt x="256" y="233" on="1"/>
        <pt x="400" y="700" on="1"/>
        <pt x="440" y="700" on="1"/>
        <pt x="585" y="231" on="1"/>
        <pt x="602" y="115" on="1"/>
        <pt x="603" y="115" on="1"/>
        <pt x="621" y="233" on="1"/>
        <pt x="739" y="700" on="1"/>
        <pt x="820" y="700" on="1"/>
        <pt x="625" y="-11" on="1"/>
        <pt x="579" y="-11" on="1"/>
        <pt x="437" y="458" on="1"/>
        <pt x="419" y="564" on="1"/>
        <pt x="414" y="564" on="1"/>
        <pt x="396" y="457" on="1"/>
        <pt x="254" y="-11" on="1"/>
        <pt x="208" y="-11" on="1"/>
        <pt x="8" y="700" on="1"/>
        <pt x="96" y="700" on="1"/>
      </contour>
    </TTGlyph>
    <TTGlyph name="X" xMin="26" yMin="0" xMax="589" yMax="700">
      <contour>
        <pt x="259" y="356" on="1"/>
        <pt x="46" y="700" on="1"/>
        <pt x="146" y="700" on="1"/>
        <pt x="288" y="463" on="1"/>
        <pt x="313" y="406" on="1"/>
        <pt x="337" y="463" on="1"/>
        <pt x="487" y="700" on="1"/>
        <pt x="579" y="700" on="1"/>
        <pt x="359" y="363" on="1"/>
        <pt x="589" y="0" on="1"/>
        <pt x="492" y="0" on="1"/>
        <pt x="334" y="251" on="1"/>
        <pt x="307" y="311" on="1"/>
        <pt x="281" y="251" on="1"/>
        <pt x="119" y="0" on="1"/>
        <pt x="26" y="0" on="1"/>
      </contour>
    </TTGlyph>
    <TTGlyph name="Y" xMin="8" yMin="0" xMax="551" yMax="700">
      <contour>
        <pt x="239" y="278" on="1"/>
        <pt x="8" y="700" on="1"/>
        <pt x="105" y="700" on="1"/>
        <pt x="269" y="394" on="1"/>
        <pt x="286" y="333" on="1"/>
        <pt x="287" y="333" on="1"/>
        <pt x="305" y="396" on="1"/>
        <pt x="462" y="700" on="1"/>
        <pt x="551" y="700" on="1"/>
        <pt x="322" y="279" on="1"/>
        <pt x="322" y="0" on="1"/>
        <pt x="239" y="0" on="1"/>
      </contour>
    </TTGlyph>
    <TTGlyph name="Yacute" xMin="8" yMin="0" xMax="551" yMax="870">
      <component glyphName="Y" x="0" y="0" flags="0x204"/>
      <component glyphName="uniF6C9" x="177" y="0" flags="0x4"/>
    </TTGlyph>
    <TTGlyph name="Ydieresis" xMin="8" yMin="0" xMax="551" yMax="841">
      <component glyphName="Y" x="0" y="0" flags="0x204"/>
      <component glyphName="uniF6CB" x="73" y="0" flags="0x4"/>
    </TTGlyph>
    <TTGlyph name="Z" xMin="38" yMin="0" xMax="508" yMax="700">
      <contour>
        <pt x="38" y="75" on="1"/>
        <pt x="391" y="586" on="1"/>
        <pt x="433" y="626" on="1"/>
        <pt x="38" y="626" on="1"/>
        <pt x="38" y="700" on="1"/>
        <pt x="508" y="700" on="1"/>
        <pt x="508" y="625" on="1"/>
        <pt x="153" y="111" on="1"/>
        <pt x="111" y="74" on="1"/>
        <pt x="508" y="74" on="1"/>
        <pt x="508" y="0" on="1"/>
        <pt x="38" y="0" on="1"/>
      </contour>
    </TTGlyph>
    <TTGlyph name="Zacute" xMin="38" yMin="0" xMax="508" yMax="870">
      <component glyphName="Z" x="0" y="0" flags="0x204"/>
      <component glyphName="uniF6C9" x="151" y="0" flags="0x4"/>
    </TTGlyph>
    <TTGlyph name="Zcaron" xMin="38" yMin="0" xMax="508" yMax="870">
      <component glyphName="Z" x="0" y="0" flags="0x204"/>
      <component glyphName="uniF6CA" x="41" y="0" flags="0x4"/>
    </TTGlyph>
    <TTGlyph name="Zdotaccent" xMin="38" yMin="0" xMax="508" yMax="849">
      <component glyphName="Z" x="0" y="0" flags="0x204"/>
      <component glyphName="uniF40B" x="151" y="0" flags="0x4"/>
    </TTGlyph>
    <TTGlyph name="a" xMin="39" yMin="-8" xMax="430" yMax="508">
      <contour>
        <pt x="69" y="463" on="1"/>
        <pt x="107" y="486" on="0"/>
        <pt x="208" y="508" on="0"/>
        <pt x="263" y="508" on="1"/>
        <pt x="315" y="508" on="0"/>
        <pt x="378" y="480" on="0"/>
        <pt x="411" y="435" on="0"/>
        <pt x="422" y="381" on="0"/>
        <pt x="422" y="354" on="1"/>
        <pt x="422" y="294" on="0"/>
        <pt x="416" y="180" on="0"/>
        <pt x="416" y="129" on="1"/>
        <pt x="416" y="92" on="0"/>
        <pt x="422" y="26" on="0"/>
        <pt x="430" y="-2" on="1"/>
        <pt x="371" y="-2" on="1"/>
        <pt x="350" y="68" on="1"/>
        <pt x="345" y="68" on="1"/>
        <pt x="336" y="54" on="0"/>
        <pt x="309" y="27" on="0"/>
        <pt x="271" y="6" on="0"/>
        <pt x="221" y="-8" on="0"/>
        <pt x="189" y="-8" on="1"/>
        <pt x="157" y="-8" on="0"/>
        <pt x="102" y="12" on="0"/>
        <pt x="62" y="49" on="0"/>
        <pt x="39" y="101" on="0"/>
        <pt x="39" y="134" on="1"/>
        <pt x="39" y="178" on="0"/>
        <pt x="75" y="237" on="0"/>
        <pt x="140" y="272" on="0"/>
        <pt x="231" y="287" on="0"/>
        <pt x="286" y="287" on="1"/>
        <pt x="300" y="287" on="0"/>
        <pt x="327" y="287" on="0"/>
        <pt x="341" y="285" on="1"/>
        <pt x="344" y="315" on="0"/>
        <pt x="344" y="339" on="1"/>
        <pt x="344" y="394" on="0"/>
        <pt x="300" y="438" on="0"/>
        <pt x="242" y="438" on="1"/>
        <pt x="225" y="438" on="0"/>
        <pt x="186" y="433" on="0"/>
        <pt x="145" y="424" on="0"/>
        <pt x="108" y="411" on="0"/>
        <pt x="94" y="403" on="1"/>
      </contour>
      <contour>
        <pt x="211" y="62" on="1"/>
        <pt x="239" y="62" on="0"/>
        <pt x="283" y="77" on="0"/>
        <pt x="315" y="100" on="0"/>
        <pt x="336" y="128" on="0"/>
        <pt x="341" y="141" on="1"/>
        <pt x="341" y="224" on="1"/>
        <pt x="327" y="225" on="0"/>
        <pt x="298" y="226" on="0"/>
        <pt x="284" y="226" on="1"/>
        <pt x="253" y="226" on="0"/>
        <pt x="194" y="219" on="0"/>
        <pt x="149" y="200" on="0"/>
        <pt x="122" y="167" on="0"/>
        <pt x="122" y="142" on="1"/>
        <pt x="122" y="107" on="0"/>
        <pt x="172" y="62" on="0"/>
      </contour>
    </TTGlyph>
    <TTGlyph name="aacute" xMin="39" yMin="-8" xMax="430" yMax="720">
      <component glyphName="a" x="0" y="0" flags="0x204"/>
      <component glyphName="acute" x="119" y="0" flags="0x4"/>
    </TTGlyph>
    <TTGlyph name="abreve" xMin="39" yMin="-8" xMax="430" yMax="720">
      <component glyphName="a" x="0" y="0" flags="0x204"/>
      <component glyphName="breve" x="36" y="0" flags="0x4"/>
    </TTGlyph>
    <TTGlyph name="acircumflex" xMin="39" yMin="-8" xMax="430" yMax="732">
      <component glyphName="a" x="0" y="0" flags="0x204"/>
      <component glyphName="circumflex" x="56" y="0" flags="0x4"/>
    </TTGlyph>
    <TTGlyph name="acute" xMin="60" yMin="571" xMax="208" yMax="720">
      <contour>
        <pt x="119" y="720" on="1"/>
        <pt x="208" y="720" on="1"/>
        <pt x="208" y="699" on="1"/>
        <pt x="107" y="571" on="1"/>
        <pt x="60" y="571" on="1"/>
      </contour>
    </TTGlyph>
    <TTGlyph name="acutecomb" xMin="-290" yMin="571" xMax="-142" yMax="720">
      <component glyphName="acute" x="-350" y="0" flags="0x4"/>
    </TTGlyph>
    <TTGlyph name="adieresis" xMin="39" yMin="-8" xMax="430" yMax="704">
      <component glyphName="a" x="0" y="0" flags="0x204"/>
      <component glyphName="dieresis" x="45" y="0" flags="0x4"/>
    </TTGlyph>
    <TTGlyph name="ae" xMin="39" yMin="-12" xMax="747" yMax="512">
      <contour>
        <pt x="211" y="62" on="1"/>
        <pt x="239" y="62" on="0"/>
        <pt x="283" y="77" on="0"/>
        <pt x="315" y="100" on="0"/>
        <pt x="336" y="128" on="0"/>
        <pt x="341" y="141" on="1"/>
        <pt x="341" y="224" on="1"/>
        <pt x="327" y="225" on="0"/>
        <pt x="298" y="226" on="0"/>
        <pt x="284" y="226" on="1"/>
        <pt x="253" y="226" on="0"/>
        <pt x="194" y="219" on="0"/>
        <pt x="149" y="200" on="0"/>
        <pt x="122" y="167" on="0"/>
        <pt x="122" y="142" on="1"/>
        <pt x="122" y="107" on="0"/>
        <pt x="172" y="62" on="0"/>
      </contour>
      <contour>
        <pt x="367" y="84" on="1"/>
        <pt x="354" y="66" on="0"/>
        <pt x="320" y="33" on="0"/>
        <pt x="277" y="8" on="0"/>
        <pt x="222" y="-8" on="0"/>
        <pt x="189" y="-8" on="1"/>
        <pt x="157" y="-8" on="0"/>
        <pt x="102" y="12" on="0"/>
        <pt x="62" y="49" on="0"/>
        <pt x="39" y="101" on="0"/>
        <pt x="39" y="134" on="1"/>
        <pt x="39" y="178" on="0"/>
        <pt x="75" y="237" on="0"/>
        <pt x="140" y="272" on="0"/>
        <pt x="231" y="287" on="0"/>
        <pt x="286" y="287" on="1"/>
        <pt x="300" y="287" on="0"/>
        <pt x="327" y="287" on="0"/>
        <pt x="341" y="285" on="1"/>
        <pt x="342" y="300" on="0"/>
        <pt x="344" y="327" on="0"/>
        <pt x="344" y="339" on="1"/>
        <pt x="344" y="394" on="0"/>
        <pt x="300" y="439" on="0"/>
        <pt x="242" y="438" on="1"/>
        <pt x="225" y="438" on="0"/>
        <pt x="186" y="433" on="0"/>
        <pt x="145" y="424" on="0"/>
        <pt x="108" y="411" on="0"/>
        <pt x="94" y="403" on="1"/>
        <pt x="69" y="463" on="1"/>
        <pt x="107" y="486" on="0"/>
        <pt x="208" y="508" on="0"/>
        <pt x="263" y="508" on="1"/>
        <pt x="368" y="508" on="0"/>
        <pt x="399" y="443" on="1"/>
        <pt x="425" y="479" on="0"/>
        <pt x="513" y="512" on="0"/>
        <pt x="557" y="512" on="1"/>
        <pt x="591" y="512" on="0"/>
        <pt x="659" y="497" on="0"/>
        <pt x="713" y="454" on="0"/>
        <pt x="747" y="376" on="0"/>
        <pt x="747" y="313" on="1"/>
        <pt x="747" y="297" on="0"/>
        <pt x="744" y="262" on="0"/>
        <pt x="742" y="242" on="1"/>
        <pt x="419" y="242" on="1"/>
        <pt x="419" y="155" on="0"/>
        <pt x="492" y="58" on="0"/>
        <pt x="580" y="58" on="1"/>
        <pt x="615" y="58" on="0"/>
        <pt x="682" y="83" on="0"/>
        <pt x="700" y="98" on="1"/>
        <pt x="730" y="40" on="1"/>
        <pt x="700" y="16" on="0"/>
        <pt x="609" y="-12" on="0"/>
        <pt x="558" y="-12" on="1"/>
        <pt x="497" y="-12" on="0"/>
        <pt x="398" y="38" on="0"/>
        <pt x="374" y="84" on="1"/>
      </contour>
      <contour>
        <pt x="558" y="442" on="1"/>
        <pt x="499" y="442" on="0"/>
        <pt x="427" y="380" on="0"/>
        <pt x="421" y="305" on="1"/>
        <pt x="669" y="305" on="1"/>
        <pt x="669" y="317" on="1"/>
        <pt x="669" y="385" on="0"/>
        <pt x="608" y="442" on="0"/>
      </contour>
    </TTGlyph>
    <TTGlyph name="afii10017" xMin="8" yMin="0" xMax="577" yMax="711">
      <component glyphName="A" x="0" y="0" flags="0x204"/>
    </TTGlyph>
    <TTGlyph name="afii10018" xMin="85" yMin="-8" xMax="512" yMax="700">
      <contour>
        <pt x="85" y="700" on="1"/>
        <pt x="465" y="700" on="1"/>
        <pt x="465" y="626" on="1"/>
        <pt x="168" y="626" on="1"/>
        <pt x="168" y="416" on="1"/>
        <pt x="185" y="419" on="0"/>
        <pt x="235" y="425" on="0"/>
        <pt x="258" y="425" on="1"/>
        <pt x="309" y="425" on="0"/>
        <pt x="401" y="406" on="0"/>
        <pt x="471" y="360" on="0"/>
        <pt x="512" y="281" on="0"/>
        <pt x="512" y="221" on="1"/>
        <pt x="512" y="161" on="0"/>
        <pt x="470" y="74" on="0"/>
        <pt x="400" y="19" on="0"/>
        <pt x="307" y="-8" on="0"/>
        <pt x="256" y="-8" on="1"/>
        <pt x="239" y="-8" on="0"/>
        <pt x="196" y="-7" on="0"/>
        <pt x="149" y="-3" on="0"/>
        <pt x="104" y="2" on="0"/>
        <pt x="85" y="7" on="1"/>
      </contour>
      <contour>
        <pt x="266" y="64" on="1"/>
        <pt x="298" y="64" on="0"/>
        <pt x="356" y="82" on="0"/>
        <pt x="399" y="117" on="0"/>
        <pt x="424" y="171" on="0"/>
        <pt x="424" y="207" on="1"/>
        <pt x="424" y="253" on="0"/>
        <pt x="395" y="310" on="0"/>
        <pt x="347" y="342" on="0"/>
        <pt x="284" y="353" on="0"/>
        <pt x="250" y="353" on="1"/>
        <pt x="241" y="353" on="0"/>
        <pt x="217" y="351" on="0"/>
        <pt x="193" y="349" on="0"/>
        <pt x="173" y="346" on="0"/>
        <pt x="168" y="345" on="1"/>
        <pt x="168" y="70" on="1"/>
        <pt x="175" y="68" on="0"/>
        <pt x="198" y="66" on="0"/>
        <pt x="225" y="64" on="0"/>
        <pt x="253" y="64" on="0"/>
      </contour>
    </TTGlyph>
    <TTGlyph name="afii10019" xMin="85" yMin="-8" xMax="528" yMax="708">
      <component glyphName="B" x="0" y="0" flags="0x204"/>
    </TTGlyph>
    <TTGlyph name="afii10020" xMin="85" yMin="0" xMax="460" yMax="700">
      <contour>
        <pt x="460" y="626" on="1"/>
        <pt x="168" y="626" on="1"/>
        <pt x="168" y="0" on="1"/>
        <pt x="85" y="0" on="1"/>
        <pt x="85" y="700" on="1"/>
        <pt x="460" y="700" on="1"/>
      </contour>
    </TTGlyph>
    <TTGlyph name="afii10021" xMin="5" yMin="-129" xMax="641" yMax="700">
      <contour>
        <pt x="641" y="-129" on="1"/>
        <pt x="584" y="-129" on="1"/>
        <pt x="569" y="0" on="1"/>
        <pt x="78" y="0" on="1"/>
        <pt x="63" y="-129" on="1"/>
        <pt x="5" y="-129" on="1"/>
        <pt x="5" y="74" on="1"/>
        <pt x="76" y="74" on="1"/>
        <pt x="84" y="85" on="0"/>
        <pt x="117" y="166" on="0"/>
        <pt x="150" y="317" on="0"/>
        <pt x="176" y="544" on="0"/>
        <pt x="176" y="700" on="1"/>
        <pt x="550" y="700" on="1"/>
        <pt x="550" y="74" on="1"/>
        <pt x="641" y="74" on="1"/>
      </contour>
      <contour>
        <pt x="467" y="74" on="1"/>
        <pt x="467" y="626" on="1"/>
        <pt x="254" y="626" on="1"/>
        <pt x="251" y="516" on="0"/>
        <pt x="234" y="340" on="0"/>
        <pt x="210" y="205" on="0"/>
        <pt x="180" y="107" on="0"/>
        <pt x="164" y="74" on="1"/>
      </contour>
    </TTGlyph>
    <TTGlyph name="afii10022" xMin="85" yMin="0" xMax="471" yMax="700">
      <component glyphName="E" x="0" y="0" flags="0x204"/>
    </TTGlyph>
    <TTGlyph name="afii10023" xMin="85" yMin="0" xMax="471" yMax="841">
      <component glyphName="E" x="0" y="0" flags="0x204"/>
      <component glyphName="uniF6CB" x="60" y="0" flags="0x4"/>
    </TTGlyph>
    <TTGlyph name="afii10024" xMin="-1" yMin="0" xMax="807" yMax="700">
      <contour>
        <pt x="358" y="700" on="1"/>
        <pt x="438" y="700" on="1"/>
        <pt x="438" y="374" on="1"/>
        <pt x="481" y="388" on="1"/>
        <pt x="684" y="700" on="1"/>
        <pt x="776" y="700" on="1"/>
        <pt x="574" y="396" on="1"/>
        <pt x="534" y="364" on="1"/>
        <pt x="584" y="323" on="1"/>
        <pt x="807" y="0" on="1"/>
        <pt x="705" y="0" on="1"/>
        <pt x="484" y="324" on="1"/>
        <pt x="438" y="324" on="1"/>
        <pt x="438" y="0" on="1"/>
        <pt x="358" y="0" on="1"/>
        <pt x="358" y="336" on="1"/>
        <pt x="316" y="322" on="1"/>
        <pt x="95" y="0" on="1"/>
        <pt x="-1" y="0" on="1"/>
        <pt x="220" y="313" on="1"/>
        <pt x="268" y="351" on="1"/>
        <pt x="222" y="386" on="1"/>
        <pt x="13" y="700" on="1"/>
        <pt x="110" y="700" on="1"/>
        <pt x="313" y="386" on="1"/>
        <pt x="358" y="386" on="1"/>
      </contour>
    </TTGlyph>
    <TTGlyph name="afii10025" xMin="44" yMin="-12" xMax="485" yMax="712">
      <contour>
        <pt x="139" y="331" on="1"/>
        <pt x="139" y="401" on="1"/>
        <pt x="155" y="401" on="1"/>
        <pt x="164" y="401" on="0"/>
        <pt x="190" y="401" on="0"/>
        <pt x="217" y="403" on="0"/>
        <pt x="242" y="404" on="0"/>
        <pt x="250" y="406" on="1"/>
        <pt x="276" y="410" on="0"/>
        <pt x="322" y="429" on="0"/>
        <pt x="356" y="459" on="0"/>
        <pt x="376" y="499" on="0"/>
        <pt x="376" y="523" on="1"/>
        <pt x="376" y="556" on="0"/>
        <pt x="354" y="600" on="0"/>
        <pt x="315" y="627" on="0"/>
        <pt x="264" y="638" on="0"/>
        <pt x="235" y="638" on="1"/>
        <pt x="181" y="638" on="0"/>
        <pt x="105" y="623" on="0"/>
        <pt x="82" y="612" on="1"/>
        <pt x="60" y="678" on="1"/>
        <pt x="80" y="689" on="0"/>
        <pt x="184" y="712" on="0"/>
        <pt x="249" y="712" on="1"/>
        <pt x="289" y="712" on="0"/>
        <pt x="366" y="695" on="0"/>
        <pt x="427" y="656" on="0"/>
        <pt x="464" y="589" on="0"/>
        <pt x="464" y="540" on="1"/>
        <pt x="464" y="490" on="0"/>
        <pt x="398" y="399" on="0"/>
        <pt x="332" y="379" on="1"/>
        <pt x="332" y="375" on="1"/>
        <pt x="403" y="365" on="0"/>
        <pt x="485" y="279" on="0"/>
        <pt x="485" y="207" on="1"/>
        <pt x="485" y="150" on="0"/>
        <pt x="440" y="67" on="0"/>
        <pt x="367" y="13" on="0"/>
        <pt x="272" y="-12" on="0"/>
        <pt x="223" y="-12" on="1"/>
        <pt x="157" y="-12" on="0"/>
        <pt x="72" y="3" on="0"/>
        <pt x="44" y="14" on="1"/>
        <pt x="65" y="89" on="1"/>
        <pt x="88" y="78" on="0"/>
        <pt x="171" y="62" on="0"/>
        <pt x="230" y="62" on="1"/>
        <pt x="261" y="62" on="0"/>
        <pt x="321" y="79" on="0"/>
        <pt x="368" y="114" on="0"/>
        <pt x="397" y="166" on="0"/>
        <pt x="397" y="202" on="1"/>
        <pt x="397" y="265" on="0"/>
        <pt x="309" y="324" on="0"/>
        <pt x="238" y="329" on="1"/>
        <pt x="226" y="330" on="0"/>
        <pt x="205" y="331" on="0"/>
        <pt x="194" y="331" on="1"/>
      </contour>
    </TTGlyph>
    <TTGlyph name="afii10026" xMin="85" yMin="0" xMax="596" yMax="700">
      <contour>
        <pt x="513" y="474" on="1"/>
        <pt x="519" y="554" on="1"/>
        <pt x="515" y="554" on="1"/>
        <pt x="472" y="472" on="1"/>
        <pt x="134" y="0" on="1"/>
        <pt x="85" y="0" on="1"/>
        <pt x="85" y="700" on="1"/>
        <pt x="168" y="700" on="1"/>
        <pt x="168" y="220" on="1"/>
        <pt x="161" y="141" on="1"/>
        <pt x="165" y="141" on="1"/>
        <pt x="209" y="223" on="1"/>
        <pt x="547" y="700" on="1"/>
        <pt x="596" y="700" on="1"/>
        <pt x="596" y="0" on="1"/>
        <pt x="513" y="0" on="1"/>
      </contour>
    </TTGlyph>
    <TTGlyph name="afii10027" xMin="85" yMin="0" xMax="596" yMax="870">
      <component glyphName="afii10026" x="0" y="0" flags="0x204"/>
      <component glyphName="uniF6D1" x="119" y="0" flags="0x4"/>
    </TTGlyph>
    <TTGlyph name="afii10028" xMin="85" yMin="0" xMax="575" yMax="700">
      <component glyphName="K" x="0" y="0" flags="0x204"/>
    </TTGlyph>
    <TTGlyph name="afii10029" xMin="-2" yMin="-5" xMax="539" yMax="700">
      <contour>
        <pt x="456" y="626" on="1"/>
        <pt x="247" y="626" on="1"/>
        <pt x="237" y="426" on="0"/>
        <pt x="204" y="161" on="0"/>
        <pt x="171" y="87" on="1"/>
        <pt x="149" y="39" on="0"/>
        <pt x="89" y="-5" on="0"/>
        <pt x="54" y="-5" on="1"/>
        <pt x="36" y="-5" on="0"/>
        <pt x="10" y="0" on="0"/>
        <pt x="-2" y="5" on="1"/>
        <pt x="9" y="77" on="1"/>
        <pt x="19" y="74" on="0"/>
        <pt x="30" y="74" on="1"/>
        <pt x="47" y="74" on="0"/>
        <pt x="80" y="96" on="0"/>
        <pt x="96" y="126" on="1"/>
        <pt x="110" y="153" on="0"/>
        <pt x="135" y="243" on="0"/>
        <pt x="154" y="381" on="0"/>
        <pt x="166" y="572" on="0"/>
        <pt x="169" y="700" on="1"/>
        <pt x="539" y="700" on="1"/>
        <pt x="539" y="0" on="1"/>
        <pt x="456" y="0" on="1"/>
      </contour>
    </TTGlyph>
    <TTGlyph name="afii10030" xMin="85" yMin="0" xMax="706" yMax="700">
      <component glyphName="M" x="0" y="0" flags="0x204"/>
    </TTGlyph>
    <TTGlyph name="afii10031" xMin="85" yMin="0" xMax="587" yMax="700">
      <component glyphName="H" x="0" y="0" flags="0x204"/>
    </TTGlyph>
    <TTGlyph name="afii10032" xMin="56" yMin="-12" xMax="628" yMax="712">
      <component glyphName="O" x="0" y="0" flags="0x204"/>
    </TTGlyph>
    <TTGlyph name="afii10033" xMin="85" yMin="0" xMax="574" yMax="700">
      <contour>
        <pt x="491" y="626" on="1"/>
        <pt x="168" y="626" on="1"/>
        <pt x="168" y="0" on="1"/>
        <pt x="85" y="0" on="1"/>
        <pt x="85" y="700" on="1"/>
        <pt x="574" y="700" on="1"/>
        <pt x="574" y="0" on="1"/>
        <pt x="491" y="0" on="1"/>
      </contour>
    </TTGlyph>
    <TTGlyph name="afii10034" xMin="85" yMin="0" xMax="522" yMax="708">
      <component glyphName="P" x="0" y="0" flags="0x204"/>
    </TTGlyph>
    <TTGlyph name="afii10035" xMin="56" yMin="-12" xMax="533" yMax="712">
      <component glyphName="C" x="0" y="0" flags="0x204"/>
    </TTGlyph>
    <TTGlyph name="afii10036" xMin="18" yMin="0" xMax="537" yMax="700">
      <component glyphName="T" x="0" y="0" flags="0x204"/>
    </TTGlyph>
    <TTGlyph name="afii10037" xMin="7" yMin="-5" xMax="552" yMax="700">
      <contour>
        <pt x="282" y="331" on="1"/>
        <pt x="308" y="242" on="1"/>
        <pt x="313" y="242" on="1"/>
        <pt x="333" y="334" on="1"/>
        <pt x="467" y="700" on="1"/>
        <pt x="552" y="700" on="1"/>
        <pt x="375" y="245" on="1"/>
        <pt x="348" y="174" on="0"/>
        <pt x="307" y="79" on="0"/>
        <pt x="265" y="20" on="0"/>
        <pt x="217" y="-5" on="0"/>
        <pt x="182" y="-5" on="1"/>
        <pt x="149" y="-5" on="0"/>
        <pt x="110" y="6" on="0"/>
        <pt x="93" y="17" on="1"/>
        <pt x="118" y="86" on="1"/>
        <pt x="138" y="75" on="0"/>
        <pt x="172" y="69" on="0"/>
        <pt x="186" y="69" on="1"/>
        <pt x="214" y="69" on="0"/>
        <pt x="252" y="126" on="0"/>
        <pt x="266" y="182" on="1"/>
        <pt x="7" y="700" on="1"/>
        <pt x="103" y="700" on="1"/>
      </contour>
    </TTGlyph>
    <TTGlyph name="afii10038" xMin="41" yMin="-20" xMax="739" yMax="720">
      <contour>
        <pt x="349" y="78" on="1"/>
        <pt x="332" y="75" on="0"/>
        <pt x="287" y="73" on="0"/>
        <pt x="267" y="73" on="1"/>
        <pt x="220" y="73" on="0"/>
        <pt x="137" y="105" on="0"/>
        <pt x="76" y="173" on="0"/>
        <pt x="41" y="278" on="0"/>
        <pt x="41" y="350" on="1"/>
        <pt x="41" y="418" on="0"/>
        <pt x="76" y="525" on="0"/>
        <pt x="141" y="599" on="0"/>
        <pt x="231" y="638" on="0"/>
        <pt x="286" y="638" on="1"/>
        <pt x="299" y="638" on="0"/>
        <pt x="338" y="636" on="0"/>
        <pt x="349" y="634" on="1"/>
        <pt x="349" y="720" on="1"/>
        <pt x="431" y="720" on="1"/>
        <pt x="431" y="631" on="1"/>
        <pt x="449" y="636" on="0"/>
        <pt x="498" y="638" on="0"/>
        <pt x="514" y="638" on="1"/>
        <pt x="562" y="638" on="0"/>
        <pt x="644" y="603" on="0"/>
        <pt x="705" y="534" on="0"/>
        <pt x="739" y="429" on="0"/>
        <pt x="739" y="360" on="1"/>
        <pt x="739" y="289" on="0"/>
        <pt x="700" y="181" on="0"/>
        <pt x="634" y="109" on="0"/>
        <pt x="546" y="73" on="0"/>
        <pt x="496" y="73" on="1"/>
        <pt x="485" y="73" on="0"/>
        <pt x="442" y="76" on="0"/>
        <pt x="431" y="80" on="1"/>
        <pt x="431" y="-20" on="1"/>
        <pt x="349" y="-20" on="1"/>
      </contour>
      <contour>
        <pt x="502" y="568" on="1"/>
        <pt x="488" y="568" on="0"/>
        <pt x="444" y="566" on="0"/>
        <pt x="430" y="561" on="1"/>
        <pt x="430" y="146" on="1"/>
        <pt x="440" y="144" on="0"/>
        <pt x="473" y="143" on="0"/>
        <pt x="489" y="143" on="1"/>
        <pt x="523" y="143" on="0"/>
        <pt x="582" y="169" on="0"/>
        <pt x="627" y="223" on="0"/>
        <pt x="653" y="305" on="0"/>
        <pt x="653" y="360" on="1"/>
        <pt x="653" y="406" on="0"/>
        <pt x="632" y="483" on="0"/>
        <pt x="593" y="539" on="0"/>
        <pt x="537" y="568" on="0"/>
      </contour>
      <contour>
        <pt x="282" y="143" on="1"/>
        <pt x="287" y="143" on="0"/>
        <pt x="304" y="143" on="0"/>
        <pt x="324" y="144" on="0"/>
        <pt x="343" y="147" on="0"/>
        <pt x="350" y="149" on="1"/>
        <pt x="350" y="564" on="1"/>
        <pt x="338" y="566" on="0"/>
        <pt x="303" y="568" on="0"/>
        <pt x="289" y="568" on="1"/>
        <pt x="255" y="568" on="0"/>
        <pt x="196" y="541" on="0"/>
        <pt x="152" y="486" on="0"/>
        <pt x="127" y="404" on="0"/>
        <pt x="127" y="350" on="1"/>
        <pt x="127" y="302" on="0"/>
        <pt x="149" y="225" on="0"/>
        <pt x="190" y="171" on="0"/>
        <pt x="247" y="143" on="0"/>
      </contour>
    </TTGlyph>
    <TTGlyph name="afii10039" xMin="26" yMin="0" xMax="589" yMax="700">
      <component glyphName="X" x="0" y="0" flags="0x204"/>
    </TTGlyph>
    <TTGlyph name="afii10040" xMin="85" yMin="-129" xMax="659" yMax="700">
      <contour>
        <pt x="659" y="-129" on="1"/>
        <pt x="602" y="-129" on="1"/>
        <pt x="587" y="0" on="1"/>
        <pt x="85" y="0" on="1"/>
        <pt x="85" y="700" on="1"/>
        <pt x="168" y="700" on="1"/>
        <pt x="168" y="74" on="1"/>
        <pt x="483" y="74" on="1"/>
        <pt x="483" y="700" on="1"/>
        <pt x="566" y="700" on="1"/>
        <pt x="566" y="74" on="1"/>
        <pt x="659" y="74" on="1"/>
      </contour>
    </TTGlyph>
    <TTGlyph name="afii10041" xMin="75" yMin="0" xMax="520" yMax="700">
      <contour>
        <pt x="158" y="700" on="1"/>
        <pt x="158" y="468" on="1"/>
        <pt x="158" y="331" on="0"/>
        <pt x="282" y="331" on="1"/>
        <pt x="329" y="331" on="0"/>
        <pt x="411" y="356" on="0"/>
        <pt x="437" y="377" on="1"/>
        <pt x="437" y="700" on="1"/>
        <pt x="520" y="700" on="1"/>
        <pt x="520" y="0" on="1"/>
        <pt x="437" y="0" on="1"/>
        <pt x="437" y="302" on="1"/>
        <pt x="410" y="287" on="0"/>
        <pt x="322" y="257" on="0"/>
        <pt x="265" y="257" on="1"/>
        <pt x="223" y="257" on="0"/>
        <pt x="153" y="276" on="0"/>
        <pt x="103" y="321" on="0"/>
        <pt x="75" y="397" on="0"/>
        <pt x="75" y="453" on="1"/>
        <pt x="75" y="700" on="1"/>
      </contour>
    </TTGlyph>
    <TTGlyph name="afii10042" xMin="85" yMin="0" xMax="792" yMax="700">
      <contour>
        <pt x="85" y="0" on="1"/>
        <pt x="85" y="700" on="1"/>
        <pt x="168" y="700" on="1"/>
        <pt x="168" y="74" on="1"/>
        <pt x="397" y="74" on="1"/>
        <pt x="397" y="700" on="1"/>
        <pt x="480" y="700" on="1"/>
        <pt x="480" y="74" on="1"/>
        <pt x="709" y="74" on="1"/>
        <pt x="709" y="700" on="1"/>
        <pt x="792" y="700" on="1"/>
        <pt x="792" y="0" on="1"/>
      </contour>
    </TTGlyph>
    <TTGlyph name="afii10043" xMin="85" yMin="-129" xMax="885" yMax="700">
      <contour>
        <pt x="85" y="0" on="1"/>
        <pt x="85" y="700" on="1"/>
        <pt x="168" y="700" on="1"/>
        <pt x="168" y="74" on="1"/>
        <pt x="397" y="74" on="1"/>
        <pt x="397" y="700" on="1"/>
        <pt x="480" y="700" on="1"/>
        <pt x="480" y="74" on="1"/>
        <pt x="709" y="74" on="1"/>
        <pt x="709" y="700" on="1"/>
        <pt x="792" y="700" on="1"/>
        <pt x="792" y="74" on="1"/>
        <pt x="885" y="74" on="1"/>
        <pt x="885" y="-129" on="1"/>
        <pt x="827" y="-129" on="1"/>
        <pt x="812" y="0" on="1"/>
      </contour>
    </TTGlyph>
    <TTGlyph name="afii10044" xMin="-1" yMin="-8" xMax="596" yMax="700">
      <contour>
        <pt x="159" y="626" on="1"/>
        <pt x="-1" y="626" on="1"/>
        <pt x="-1" y="700" on="1"/>
        <pt x="242" y="700" on="1"/>
        <pt x="242" y="428" on="1"/>
        <pt x="247" y="429" on="0"/>
        <pt x="271" y="432" on="0"/>
        <pt x="300" y="434" on="0"/>
        <pt x="330" y="436" on="0"/>
        <pt x="342" y="436" on="1"/>
        <pt x="389" y="436" on="0"/>
        <pt x="480" y="417" on="0"/>
        <pt x="552" y="369" on="0"/>
        <pt x="596" y="288" on="0"/>
        <pt x="596" y="226" on="1"/>
        <pt x="596" y="166" on="0"/>
        <pt x="554" y="78" on="0"/>
        <pt x="480" y="20" on="0"/>
        <pt x="381" y="-8" on="0"/>
        <pt x="323" y="-8" on="1"/>
        <pt x="309" y="-8" on="0"/>
        <pt x="269" y="-7" on="0"/>
        <pt x="224" y="-4" on="0"/>
        <pt x="178" y="2" on="0"/>
        <pt x="159" y="7" on="1"/>
      </contour>
      <contour>
        <pt x="334" y="64" on="1"/>
        <pt x="370" y="64" on="0"/>
        <pt x="433" y="83" on="0"/>
        <pt x="480" y="122" on="0"/>
        <pt x="508" y="181" on="0"/>
        <pt x="508" y="220" on="1"/>
        <pt x="508" y="262" on="0"/>
        <pt x="478" y="318" on="0"/>
        <pt x="428" y="351" on="0"/>
        <pt x="364" y="364" on="0"/>
        <pt x="330" y="364" on="1"/>
        <pt x="321" y="364" on="0"/>
        <pt x="295" y="362" on="0"/>
        <pt x="269" y="360" on="0"/>
        <pt x="247" y="356" on="0"/>
        <pt x="242" y="355" on="1"/>
        <pt x="242" y="70" on="1"/>
        <pt x="256" y="67" on="0"/>
        <pt x="308" y="64" on="0"/>
      </contour>
    </TTGlyph>
    <TTGlyph name="afii10045" xMin="85" yMin="-8" xMax="684" yMax="700">
      <contour>
        <pt x="601" y="700" on="1"/>
        <pt x="684" y="700" on="1"/>
        <pt x="684" y="0" on="1"/>
        <pt x="601" y="0" on="1"/>
      </contour>
      <contour>
        <pt x="85" y="700" on="1"/>
        <pt x="168" y="700" on="1"/>
        <pt x="168" y="428" on="1"/>
        <pt x="173" y="429" on="0"/>
        <pt x="193" y="432" on="0"/>
        <pt x="217" y="434" on="0"/>
        <pt x="242" y="436" on="0"/>
        <pt x="254" y="436" on="1"/>
        <pt x="301" y="436" on="0"/>
        <pt x="390" y="417" on="0"/>
        <pt x="458" y="369" on="0"/>
        <pt x="499" y="288" on="0"/>
        <pt x="499" y="226" on="1"/>
        <pt x="499" y="166" on="0"/>
        <pt x="461" y="77" on="0"/>
        <pt x="392" y="20" on="0"/>
        <pt x="296" y="-8" on="0"/>
        <pt x="238" y="-8" on="1"/>
        <pt x="224" y="-8" on="0"/>
        <pt x="187" y="-7" on="0"/>
        <pt x="146" y="-4" on="0"/>
        <pt x="104" y="2" on="0"/>
        <pt x="85" y="7" on="1"/>
      </contour>
      <contour>
        <pt x="245" y="64" on="1"/>
        <pt x="317" y="64" on="0"/>
        <pt x="411" y="142" on="0"/>
        <pt x="411" y="220" on="1"/>
        <pt x="411" y="262" on="0"/>
        <pt x="383" y="318" on="0"/>
        <pt x="336" y="351" on="0"/>
        <pt x="275" y="364" on="0"/>
        <pt x="241" y="364" on="1"/>
        <pt x="223" y="364" on="0"/>
        <pt x="179" y="358" on="0"/>
        <pt x="168" y="355" on="1"/>
        <pt x="168" y="70" on="1"/>
        <pt x="195" y="64" on="0"/>
      </contour>
    </TTGlyph>
    <TTGlyph name="afii10046" xMin="85" yMin="-8" xMax="521" yMax="700">
      <contour>
        <pt x="85" y="700" on="1"/>
        <pt x="168" y="700" on="1"/>
        <pt x="168" y="428" on="1"/>
        <pt x="173" y="429" on="0"/>
        <pt x="197" y="432" on="0"/>
        <pt x="225" y="434" on="0"/>
        <pt x="255" y="436" on="0"/>
        <pt x="267" y="436" on="1"/>
        <pt x="315" y="436" on="0"/>
        <pt x="406" y="417" on="0"/>
        <pt x="477" y="369" on="0"/>
        <pt x="521" y="288" on="0"/>
        <pt x="521" y="226" on="1"/>
        <pt x="521" y="166" on="0"/>
        <pt x="479" y="78" on="0"/>
        <pt x="405" y="20" on="0"/>
        <pt x="306" y="-8" on="0"/>
        <pt x="248" y="-8" on="1"/>
        <pt x="234" y="-8" on="0"/>
        <pt x="194" y="-7" on="0"/>
        <pt x="149" y="-4" on="0"/>
        <pt x="104" y="2" on="0"/>
        <pt x="85" y="7" on="1"/>
      </contour>
      <contour>
        <pt x="259" y="64" on="1"/>
        <pt x="295" y="64" on="0"/>
        <pt x="358" y="83" on="0"/>
        <pt x="406" y="122" on="0"/>
        <pt x="433" y="181" on="0"/>
        <pt x="433" y="220" on="1"/>
        <pt x="433" y="262" on="0"/>
        <pt x="403" y="318" on="0"/>
        <pt x="354" y="351" on="0"/>
        <pt x="290" y="364" on="0"/>
        <pt x="256" y="364" on="1"/>
        <pt x="247" y="364" on="0"/>
        <pt x="221" y="362" on="0"/>
        <pt x="195" y="360" on="0"/>
        <pt x="173" y="356" on="0"/>
        <pt x="168" y="355" on="1"/>
        <pt x="168" y="70" on="1"/>
        <pt x="182" y="67" on="0"/>
        <pt x="234" y="64" on="0"/>
      </contour>
    </TTGlyph>
    <TTGlyph name="afii10047" xMin="45" yMin="-12" xMax="521" yMax="712">
      <contour>
        <pt x="150" y="395" on="1"/>
        <pt x="438" y="395" on="1"/>
        <pt x="433" y="456" on="0"/>
        <pt x="395" y="549" on="0"/>
        <pt x="335" y="610" on="0"/>
        <pt x="256" y="638" on="0"/>
        <pt x="210" y="638" on="1"/>
        <pt x="163" y="638" on="0"/>
        <pt x="90" y="622" on="0"/>
        <pt x="67" y="608" on="1"/>
        <pt x="45" y="673" on="1"/>
        <pt x="76" y="691" on="0"/>
        <pt x="168" y="712" on="0"/>
        <pt x="220" y="712" on="1"/>
        <pt x="284" y="712" on="0"/>
        <pt x="394" y="672" on="0"/>
        <pt x="475" y="585" on="0"/>
        <pt x="521" y="447" on="0"/>
        <pt x="521" y="350" on="1"/>
        <pt x="521" y="252" on="0"/>
        <pt x="469" y="114" on="0"/>
        <pt x="380" y="27" on="0"/>
        <pt x="263" y="-12" on="0"/>
        <pt x="199" y="-12" on="1"/>
        <pt x="149" y="-12" on="0"/>
        <pt x="72" y="2" on="0"/>
        <pt x="45" y="13" on="1"/>
        <pt x="67" y="86" on="1"/>
        <pt x="90" y="75" on="0"/>
        <pt x="164" y="62" on="0"/>
        <pt x="204" y="62" on="1"/>
        <pt x="244" y="62" on="0"/>
        <pt x="325" y="87" on="0"/>
        <pt x="391" y="149" on="0"/>
        <pt x="435" y="249" on="0"/>
        <pt x="439" y="321" on="1"/>
        <pt x="150" y="321" on="1"/>
      </contour>
    </TTGlyph>
    <TTGlyph name="afii10048" xMin="85" yMin="-12" xMax="837" yMax="712">
      <contour>
        <pt x="168" y="395" on="1"/>
        <pt x="292" y="395" on="1"/>
        <pt x="300" y="548" on="0"/>
        <pt x="438" y="712" on="0"/>
        <pt x="566" y="712" on="1"/>
        <pt x="639" y="712" on="0"/>
        <pt x="743" y="660" on="0"/>
        <pt x="807" y="565" on="0"/>
        <pt x="837" y="432" on="0"/>
        <pt x="837" y="350" on="1"/>
        <pt x="837" y="175" on="0"/>
        <pt x="703" y="-12" on="0"/>
        <pt x="566" y="-12" on="1"/>
        <pt x="497" y="-12" on="0"/>
        <pt x="395" y="35" on="0"/>
        <pt x="328" y="122" on="0"/>
        <pt x="294" y="245" on="0"/>
        <pt x="291" y="321" on="1"/>
        <pt x="168" y="321" on="1"/>
        <pt x="168" y="0" on="1"/>
        <pt x="85" y="0" on="1"/>
        <pt x="85" y="700" on="1"/>
        <pt x="168" y="700" on="1"/>
      </contour>
      <contour>
        <pt x="379" y="350" on="1"/>
        <pt x="379" y="292" on="0"/>
        <pt x="399" y="188" on="0"/>
        <pt x="443" y="109" on="0"/>
        <pt x="514" y="62" on="0"/>
        <pt x="566" y="62" on="1"/>
        <pt x="659" y="62" on="0"/>
        <pt x="749" y="202" on="0"/>
        <pt x="749" y="350" on="1"/>
        <pt x="749" y="407" on="0"/>
        <pt x="731" y="512" on="0"/>
        <pt x="688" y="591" on="0"/>
        <pt x="618" y="638" on="0"/>
        <pt x="566" y="638" on="1"/>
        <pt x="473" y="638" on="0"/>
        <pt x="379" y="497" on="0"/>
      </contour>
    </TTGlyph>
    <TTGlyph name="afii10049" xMin="26" yMin="0" xMax="484" yMax="708">
      <contour>
        <pt x="484" y="0" on="1"/>
        <pt x="401" y="0" on="1"/>
        <pt x="401" y="305" on="1"/>
        <pt x="298" y="283" on="1"/>
        <pt x="124" y="0" on="1"/>
        <pt x="26" y="0" on="1"/>
        <pt x="182" y="249" on="1"/>
        <pt x="243" y="292" on="1"/>
        <pt x="207" y="300" on="0"/>
        <pt x="146" y="333" on="0"/>
        <pt x="101" y="384" on="0"/>
        <pt x="76" y="452" on="0"/>
        <pt x="76" y="496" on="1"/>
        <pt x="76" y="557" on="0"/>
        <pt x="117" y="638" on="0"/>
        <pt x="188" y="687" on="0"/>
        <pt x="283" y="708" on="0"/>
        <pt x="336" y="708" on="1"/>
        <pt x="370" y="708" on="0"/>
        <pt x="447" y="702" on="0"/>
        <pt x="484" y="693" on="1"/>
      </contour>
      <contour>
        <pt x="332" y="636" on="1"/>
        <pt x="299" y="636" on="0"/>
        <pt x="239" y="623" on="0"/>
        <pt x="192" y="591" on="0"/>
        <pt x="164" y="537" on="0"/>
        <pt x="164" y="496" on="1"/>
        <pt x="164" y="458" on="0"/>
        <pt x="191" y="404" on="0"/>
        <pt x="237" y="369" on="0"/>
        <pt x="298" y="353" on="0"/>
        <pt x="333" y="353" on="1"/>
        <pt x="401" y="353" on="1"/>
        <pt x="401" y="630" on="1"/>
        <pt x="387" y="633" on="0"/>
        <pt x="357" y="636" on="0"/>
      </contour>
    </TTGlyph>
    <TTGlyph name="afii10050" xMin="85" yMin="0" xMax="460" yMax="834">
      <contour>
        <pt x="460" y="626" on="1"/>
        <pt x="168" y="626" on="1"/>
        <pt x="168" y="0" on="1"/>
        <pt x="85" y="0" on="1"/>
        <pt x="85" y="700" on="1"/>
        <pt x="388" y="700" on="1"/>
        <pt x="404" y="834" on="1"/>
        <pt x="460" y="834" on="1"/>
      </contour>
    </TTGlyph>
    <TTGlyph name="afii10051" xMin="18" yMin="-8" xMax="672" yMax="700">
      <contour>
        <pt x="319" y="0" on="1"/>
        <pt x="236" y="0" on="1"/>
        <pt x="236" y="626" on="1"/>
        <pt x="18" y="626" on="1"/>
        <pt x="18" y="700" on="1"/>
        <pt x="537" y="700" on="1"/>
        <pt x="537" y="626" on="1"/>
        <pt x="319" y="626" on="1"/>
        <pt x="319" y="415" on="1"/>
        <pt x="331" y="419" on="0"/>
        <pt x="402" y="436" on="0"/>
        <pt x="458" y="436" on="1"/>
        <pt x="498" y="436" on="0"/>
        <pt x="575" y="417" on="0"/>
        <pt x="635" y="369" on="0"/>
        <pt x="672" y="288" on="0"/>
        <pt x="672" y="226" on="1"/>
        <pt x="672" y="106" on="0"/>
        <pt x="550" y="-8" on="0"/>
        <pt x="439" y="-8" on="1"/>
        <pt x="406" y="-8" on="0"/>
        <pt x="377" y="-7" on="0"/>
        <pt x="369" y="-5" on="1"/>
        <pt x="369" y="67" on="1"/>
        <pt x="382" y="65" on="0"/>
        <pt x="413" y="64" on="0"/>
        <pt x="442" y="64" on="1"/>
        <pt x="584" y="64" on="0"/>
        <pt x="584" y="220" on="1"/>
        <pt x="584" y="262" on="0"/>
        <pt x="560" y="318" on="0"/>
        <pt x="519" y="351" on="0"/>
        <pt x="464" y="364" on="0"/>
        <pt x="432" y="364" on="1"/>
        <pt x="414" y="364" on="0"/>
        <pt x="379" y="359" on="0"/>
        <pt x="348" y="352" on="0"/>
        <pt x="325" y="344" on="0"/>
        <pt x="319" y="342" on="1"/>
      </contour>
    </TTGlyph>
    <TTGlyph name="afii10052" xMin="85" yMin="0" xMax="460" yMax="870">
      <component glyphName="afii10020" x="0" y="0" flags="0x204"/>
      <component glyphName="uniF6C9" x="137" y="0" flags="0x4"/>
    </TTGlyph>
    <TTGlyph name="afii10053" xMin="56" yMin="-12" xMax="544" yMax="712">
      <contour>
        <pt x="544" y="29" on="1"/>
        <pt x="514" y="6" on="0"/>
        <pt x="417" y="-12" on="0"/>
        <pt x="365" y="-12" on="1"/>
        <pt x="302" y="-12" on="0"/>
        <pt x="190" y="31" on="0"/>
        <pt x="105" y="119" on="0"/>
        <pt x="56" y="256" on="0"/>
        <pt x="56" y="350" on="1"/>
        <pt x="56" y="448" on="0"/>
        <pt x="111" y="585" on="0"/>
        <pt x="199" y="672" on="0"/>
        <pt x="309" y="712" on="0"/>
        <pt x="365" y="712" on="1"/>
        <pt x="425" y="712" on="0"/>
        <pt x="507" y="699" on="0"/>
        <pt x="534" y="688" on="1"/>
        <pt x="514" y="614" on="1"/>
        <pt x="491" y="625" on="0"/>
        <pt x="417" y="638" on="0"/>
        <pt x="372" y="638" on="1"/>
        <pt x="333" y="638" on="0"/>
        <pt x="258" y="613" on="0"/>
        <pt x="195" y="556" on="0"/>
        <pt x="152" y="464" on="0"/>
        <pt x="145" y="398" on="1"/>
        <pt x="451" y="398" on="1"/>
        <pt x="451" y="324" on="1"/>
        <pt x="144" y="324" on="1"/>
        <pt x="147" y="258" on="0"/>
        <pt x="188" y="160" on="0"/>
        <pt x="253" y="95" on="0"/>
        <pt x="337" y="62" on="0"/>
        <pt x="384" y="62" on="1"/>
        <pt x="429" y="62" on="0"/>
        <pt x="501" y="80" on="0"/>
        <pt x="523" y="94" on="1"/>
      </contour>
    </TTGlyph>
    <TTGlyph name="afii10054" xMin="46" yMin="-12" xMax="484" yMax="712">
      <component glyphName="S" x="0" y="0" flags="0x204"/>
    </TTGlyph>
    <TTGlyph name="afii10055" xMin="104" yMin="0" xMax="187" yMax="700">
      <component glyphName="I" x="0" y="0" flags="0x204"/>
    </TTGlyph>
    <TTGlyph name="afii10055.alt" xMin="84" yMin="0" xMax="210" yMax="849">
      <component glyphName="I" x="0" y="0" flags="0x204"/>
      <component glyphName="uniF40B" x="24" y="0" flags="0x4"/>
    </TTGlyph>
    <TTGlyph name="afii10056" xMin="32" yMin="0" xMax="262" yMax="841">
      <contour>
        <pt x="32" y="793" on="1"/>
        <pt x="32" y="815" on="0"/>
        <pt x="61" y="841" on="0"/>
        <pt x="83" y="841" on="1"/>
        <pt x="104" y="841" on="0"/>
        <pt x="133" y="815" on="0"/>
        <pt x="133" y="793" on="1"/>
        <pt x="133" y="771" on="0"/>
        <pt x="104" y="746" on="0"/>
        <pt x="83" y="746" on="1"/>
        <pt x="61" y="746" on="0"/>
        <pt x="32" y="771" on="0"/>
      </contour>
      <contour>
        <pt x="161" y="793" on="1"/>
        <pt x="161" y="815" on="0"/>
        <pt x="190" y="841" on="0"/>
        <pt x="211" y="841" on="1"/>
        <pt x="233" y="841" on="0"/>
        <pt x="262" y="815" on="0"/>
        <pt x="262" y="793" on="1"/>
        <pt x="262" y="771" on="0"/>
        <pt x="233" y="746" on="0"/>
        <pt x="211" y="746" on="1"/>
        <pt x="190" y="746" on="0"/>
        <pt x="161" y="771" on="0"/>
      </contour>
      <contour>
        <pt x="105" y="700" on="1"/>
        <pt x="188" y="700" on="1"/>
        <pt x="188" y="0" on="1"/>
        <pt x="105" y="0" on="1"/>
      </contour>
    </TTGlyph>
    <TTGlyph name="afii10057" xMin="-34" yMin="-10" xMax="195" yMax="700">
      <component glyphName="J" x="0" y="0" flags="0x204"/>
    </TTGlyph>
    <TTGlyph name="afii10058" xMin="-2" yMin="-8" xMax="892" yMax="700">
      <contour>
        <pt x="456" y="626" on="1"/>
        <pt x="247" y="626" on="1"/>
        <pt x="237" y="426" on="0"/>
        <pt x="204" y="161" on="0"/>
        <pt x="171" y="87" on="1"/>
        <pt x="149" y="39" on="0"/>
        <pt x="89" y="-5" on="0"/>
        <pt x="54" y="-5" on="1"/>
        <pt x="36" y="-5" on="0"/>
        <pt x="10" y="0" on="0"/>
        <pt x="-2" y="5" on="1"/>
        <pt x="9" y="77" on="1"/>
        <pt x="19" y="74" on="0"/>
        <pt x="30" y="74" on="1"/>
        <pt x="47" y="74" on="0"/>
        <pt x="80" y="96" on="0"/>
        <pt x="96" y="126" on="1"/>
        <pt x="110" y="153" on="0"/>
        <pt x="135" y="243" on="0"/>
        <pt x="154" y="381" on="0"/>
        <pt x="166" y="572" on="0"/>
        <pt x="169" y="700" on="1"/>
        <pt x="539" y="700" on="1"/>
        <pt x="539" y="428" on="1"/>
        <pt x="544" y="429" on="0"/>
        <pt x="568" y="432" on="0"/>
        <pt x="596" y="434" on="0"/>
        <pt x="626" y="436" on="0"/>
        <pt x="638" y="436" on="1"/>
        <pt x="686" y="436" on="0"/>
        <pt x="777" y="417" on="0"/>
        <pt x="848" y="369" on="0"/>
        <pt x="892" y="288" on="0"/>
        <pt x="892" y="226" on="1"/>
        <pt x="892" y="166" on="0"/>
        <pt x="850" y="78" on="0"/>
        <pt x="776" y="20" on="0"/>
        <pt x="677" y="-8" on="0"/>
        <pt x="619" y="-8" on="1"/>
        <pt x="605" y="-8" on="0"/>
        <pt x="565" y="-7" on="0"/>
        <pt x="520" y="-4" on="0"/>
        <pt x="475" y="2" on="0"/>
        <pt x="456" y="7" on="1"/>
      </contour>
      <contour>
        <pt x="630" y="64" on="1"/>
        <pt x="666" y="64" on="0"/>
        <pt x="729" y="83" on="0"/>
        <pt x="777" y="122" on="0"/>
        <pt x="804" y="181" on="0"/>
        <pt x="804" y="220" on="1"/>
        <pt x="804" y="262" on="0"/>
        <pt x="774" y="318" on="0"/>
        <pt x="725" y="351" on="0"/>
        <pt x="661" y="364" on="0"/>
        <pt x="627" y="364" on="1"/>
        <pt x="618" y="364" on="0"/>
        <pt x="592" y="362" on="0"/>
        <pt x="566" y="360" on="0"/>
        <pt x="544" y="356" on="0"/>
        <pt x="539" y="355" on="1"/>
        <pt x="539" y="70" on="1"/>
        <pt x="553" y="67" on="0"/>
        <pt x="605" y="64" on="0"/>
      </contour>
    </TTGlyph>
    <TTGlyph name="afii10059" xMin="85" yMin="-8" xMax="940" yMax="700">
      <contour>
        <pt x="504" y="336" on="1"/>
        <pt x="168" y="336" on="1"/>
        <pt x="168" y="0" on="1"/>
        <pt x="85" y="0" on="1"/>
        <pt x="85" y="700" on="1"/>
        <pt x="168" y="700" on="1"/>
        <pt x="168" y="410" on="1"/>
        <pt x="504" y="410" on="1"/>
        <pt x="504" y="700" on="1"/>
        <pt x="587" y="700" on="1"/>
        <pt x="587" y="409" on="1"/>
        <pt x="592" y="410" on="0"/>
        <pt x="616" y="413" on="0"/>
        <pt x="645" y="415" on="0"/>
        <pt x="675" y="417" on="0"/>
        <pt x="687" y="417" on="1"/>
        <pt x="734" y="417" on="0"/>
        <pt x="825" y="401" on="0"/>
        <pt x="896" y="357" on="0"/>
        <pt x="940" y="279" on="0"/>
        <pt x="940" y="217" on="1"/>
        <pt x="940" y="157" on="0"/>
        <pt x="898" y="71" on="0"/>
        <pt x="824" y="17" on="0"/>
        <pt x="725" y="-8" on="0"/>
        <pt x="667" y="-8" on="1"/>
        <pt x="653" y="-8" on="0"/>
        <pt x="613" y="-7" on="0"/>
        <pt x="568" y="-4" on="0"/>
        <pt x="523" y="2" on="0"/>
        <pt x="504" y="6" on="1"/>
      </contour>
      <contour>
        <pt x="678" y="64" on="1"/>
        <pt x="714" y="64" on="0"/>
        <pt x="778" y="80" on="0"/>
        <pt x="825" y="116" on="0"/>
        <pt x="852" y="171" on="0"/>
        <pt x="852" y="210" on="1"/>
        <pt x="852" y="252" on="0"/>
        <pt x="823" y="305" on="0"/>
        <pt x="774" y="335" on="0"/>
        <pt x="710" y="345" on="0"/>
        <pt x="675" y="345" on="1"/>
        <pt x="666" y="345" on="0"/>
        <pt x="640" y="343" on="0"/>
        <pt x="614" y="341" on="0"/>
        <pt x="592" y="337" on="0"/>
        <pt x="587" y="336" on="1"/>
        <pt x="587" y="70" on="1"/>
        <pt x="601" y="67" on="0"/>
        <pt x="653" y="64" on="0"/>
      </contour>
    </TTGlyph>
    <TTGlyph name="afii10060" xMin="18" yMin="0" xMax="682" yMax="700">
      <contour>
        <pt x="319" y="0" on="1"/>
        <pt x="236" y="0" on="1"/>
        <pt x="236" y="626" on="1"/>
        <pt x="18" y="626" on="1"/>
        <pt x="18" y="700" on="1"/>
        <pt x="537" y="700" on="1"/>
        <pt x="537" y="626" on="1"/>
        <pt x="319" y="626" on="1"/>
        <pt x="319" y="395" on="1"/>
        <pt x="346" y="410" on="0"/>
        <pt x="435" y="440" on="0"/>
        <pt x="491" y="440" on="1"/>
        <pt x="533" y="440" on="0"/>
        <pt x="604" y="421" on="0"/>
        <pt x="654" y="376" on="0"/>
        <pt x="682" y="300" on="0"/>
        <pt x="682" y="244" on="1"/>
        <pt x="682" y="0" on="1"/>
        <pt x="599" y="0" on="1"/>
        <pt x="599" y="229" on="1"/>
        <pt x="599" y="366" on="0"/>
        <pt x="475" y="366" on="1"/>
        <pt x="427" y="366" on="0"/>
        <pt x="345" y="341" on="0"/>
        <pt x="319" y="320" on="1"/>
      </contour>
    </TTGlyph>
    <TTGlyph name="afii10061" xMin="85" yMin="0" xMax="575" yMax="870">
      <component glyphName="K" x="0" y="0" flags="0x204"/>
      <component glyphName="uniF6C9" x="163" y="0" flags="0x4"/>
    </TTGlyph>
    <TTGlyph name="afii10062" xMin="7" yMin="-5" xMax="552" yMax="870">
      <component glyphName="afii10037" x="0" y="0" flags="0x204"/>
      <component glyphName="uniF6D1" x="62" y="0" flags="0x4"/>
    </TTGlyph>
    <TTGlyph name="afii10065" xMin="39" yMin="-8" xMax="430" yMax="508">
      <component glyphName="a" x="0" y="0" flags="0x204"/>
    </TTGlyph>
    <TTGlyph name="afii10066" xMin="49" yMin="-12" xMax="487" yMax="725">
      <contour>
        <pt x="123" y="411" on="1"/>
        <pt x="156" y="459" on="0"/>
        <pt x="236" y="498" on="0"/>
        <pt x="296" y="498" on="1"/>
        <pt x="388" y="498" on="0"/>
        <pt x="487" y="378" on="0"/>
        <pt x="487" y="261" on="1"/>
        <pt x="487" y="126" on="0"/>
        <pt x="372" y="-12" on="0"/>
        <pt x="269" y="-12" on="1"/>
        <pt x="159" y="-12" on="0"/>
        <pt x="49" y="140" on="0"/>
        <pt x="49" y="303" on="1"/>
        <pt x="49" y="389" on="0"/>
        <pt x="66" y="511" on="0"/>
        <pt x="99" y="595" on="0"/>
        <pt x="146" y="645" on="0"/>
        <pt x="205" y="674" on="0"/>
        <pt x="275" y="686" on="0"/>
        <pt x="315" y="690" on="1"/>
        <pt x="367" y="695" on="0"/>
        <pt x="426" y="708" on="0"/>
        <pt x="444" y="725" on="1"/>
        <pt x="453" y="653" on="1"/>
        <pt x="443" y="644" on="0"/>
        <pt x="419" y="632" on="0"/>
        <pt x="385" y="624" on="0"/>
        <pt x="338" y="618" on="0"/>
        <pt x="307" y="616" on="1"/>
        <pt x="264" y="613" on="0"/>
        <pt x="199" y="598" on="0"/>
        <pt x="152" y="555" on="0"/>
        <pt x="125" y="476" on="0"/>
        <pt x="120" y="411" on="1"/>
      </contour>
      <contour>
        <pt x="132" y="249" on="1"/>
        <pt x="132" y="211" on="0"/>
        <pt x="148" y="141" on="0"/>
        <pt x="181" y="88" on="0"/>
        <pt x="233" y="58" on="0"/>
        <pt x="268" y="58" on="1"/>
        <pt x="337" y="58" on="0"/>
        <pt x="404" y="157" on="0"/>
        <pt x="404" y="254" on="1"/>
        <pt x="404" y="292" on="0"/>
        <pt x="390" y="356" on="0"/>
        <pt x="360" y="403" on="0"/>
        <pt x="314" y="428" on="0"/>
        <pt x="282" y="428" on="1"/>
        <pt x="204" y="429" on="0"/>
        <pt x="132" y="336" on="0"/>
      </contour>
    </TTGlyph>
    <TTGlyph name="afii10067" xMin="77" yMin="-7" xMax="450" yMax="507">
      <contour>
        <pt x="77" y="499" on="1"/>
        <pt x="112" y="501" on="0"/>
        <pt x="189" y="507" on="0"/>
        <pt x="246" y="507" on="1"/>
        <pt x="345" y="507" on="0"/>
        <pt x="431" y="446" on="0"/>
        <pt x="431" y="384" on="1"/>
        <pt x="431" y="349" on="0"/>
        <pt x="390" y="282" on="0"/>
        <pt x="343" y="266" on="1"/>
        <pt x="343" y="262" on="1"/>
        <pt x="402" y="251" on="0"/>
        <pt x="450" y="191" on="0"/>
        <pt x="450" y="141" on="1"/>
        <pt x="450" y="63" on="0"/>
        <pt x="338" y="-7" on="0"/>
        <pt x="226" y="-7" on="1"/>
        <pt x="184" y="-7" on="0"/>
        <pt x="112" y="-2" on="0"/>
        <pt x="77" y="1" on="1"/>
      </contour>
      <contour>
        <pt x="157" y="67" on="1"/>
        <pt x="176" y="65" on="0"/>
        <pt x="213" y="63" on="0"/>
        <pt x="238" y="63" on="1"/>
        <pt x="305" y="63" on="0"/>
        <pt x="370" y="101" on="0"/>
        <pt x="370" y="147" on="1"/>
        <pt x="370" y="183" on="0"/>
        <pt x="315" y="228" on="0"/>
        <pt x="245" y="228" on="1"/>
        <pt x="157" y="228" on="1"/>
      </contour>
      <contour>
        <pt x="255" y="289" on="1"/>
        <pt x="273" y="289" on="0"/>
        <pt x="307" y="301" on="0"/>
        <pt x="334" y="322" on="0"/>
        <pt x="351" y="350" on="0"/>
        <pt x="351" y="366" on="1"/>
        <pt x="351" y="406" on="0"/>
        <pt x="303" y="437" on="0"/>
        <pt x="243" y="437" on="1"/>
        <pt x="211" y="437" on="0"/>
        <pt x="174" y="435" on="0"/>
        <pt x="157" y="434" on="1"/>
        <pt x="157" y="289" on="1"/>
      </contour>
    </TTGlyph>
    <TTGlyph name="afii10068" xMin="77" yMin="0" xMax="369" yMax="500">
      <contour>
        <pt x="369" y="430" on="1"/>
        <pt x="157" y="430" on="1"/>
        <pt x="157" y="0" on="1"/>
        <pt x="77" y="0" on="1"/>
        <pt x="77" y="500" on="1"/>
        <pt x="369" y="500" on="1"/>
      </contour>
    </TTGlyph>
    <TTGlyph name="afii10069" xMin="5" yMin="-127" xMax="519" yMax="500">
      <contour>
        <pt x="519" y="-127" on="1"/>
        <pt x="465" y="-127" on="1"/>
        <pt x="450" y="0" on="1"/>
        <pt x="74" y="0" on="1"/>
        <pt x="59" y="-127" on="1"/>
        <pt x="5" y="-127" on="1"/>
        <pt x="5" y="70" on="1"/>
        <pt x="64" y="70" on="1"/>
        <pt x="72" y="81" on="0"/>
        <pt x="98" y="138" on="0"/>
        <pt x="123" y="241" on="0"/>
        <pt x="142" y="394" on="0"/>
        <pt x="144" y="500" on="1"/>
        <pt x="446" y="500" on="1"/>
        <pt x="446" y="70" on="1"/>
        <pt x="519" y="70" on="1"/>
      </contour>
      <contour>
        <pt x="366" y="70" on="1"/>
        <pt x="366" y="430" on="1"/>
        <pt x="216" y="430" on="1"/>
        <pt x="214" y="388" on="0"/>
        <pt x="204" y="289" on="0"/>
        <pt x="187" y="190" on="0"/>
        <pt x="161" y="102" on="0"/>
        <pt x="144" y="70" on="1"/>
      </contour>
    </TTGlyph>
    <TTGlyph name="afii10070" xMin="49" yMin="-12" xMax="459" yMax="512">
      <component glyphName="e" x="0" y="0" flags="0x204"/>
    </TTGlyph>
    <TTGlyph name="afii10071" xMin="49" yMin="-12" xMax="459" yMax="685">
      <component glyphName="e" x="0" y="0" flags="0x204"/>
      <component glyphName="dieresis" x="59" y="-19" flags="0x4"/>
    </TTGlyph>
    <TTGlyph name="afii10072" xMin="1" yMin="0" xMax="659" yMax="500">
      <contour>
        <pt x="240" y="221" on="1"/>
        <pt x="93" y="0" on="1"/>
        <pt x="1" y="0" on="1"/>
        <pt x="159" y="229" on="1"/>
        <pt x="193" y="259" on="1"/>
        <pt x="142" y="297" on="1"/>
        <pt x="12" y="500" on="1"/>
        <pt x="97" y="500" on="1"/>
        <pt x="235" y="284" on="1"/>
        <pt x="287" y="284" on="1"/>
        <pt x="287" y="500" on="1"/>
        <pt x="365" y="500" on="1"/>
        <pt x="365" y="274" on="1"/>
        <pt x="412" y="288" on="1"/>
        <pt x="551" y="500" on="1"/>
        <pt x="635" y="500" on="1"/>
        <pt x="499" y="297" on="1"/>
        <pt x="460" y="265" on="1"/>
        <pt x="511" y="225" on="1"/>
        <pt x="659" y="0" on="1"/>
        <pt x="564" y="0" on="1"/>
        <pt x="417" y="225" on="1"/>
        <pt x="365" y="225" on="1"/>
        <pt x="365" y="0" on="1"/>
        <pt x="287" y="0" on="1"/>
        <pt x="287" y="235" on="1"/>
      </contour>
    </TTGlyph>
    <TTGlyph name="afii10073" xMin="38" yMin="-9" xMax="392" yMax="507">
      <contour>
        <pt x="125" y="223" on="1"/>
        <pt x="125" y="288" on="1"/>
        <pt x="195" y="288" on="1"/>
        <pt x="213" y="288" on="0"/>
        <pt x="248" y="300" on="0"/>
        <pt x="276" y="321" on="0"/>
        <pt x="293" y="350" on="0"/>
        <pt x="293" y="366" on="1"/>
        <pt x="293" y="405" on="0"/>
        <pt x="239" y="437" on="0"/>
        <pt x="185" y="437" on="1"/>
        <pt x="146" y="437" on="0"/>
        <pt x="81" y="413" on="0"/>
        <pt x="63" y="402" on="1"/>
        <pt x="40" y="464" on="1"/>
        <pt x="70" y="481" on="0"/>
        <pt x="151" y="507" on="0"/>
        <pt x="207" y="507" on="1"/>
        <pt x="373" y="507" on="0"/>
        <pt x="373" y="384" on="1"/>
        <pt x="373" y="349" on="0"/>
        <pt x="328" y="282" on="0"/>
        <pt x="286" y="268" on="1"/>
        <pt x="286" y="264" on="1"/>
        <pt x="345" y="253" on="0"/>
        <pt x="392" y="191" on="0"/>
        <pt x="392" y="140" on="1"/>
        <pt x="392" y="108" on="0"/>
        <pt x="366" y="54" on="0"/>
        <pt x="314" y="14" on="0"/>
        <pt x="235" y="-9" on="0"/>
        <pt x="183" y="-9" on="1"/>
        <pt x="132" y="-9" on="0"/>
        <pt x="65" y="9" on="0"/>
        <pt x="38" y="22" on="1"/>
        <pt x="61" y="88" on="1"/>
        <pt x="84" y="75" on="0"/>
        <pt x="149" y="61" on="0"/>
        <pt x="187" y="61" on="1"/>
        <pt x="248" y="61" on="0"/>
        <pt x="312" y="103" on="0"/>
        <pt x="312" y="146" on="1"/>
        <pt x="312" y="182" on="0"/>
        <pt x="252" y="223" on="0"/>
        <pt x="183" y="223" on="1"/>
      </contour>
    </TTGlyph>
    <TTGlyph name="afii10074" xMin="77" yMin="0" xMax="469" yMax="500">
      <contour>
        <pt x="389" y="296" on="1"/>
        <pt x="392" y="358" on="1"/>
        <pt x="389" y="358" on="1"/>
        <pt x="348" y="294" on="1"/>
        <pt x="123" y="0" on="1"/>
        <pt x="77" y="0" on="1"/>
        <pt x="77" y="500" on="1"/>
        <pt x="157" y="500" on="1"/>
        <pt x="157" y="195" on="1"/>
        <pt x="154" y="136" on="1"/>
        <pt x="158" y="136" on="1"/>
        <pt x="197" y="198" on="1"/>
        <pt x="422" y="500" on="1"/>
        <pt x="469" y="500" on="1"/>
        <pt x="469" y="0" on="1"/>
        <pt x="389" y="0" on="1"/>
      </contour>
    </TTGlyph>
    <TTGlyph name="afii10075" xMin="77" yMin="0" xMax="469" yMax="702">
      <component glyphName="afii10074" x="0" y="0" flags="0x204"/>
      <component glyphName="uniF6D4" x="64" y="0" flags="0x4"/>
    </TTGlyph>
    <TTGlyph name="afii10076" xMin="77" yMin="0" xMax="469" yMax="500">
      <contour>
        <pt x="203" y="225" on="1"/>
        <pt x="157" y="225" on="1"/>
        <pt x="157" y="0" on="1"/>
        <pt x="77" y="0" on="1"/>
        <pt x="77" y="500" on="1"/>
        <pt x="157" y="500" on="1"/>
        <pt x="157" y="274" on="1"/>
        <pt x="200" y="288" on="1"/>
        <pt x="360" y="500" on="1"/>
        <pt x="447" y="500" on="1"/>
        <pt x="292" y="299" on="1"/>
        <pt x="250" y="266" on="1"/>
        <pt x="302" y="226" on="1"/>
        <pt x="469" y="0" on="1"/>
        <pt x="370" y="0" on="1"/>
      </contour>
    </TTGlyph>
    <TTGlyph name="afii10077" xMin="-5" yMin="-4" xMax="426" yMax="500">
      <contour>
        <pt x="346" y="430" on="1"/>
        <pt x="201" y="430" on="1"/>
        <pt x="198" y="388" on="0"/>
        <pt x="192" y="291" on="0"/>
        <pt x="180" y="194" on="0"/>
        <pt x="160" y="105" on="0"/>
        <pt x="129" y="37" on="0"/>
        <pt x="84" y="-4" on="0"/>
        <pt x="53" y="-4" on="1"/>
        <pt x="34" y="-4" on="0"/>
        <pt x="6" y="0" on="0"/>
        <pt x="-5" y="5" on="1"/>
        <pt x="7" y="72" on="1"/>
        <pt x="19" y="68" on="0"/>
        <pt x="33" y="68" on="1"/>
        <pt x="53" y="68" on="0"/>
        <pt x="85" y="102" on="0"/>
        <pt x="109" y="197" on="0"/>
        <pt x="125" y="365" on="0"/>
        <pt x="128" y="500" on="1"/>
        <pt x="426" y="500" on="1"/>
        <pt x="426" y="0" on="1"/>
        <pt x="346" y="0" on="1"/>
      </contour>
    </TTGlyph>
    <TTGlyph name="afii10078" xMin="77" yMin="0" xMax="568" yMax="500">
      <contour>
        <pt x="490" y="297" on="1"/>
        <pt x="496" y="392" on="1"/>
        <pt x="491" y="392" on="1"/>
        <pt x="455" y="315" on="1"/>
        <pt x="334" y="119" on="1"/>
        <pt x="306" y="119" on="1"/>
        <pt x="180" y="315" on="1"/>
        <pt x="147" y="392" on="1"/>
        <pt x="143" y="392" on="1"/>
        <pt x="151" y="298" on="1"/>
        <pt x="151" y="0" on="1"/>
        <pt x="77" y="0" on="1"/>
        <pt x="77" y="500" on="1"/>
        <pt x="156" y="500" on="1"/>
        <pt x="296" y="276" on="1"/>
        <pt x="325" y="218" on="1"/>
        <pt x="327" y="218" on="1"/>
        <pt x="357" y="278" on="1"/>
        <pt x="488" y="500" on="1"/>
        <pt x="568" y="500" on="1"/>
        <pt x="568" y="0" on="1"/>
        <pt x="490" y="0" on="1"/>
      </contour>
    </TTGlyph>
    <TTGlyph name="afii10079" xMin="77" yMin="0" xMax="463" yMax="500">
      <contour>
        <pt x="383" y="221" on="1"/>
        <pt x="157" y="221" on="1"/>
        <pt x="157" y="0" on="1"/>
        <pt x="77" y="0" on="1"/>
        <pt x="77" y="500" on="1"/>
        <pt x="157" y="500" on="1"/>
        <pt x="157" y="291" on="1"/>
        <pt x="383" y="291" on="1"/>
        <pt x="383" y="500" on="1"/>
        <pt x="463" y="500" on="1"/>
        <pt x="463" y="0" on="1"/>
        <pt x="383" y="0" on="1"/>
      </contour>
    </TTGlyph>
    <TTGlyph name="afii10080" xMin="49" yMin="-12" xMax="487" yMax="512">
      <component glyphName="o" x="0" y="0" flags="0x204"/>
    </TTGlyph>
    <TTGlyph name="afii10081" xMin="77" yMin="0" xMax="458" yMax="500">
      <contour>
        <pt x="378" y="430" on="1"/>
        <pt x="157" y="430" on="1"/>
        <pt x="157" y="0" on="1"/>
        <pt x="77" y="0" on="1"/>
        <pt x="77" y="500" on="1"/>
        <pt x="458" y="500" on="1"/>
        <pt x="458" y="0" on="1"/>
        <pt x="378" y="0" on="1"/>
      </contour>
    </TTGlyph>
    <TTGlyph name="afii10082" xMin="77" yMin="-200" xMax="492" yMax="512">
      <component glyphName="p" x="0" y="0" flags="0x204"/>
    </TTGlyph>
    <TTGlyph name="afii10083" xMin="49" yMin="-12" xMax="418" yMax="512">
      <component glyphName="c" x="0" y="0" flags="0x204"/>
    </TTGlyph>
    <TTGlyph name="afii10084" xMin="2" yMin="0" xMax="396" yMax="500">
      <contour>
        <pt x="396" y="430" on="1"/>
        <pt x="239" y="430" on="1"/>
        <pt x="239" y="0" on="1"/>
        <pt x="159" y="0" on="1"/>
        <pt x="159" y="430" on="1"/>
        <pt x="2" y="430" on="1"/>
        <pt x="2" y="500" on="1"/>
        <pt x="396" y="500" on="1"/>
      </contour>
    </TTGlyph>
    <TTGlyph name="afii10085" xMin="12" yMin="-205" xMax="457" yMax="500">
      <component glyphName="y" x="0" y="0" flags="0x204"/>
    </TTGlyph>
    <TTGlyph name="afii10086" xMin="44" yMin="-200" xMax="636" yMax="700">
      <contour>
        <pt x="302" y="-4" on="1"/>
        <pt x="285" y="-10" on="0"/>
        <pt x="248" y="-12" on="0"/>
        <pt x="233" y="-12" on="1"/>
        <pt x="142" y="-12" on="0"/>
        <pt x="44" y="116" on="0"/>
        <pt x="44" y="250" on="1"/>
        <pt x="44" y="378" on="0"/>
        <pt x="152" y="508" on="0"/>
        <pt x="254" y="508" on="1"/>
        <pt x="282" y="508" on="0"/>
        <pt x="302" y="504" on="1"/>
        <pt x="302" y="700" on="1"/>
        <pt x="378" y="700" on="1"/>
        <pt x="378" y="503" on="1"/>
        <pt x="396" y="506" on="0"/>
        <pt x="424" y="508" on="0"/>
        <pt x="437" y="508" on="1"/>
        <pt x="536" y="508" on="0"/>
        <pt x="636" y="393" on="0"/>
        <pt x="636" y="260" on="1"/>
        <pt x="636" y="197" on="0"/>
        <pt x="609" y="96" on="0"/>
        <pt x="557" y="26" on="0"/>
        <pt x="482" y="-12" on="0"/>
        <pt x="433" y="-12" on="1"/>
        <pt x="424" y="-12" on="0"/>
        <pt x="389" y="-9" on="0"/>
        <pt x="378" y="-5" on="1"/>
        <pt x="378" y="-200" on="1"/>
        <pt x="302" y="-200" on="1"/>
      </contour>
      <contour>
        <pt x="422" y="442" on="1"/>
        <pt x="410" y="442" on="0"/>
        <pt x="391" y="441" on="0"/>
        <pt x="377" y="437" on="1"/>
        <pt x="377" y="57" on="1"/>
        <pt x="387" y="55" on="0"/>
        <pt x="412" y="54" on="0"/>
        <pt x="427" y="54" on="1"/>
        <pt x="491" y="54" on="0"/>
        <pt x="556" y="160" on="0"/>
        <pt x="556" y="260" on="1"/>
        <pt x="556" y="345" on="0"/>
        <pt x="497" y="442" on="0"/>
      </contour>
      <contour>
        <pt x="253" y="54" on="1"/>
        <pt x="265" y="54" on="0"/>
        <pt x="289" y="56" on="0"/>
        <pt x="303" y="59" on="1"/>
        <pt x="303" y="438" on="1"/>
        <pt x="291" y="440" on="0"/>
        <pt x="270" y="442" on="0"/>
        <pt x="255" y="442" on="1"/>
        <pt x="193" y="442" on="0"/>
        <pt x="124" y="349" on="0"/>
        <pt x="124" y="250" on="1"/>
        <pt x="124" y="208" on="0"/>
        <pt x="139" y="136" on="0"/>
        <pt x="171" y="83" on="0"/>
        <pt x="220" y="54" on="0"/>
      </contour>
    </TTGlyph>
    <TTGlyph name="afii10087" xMin="28" yMin="0" xMax="487" yMax="500">
      <component glyphName="x" x="0" y="0" flags="0x204"/>
    </TTGlyph>
    <TTGlyph name="afii10088" xMin="77" yMin="-127" xMax="526" yMax="500">
      <contour>
        <pt x="526" y="-127" on="1"/>
        <pt x="472" y="-127" on="1"/>
        <pt x="457" y="0" on="1"/>
        <pt x="77" y="0" on="1"/>
        <pt x="77" y="500" on="1"/>
        <pt x="157" y="500" on="1"/>
        <pt x="157" y="70" on="1"/>
        <pt x="374" y="70" on="1"/>
        <pt x="374" y="500" on="1"/>
        <pt x="454" y="500" on="1"/>
        <pt x="454" y="70" on="1"/>
        <pt x="526" y="70" on="1"/>
      </contour>
    </TTGlyph>
    <TTGlyph name="afii10089" xMin="49" yMin="0" xMax="413" yMax="500">
      <contour>
        <pt x="129" y="500" on="1"/>
        <pt x="129" y="364" on="1"/>
        <pt x="129" y="337" on="0"/>
        <pt x="135" y="294" on="0"/>
        <pt x="153" y="263" on="0"/>
        <pt x="187" y="246" on="0"/>
        <pt x="215" y="246" on="1"/>
        <pt x="260" y="246" on="0"/>
        <pt x="318" y="266" on="0"/>
        <pt x="333" y="278" on="1"/>
        <pt x="333" y="500" on="1"/>
        <pt x="413" y="500" on="1"/>
        <pt x="413" y="0" on="1"/>
        <pt x="333" y="0" on="1"/>
        <pt x="333" y="210" on="1"/>
        <pt x="317" y="200" on="0"/>
        <pt x="254" y="176" on="0"/>
        <pt x="199" y="176" on="1"/>
        <pt x="162" y="176" on="0"/>
        <pt x="106" y="192" on="0"/>
        <pt x="68" y="232" on="0"/>
        <pt x="49" y="298" on="0"/>
        <pt x="49" y="348" on="1"/>
        <pt x="49" y="500" on="1"/>
      </contour>
    </TTGlyph>
    <TTGlyph name="afii10090" xMin="77" yMin="0" xMax="659" yMax="500">
      <contour>
        <pt x="77" y="0" on="1"/>
        <pt x="77" y="500" on="1"/>
        <pt x="157" y="500" on="1"/>
        <pt x="157" y="70" on="1"/>
        <pt x="328" y="70" on="1"/>
        <pt x="328" y="500" on="1"/>
        <pt x="408" y="500" on="1"/>
        <pt x="408" y="70" on="1"/>
        <pt x="579" y="70" on="1"/>
        <pt x="579" y="500" on="1"/>
        <pt x="659" y="500" on="1"/>
        <pt x="659" y="0" on="1"/>
      </contour>
    </TTGlyph>
    <TTGlyph name="afii10091" xMin="77" yMin="-127" xMax="731" yMax="500">
      <contour>
        <pt x="731" y="-127" on="1"/>
        <pt x="677" y="-127" on="1"/>
        <pt x="662" y="0" on="1"/>
        <pt x="77" y="0" on="1"/>
        <pt x="77" y="500" on="1"/>
        <pt x="157" y="500" on="1"/>
        <pt x="157" y="70" on="1"/>
        <pt x="328" y="70" on="1"/>
        <pt x="328" y="500" on="1"/>
        <pt x="408" y="500" on="1"/>
        <pt x="408" y="70" on="1"/>
        <pt x="579" y="70" on="1"/>
        <pt x="579" y="500" on="1"/>
        <pt x="659" y="500" on="1"/>
        <pt x="659" y="70" on="1"/>
        <pt x="731" y="70" on="1"/>
      </contour>
    </TTGlyph>
    <TTGlyph name="afii10092" xMin="1" yMin="-6" xMax="467" yMax="500">
      <contour>
        <pt x="191" y="70" on="1"/>
        <pt x="230" y="64" on="0"/>
        <pt x="261" y="64" on="1"/>
        <pt x="324" y="64" on="0"/>
        <pt x="384" y="113" on="0"/>
        <pt x="384" y="158" on="1"/>
        <pt x="384" y="198" on="0"/>
        <pt x="326" y="250" on="0"/>
        <pt x="264" y="250" on="1"/>
        <pt x="247" y="250" on="0"/>
        <pt x="209" y="248" on="0"/>
        <pt x="191" y="243" on="1"/>
      </contour>
      <contour>
        <pt x="191" y="309" on="1"/>
        <pt x="215" y="313" on="0"/>
        <pt x="258" y="316" on="0"/>
        <pt x="278" y="316" on="1"/>
        <pt x="330" y="316" on="0"/>
        <pt x="402" y="293" on="0"/>
        <pt x="447" y="253" on="0"/>
        <pt x="467" y="198" on="0"/>
        <pt x="467" y="167" on="1"/>
        <pt x="467" y="76" on="0"/>
        <pt x="358" y="-6" on="0"/>
        <pt x="243" y="-6" on="1"/>
        <pt x="210" y="-6" on="0"/>
        <pt x="146" y="-3" on="0"/>
        <pt x="111" y="0" on="1"/>
        <pt x="111" y="430" on="1"/>
        <pt x="1" y="430" on="1"/>
        <pt x="1" y="500" on="1"/>
        <pt x="191" y="500" on="1"/>
      </contour>
    </TTGlyph>
    <TTGlyph name="afii10093" xMin="77" yMin="-6" xMax="583" yMax="500">
      <contour>
        <pt x="157" y="70" on="1"/>
        <pt x="194" y="64" on="0"/>
        <pt x="228" y="64" on="1"/>
        <pt x="291" y="64" on="0"/>
        <pt x="341" y="113" on="0"/>
        <pt x="341" y="158" on="1"/>
        <pt x="341" y="198" on="0"/>
        <pt x="292" y="250" on="0"/>
        <pt x="231" y="250" on="1"/>
        <pt x="214" y="250" on="0"/>
        <pt x="174" y="248" on="0"/>
        <pt x="157" y="243" on="1"/>
      </contour>
      <contour>
        <pt x="157" y="309" on="1"/>
        <pt x="181" y="313" on="0"/>
        <pt x="225" y="316" on="0"/>
        <pt x="245" y="316" on="1"/>
        <pt x="296" y="316" on="0"/>
        <pt x="365" y="293" on="0"/>
        <pt x="407" y="253" on="0"/>
        <pt x="424" y="198" on="0"/>
        <pt x="424" y="167" on="1"/>
        <pt x="424" y="76" on="0"/>
        <pt x="323" y="-6" on="0"/>
        <pt x="210" y="-6" on="1"/>
        <pt x="146" y="-6" on="0"/>
        <pt x="77" y="0" on="1"/>
        <pt x="77" y="500" on="1"/>
        <pt x="157" y="500" on="1"/>
      </contour>
      <contour>
        <pt x="503" y="500" on="1"/>
        <pt x="583" y="500" on="1"/>
        <pt x="583" y="0" on="1"/>
        <pt x="503" y="0" on="1"/>
      </contour>
    </TTGlyph>
    <TTGlyph name="afii10094" xMin="77" yMin="-6" xMax="434" yMax="500">
      <contour>
        <pt x="157" y="70" on="1"/>
        <pt x="194" y="64" on="0"/>
        <pt x="228" y="64" on="1"/>
        <pt x="291" y="64" on="0"/>
        <pt x="351" y="113" on="0"/>
        <pt x="351" y="158" on="1"/>
        <pt x="351" y="198" on="0"/>
        <pt x="293" y="250" on="0"/>
        <pt x="231" y="250" on="1"/>
        <pt x="214" y="250" on="0"/>
        <pt x="174" y="248" on="0"/>
        <pt x="157" y="243" on="1"/>
      </contour>
      <contour>
        <pt x="157" y="309" on="1"/>
        <pt x="181" y="313" on="0"/>
        <pt x="225" y="316" on="0"/>
        <pt x="245" y="316" on="1"/>
        <pt x="297" y="316" on="0"/>
        <pt x="369" y="293" on="0"/>
        <pt x="414" y="253" on="0"/>
        <pt x="434" y="198" on="0"/>
        <pt x="434" y="167" on="1"/>
        <pt x="434" y="76" on="0"/>
        <pt x="325" y="-6" on="0"/>
        <pt x="210" y="-6" on="1"/>
        <pt x="146" y="-6" on="0"/>
        <pt x="77" y="0" on="1"/>
        <pt x="77" y="500" on="1"/>
        <pt x="157" y="500" on="1"/>
      </contour>
    </TTGlyph>
    <TTGlyph name="afii10095" xMin="39" yMin="-12" xMax="416" yMax="512">
      <contour>
        <pt x="121" y="285" on="1"/>
        <pt x="333" y="285" on="1"/>
        <pt x="328" y="356" on="0"/>
        <pt x="255" y="442" on="0"/>
        <pt x="188" y="442" on="1"/>
        <pt x="147" y="442" on="0"/>
        <pt x="86" y="420" on="0"/>
        <pt x="67" y="407" on="1"/>
        <pt x="39" y="468" on="1"/>
        <pt x="70" y="489" on="0"/>
        <pt x="150" y="512" on="0"/>
        <pt x="203" y="512" on="1"/>
        <pt x="314" y="512" on="0"/>
        <pt x="416" y="374" on="0"/>
        <pt x="416" y="250" on="1"/>
        <pt x="416" y="122" on="0"/>
        <pt x="298" y="-12" on="0"/>
        <pt x="193" y="-12" on="1"/>
        <pt x="146" y="-12" on="0"/>
        <pt x="67" y="3" on="0"/>
        <pt x="40" y="18" on="1"/>
        <pt x="63" y="86" on="1"/>
        <pt x="86" y="73" on="0"/>
        <pt x="153" y="58" on="0"/>
        <pt x="185" y="58" on="1"/>
        <pt x="325" y="57" on="0"/>
        <pt x="334" y="219" on="1"/>
        <pt x="121" y="219" on="1"/>
      </contour>
    </TTGlyph>
    <TTGlyph name="afii10096" xMin="77" yMin="-12" xMax="670" yMax="512">
      <contour>
        <pt x="465" y="-12" on="1"/>
        <pt x="411" y="-12" on="0"/>
        <pt x="334" y="21" on="0"/>
        <pt x="285" y="82" on="0"/>
        <pt x="260" y="169" on="0"/>
        <pt x="257" y="221" on="1"/>
        <pt x="157" y="221" on="1"/>
        <pt x="157" y="0" on="1"/>
        <pt x="77" y="0" on="1"/>
        <pt x="77" y="500" on="1"/>
        <pt x="157" y="500" on="1"/>
        <pt x="157" y="291" on="1"/>
        <pt x="258" y="291" on="1"/>
        <pt x="266" y="398" on="0"/>
        <pt x="367" y="512" on="0"/>
        <pt x="467" y="512" on="1"/>
        <pt x="522" y="512" on="0"/>
        <pt x="599" y="475" on="0"/>
        <pt x="648" y="406" on="0"/>
        <pt x="670" y="309" on="0"/>
        <pt x="670" y="250" on="1"/>
        <pt x="670" y="123" on="0"/>
        <pt x="569" y="-12" on="0"/>
      </contour>
      <contour>
        <pt x="336" y="250" on="1"/>
        <pt x="336" y="211" on="0"/>
        <pt x="348" y="141" on="0"/>
        <pt x="378" y="88" on="0"/>
        <pt x="429" y="58" on="0"/>
        <pt x="467" y="58" on="1"/>
        <pt x="531" y="58" on="0"/>
        <pt x="587" y="151" on="0"/>
        <pt x="587" y="250" on="1"/>
        <pt x="587" y="289" on="0"/>
        <pt x="576" y="359" on="0"/>
        <pt x="548" y="412" on="0"/>
        <pt x="502" y="442" on="0"/>
        <pt x="466" y="442" on="1"/>
        <pt x="397" y="442" on="0"/>
        <pt x="336" y="349" on="0"/>
      </contour>
    </TTGlyph>
    <TTGlyph name="afii10097" xMin="20" yMin="0" xMax="406" yMax="512">
      <contour>
        <pt x="326" y="207" on="1"/>
        <pt x="249" y="195" on="1"/>
        <pt x="117" y="0" on="1"/>
        <pt x="20" y="0" on="1"/>
        <pt x="140" y="171" on="1"/>
        <pt x="180" y="208" on="1"/>
        <pt x="128" y="216" on="0"/>
        <pt x="55" y="284" on="0"/>
        <pt x="55" y="342" on="1"/>
        <pt x="55" y="387" on="0"/>
        <pt x="86" y="451" on="0"/>
        <pt x="144" y="493" on="0"/>
        <pt x="224" y="512" on="0"/>
        <pt x="274" y="512" on="1"/>
        <pt x="311" y="512" on="0"/>
        <pt x="375" y="502" on="0"/>
        <pt x="406" y="496" on="1"/>
        <pt x="406" y="0" on="1"/>
        <pt x="326" y="0" on="1"/>
      </contour>
      <contour>
        <pt x="326" y="432" on="1"/>
        <pt x="313" y="437" on="0"/>
        <pt x="281" y="442" on="0"/>
        <pt x="269" y="442" on="1"/>
        <pt x="205" y="442" on="0"/>
        <pt x="138" y="396" on="0"/>
        <pt x="138" y="346" on="1"/>
        <pt x="138" y="301" on="0"/>
        <pt x="209" y="252" on="0"/>
        <pt x="267" y="252" on="1"/>
        <pt x="268" y="252" on="0"/>
        <pt x="272" y="252" on="0"/>
        <pt x="284" y="252" on="0"/>
        <pt x="306" y="253" on="0"/>
        <pt x="326" y="254" on="1"/>
      </contour>
    </TTGlyph>
    <TTGlyph name="afii10098" xMin="77" yMin="0" xMax="369" yMax="634">
      <contour>
        <pt x="157" y="430" on="1"/>
        <pt x="157" y="0" on="1"/>
        <pt x="77" y="0" on="1"/>
        <pt x="77" y="500" on="1"/>
        <pt x="297" y="500" on="1"/>
        <pt x="313" y="634" on="1"/>
        <pt x="369" y="634" on="1"/>
        <pt x="369" y="430" on="1"/>
      </contour>
    </TTGlyph>
    <TTGlyph name="afii10099" xMin="-2" yMin="-212" xMax="479" yMax="700">
      <contour>
        <pt x="-2" y="600" on="1"/>
        <pt x="78" y="600" on="1"/>
        <pt x="78" y="700" on="1"/>
        <pt x="158" y="700" on="1"/>
        <pt x="158" y="600" on="1"/>
        <pt x="318" y="600" on="1"/>
        <pt x="318" y="540" on="1"/>
        <pt x="158" y="540" on="1"/>
        <pt x="158" y="392" on="1"/>
        <pt x="162" y="392" on="1"/>
        <pt x="188" y="423" on="0"/>
        <pt x="261" y="460" on="0"/>
        <pt x="315" y="460" on="1"/>
        <pt x="357" y="460" on="0"/>
        <pt x="419" y="441" on="0"/>
        <pt x="460" y="393" on="0"/>
        <pt x="479" y="312" on="0"/>
        <pt x="479" y="250" on="1"/>
        <pt x="479" y="-27" on="1"/>
        <pt x="479" y="-120" on="0"/>
        <pt x="415" y="-212" on="0"/>
        <pt x="345" y="-212" on="1"/>
        <pt x="337" y="-212" on="0"/>
        <pt x="323" y="-211" on="0"/>
        <pt x="315" y="-210" on="1"/>
        <pt x="315" y="-142" on="1"/>
        <pt x="343" y="-142" on="0"/>
        <pt x="376" y="-125" on="0"/>
        <pt x="394" y="-90" on="0"/>
        <pt x="399" y="-36" on="0"/>
        <pt x="399" y="0" on="1"/>
        <pt x="399" y="232" on="1"/>
        <pt x="399" y="271" on="0"/>
        <pt x="390" y="331" on="0"/>
        <pt x="366" y="370" on="0"/>
        <pt x="325" y="390" on="0"/>
        <pt x="292" y="390" on="1"/>
        <pt x="245" y="390" on="0"/>
        <pt x="169" y="329" on="0"/>
        <pt x="158" y="281" on="1"/>
        <pt x="158" y="0" on="1"/>
        <pt x="78" y="0" on="1"/>
        <pt x="78" y="540" on="1"/>
        <pt x="-2" y="540" on="1"/>
      </contour>
    </TTGlyph>
    <TTGlyph name="afii10100" xMin="77" yMin="0" xMax="369" yMax="720">
      <component glyphName="afii10068" x="0" y="0" flags="0x204"/>
      <component glyphName="acute" x="121" y="0" flags="0x4"/>
    </TTGlyph>
    <TTGlyph name="afii10101" xMin="49" yMin="-12" xMax="438" yMax="512">
      <contour>
        <pt x="438" y="33" on="1"/>
        <pt x="408" y="11" on="0"/>
        <pt x="322" y="-12" on="0"/>
        <pt x="277" y="-12" on="1"/>
        <pt x="219" y="-12" on="0"/>
        <pt x="134" y="25" on="0"/>
        <pt x="77" y="94" on="0"/>
        <pt x="49" y="191" on="0"/>
        <pt x="49" y="250" on="1"/>
        <pt x="49" y="313" on="0"/>
        <pt x="83" y="411" on="0"/>
        <pt x="144" y="477" on="0"/>
        <pt x="230" y="512" on="0"/>
        <pt x="282" y="512" on="1"/>
        <pt x="330" y="512" on="0"/>
        <pt x="402" y="497" on="0"/>
        <pt x="429" y="483" on="1"/>
        <pt x="406" y="414" on="1"/>
        <pt x="383" y="427" on="0"/>
        <pt x="322" y="442" on="0"/>
        <pt x="290" y="442" on="1"/>
        <pt x="221" y="443" on="0"/>
        <pt x="138" y="364" on="0"/>
        <pt x="130" y="286" on="1"/>
        <pt x="366" y="286" on="1"/>
        <pt x="366" y="220" on="1"/>
        <pt x="129" y="220" on="1"/>
        <pt x="132" y="187" on="0"/>
        <pt x="155" y="127" on="0"/>
        <pt x="196" y="83" on="0"/>
        <pt x="256" y="58" on="0"/>
        <pt x="298" y="58" on="1"/>
        <pt x="333" y="58" on="0"/>
        <pt x="394" y="80" on="0"/>
        <pt x="412" y="94" on="1"/>
      </contour>
    </TTGlyph>
    <TTGlyph name="afii10102" xMin="39" yMin="-12" xMax="377" yMax="512">
      <component glyphName="s" x="0" y="0" flags="0x204"/>
    </TTGlyph>
    <TTGlyph name="afii10103" xMin="77" yMin="0" xMax="190" yMax="708">
      <component glyphName="i" x="0" y="0" flags="0x204"/>
    </TTGlyph>
    <TTGlyph name="afii10103.alt" xMin="94" yMin="0" xMax="174" yMax="500">
      <component glyphName="dotlessi" x="0" y="0" flags="0x204"/>
    </TTGlyph>
    <TTGlyph name="afii10104" xMin="29" yMin="0" xMax="250" yMax="703">
      <contour>
        <pt x="29" y="653" on="1"/>
        <pt x="29" y="676" on="0"/>
        <pt x="54" y="703" on="0"/>
        <pt x="77" y="703" on="1"/>
        <pt x="99" y="703" on="0"/>
        <pt x="125" y="676" on="0"/>
        <pt x="125" y="653" on="1"/>
        <pt x="125" y="632" on="0"/>
        <pt x="99" y="604" on="0"/>
        <pt x="77" y="604" on="1"/>
        <pt x="54" y="604" on="0"/>
        <pt x="29" y="632" on="0"/>
      </contour>
      <contour>
        <pt x="154" y="653" on="1"/>
        <pt x="154" y="676" on="0"/>
        <pt x="179" y="703" on="0"/>
        <pt x="201" y="703" on="1"/>
        <pt x="224" y="703" on="0"/>
        <pt x="250" y="676" on="0"/>
        <pt x="250" y="653" on="1"/>
        <pt x="250" y="632" on="0"/>
        <pt x="224" y="604" on="0"/>
        <pt x="201" y="604" on="1"/>
        <pt x="179" y="604" on="0"/>
        <pt x="154" y="632" on="0"/>
      </contour>
      <contour>
        <pt x="98" y="500" on="1"/>
        <pt x="178" y="500" on="1"/>
        <pt x="178" y="0" on="1"/>
        <pt x="98" y="0" on="1"/>
      </contour>
    </TTGlyph>
    <TTGlyph name="afii10105" xMin="9" yMin="-212" xMax="189" yMax="708">
      <component glyphName="j" x="0" y="0" flags="0x204"/>
    </TTGlyph>
    <TTGlyph name="afii10106" xMin="-5" yMin="-6" xMax="703" yMax="500">
      <contour>
        <pt x="426" y="309" on="1"/>
        <pt x="450" y="313" on="0"/>
        <pt x="494" y="316" on="0"/>
        <pt x="514" y="316" on="1"/>
        <pt x="566" y="316" on="0"/>
        <pt x="638" y="293" on="0"/>
        <pt x="683" y="253" on="0"/>
        <pt x="703" y="198" on="0"/>
        <pt x="703" y="167" on="1"/>
        <pt x="703" y="76" on="0"/>
        <pt x="594" y="-6" on="0"/>
        <pt x="479" y="-6" on="1"/>
        <pt x="415" y="-6" on="0"/>
        <pt x="346" y="0" on="1"/>
        <pt x="346" y="430" on="1"/>
        <pt x="201" y="430" on="1"/>
        <pt x="198" y="388" on="0"/>
        <pt x="192" y="291" on="0"/>
        <pt x="180" y="194" on="0"/>
        <pt x="160" y="105" on="0"/>
        <pt x="129" y="37" on="0"/>
        <pt x="84" y="-4" on="0"/>
        <pt x="53" y="-4" on="1"/>
        <pt x="34" y="-4" on="0"/>
        <pt x="6" y="0" on="0"/>
        <pt x="-5" y="5" on="1"/>
        <pt x="7" y="72" on="1"/>
        <pt x="19" y="68" on="0"/>
        <pt x="33" y="68" on="1"/>
        <pt x="53" y="68" on="0"/>
        <pt x="85" y="102" on="0"/>
        <pt x="109" y="197" on="0"/>
        <pt x="125" y="365" on="0"/>
        <pt x="128" y="500" on="1"/>
        <pt x="426" y="500" on="1"/>
      </contour>
      <contour>
        <pt x="426" y="69" on="1"/>
        <pt x="463" y="63" on="0"/>
        <pt x="497" y="63" on="1"/>
        <pt x="560" y="63" on="0"/>
        <pt x="620" y="113" on="0"/>
        <pt x="620" y="158" on="1"/>
        <pt x="620" y="198" on="0"/>
        <pt x="562" y="250" on="0"/>
        <pt x="500" y="250" on="1"/>
        <pt x="483" y="250" on="0"/>
        <pt x="443" y="248" on="0"/>
        <pt x="426" y="243" on="1"/>
      </contour>
    </TTGlyph>
    <TTGlyph name="afii10107" xMin="77" yMin="-6" xMax="740" yMax="500">
      <contour>
        <pt x="463" y="70" on="1"/>
        <pt x="500" y="64" on="0"/>
        <pt x="534" y="64" on="1"/>
        <pt x="597" y="64" on="0"/>
        <pt x="657" y="113" on="0"/>
        <pt x="657" y="158" on="1"/>
        <pt x="657" y="198" on="0"/>
        <pt x="599" y="250" on="0"/>
        <pt x="537" y="250" on="1"/>
        <pt x="520" y="250" on="0"/>
        <pt x="481" y="247" on="0"/>
        <pt x="463" y="243" on="1"/>
      </contour>
      <contour>
        <pt x="463" y="309" on="1"/>
        <pt x="487" y="313" on="0"/>
        <pt x="531" y="316" on="0"/>
        <pt x="551" y="316" on="1"/>
        <pt x="603" y="316" on="0"/>
        <pt x="675" y="293" on="0"/>
        <pt x="720" y="253" on="0"/>
        <pt x="740" y="198" on="0"/>
        <pt x="740" y="167" on="1"/>
        <pt x="740" y="76" on="0"/>
        <pt x="631" y="-6" on="0"/>
        <pt x="516" y="-6" on="1"/>
        <pt x="452" y="-6" on="0"/>
        <pt x="383" y="0" on="1"/>
        <pt x="383" y="223" on="1"/>
        <pt x="157" y="223" on="1"/>
        <pt x="157" y="0" on="1"/>
        <pt x="77" y="0" on="1"/>
        <pt x="77" y="500" on="1"/>
        <pt x="157" y="500" on="1"/>
        <pt x="157" y="293" on="1"/>
        <pt x="383" y="293" on="1"/>
        <pt x="383" y="500" on="1"/>
        <pt x="463" y="500" on="1"/>
      </contour>
    </TTGlyph>
    <TTGlyph name="afii10108" xMin="-2" yMin="0" xMax="479" yMax="700">
      <contour>
        <pt x="-2" y="600" on="1"/>
        <pt x="78" y="600" on="1"/>
        <pt x="78" y="700" on="1"/>
        <pt x="158" y="700" on="1"/>
        <pt x="158" y="600" on="1"/>
        <pt x="318" y="600" on="1"/>
        <pt x="318" y="540" on="1"/>
        <pt x="158" y="540" on="1"/>
        <pt x="158" y="392" on="1"/>
        <pt x="162" y="392" on="1"/>
        <pt x="188" y="423" on="0"/>
        <pt x="261" y="460" on="0"/>
        <pt x="315" y="460" on="1"/>
        <pt x="357" y="460" on="0"/>
        <pt x="419" y="441" on="0"/>
        <pt x="460" y="393" on="0"/>
        <pt x="479" y="312" on="0"/>
        <pt x="479" y="250" on="1"/>
        <pt x="479" y="0" on="1"/>
        <pt x="399" y="0" on="1"/>
        <pt x="399" y="232" on="1"/>
        <pt x="399" y="271" on="0"/>
        <pt x="390" y="331" on="0"/>
        <pt x="366" y="370" on="0"/>
        <pt x="325" y="390" on="0"/>
        <pt x="292" y="390" on="1"/>
        <pt x="245" y="390" on="0"/>
        <pt x="169" y="329" on="0"/>
        <pt x="158" y="281" on="1"/>
        <pt x="158" y="0" on="1"/>
        <pt x="78" y="0" on="1"/>
        <pt x="78" y="540" on="1"/>
        <pt x="-2" y="540" on="1"/>
      </contour>
    </TTGlyph>
    <TTGlyph name="afii10109" xMin="77" yMin="0" xMax="469" yMax="720">
      <component glyphName="afii10076" x="0" y="0" flags="0x204"/>
      <component glyphName="acute" x="137" y="0" flags="0x4"/>
    </TTGlyph>
    <TTGlyph name="afii10110" xMin="12" yMin="-205" xMax="457" yMax="702">
      <component glyphName="y" x="0" y="0" flags="0x204"/>
      <component glyphName="uniF6D4" x="29" y="0" flags="0x4"/>
    </TTGlyph>
    <TTGlyph name="afii10145" xMin="85" yMin="-179" xMax="574" yMax="700">
      <contour>
        <pt x="85" y="0" on="1"/>
        <pt x="85" y="700" on="1"/>
        <pt x="168" y="700" on="1"/>
        <pt x="168" y="74" on="1"/>
        <pt x="491" y="74" on="1"/>
        <pt x="491" y="700" on="1"/>
        <pt x="574" y="700" on="1"/>
        <pt x="574" y="0" on="1"/>
        <pt x="372" y="0" on="1"/>
        <pt x="357" y="-179" on="1"/>
        <pt x="305" y="-179" on="1"/>
        <pt x="285" y="0" on="1"/>
      </contour>
    </TTGlyph>
    <TTGlyph name="afii10146" xMin="0" yMin="-8" xMax="585" yMax="721">
      <contour>
        <pt x="0" y="620" on="1"/>
        <pt x="149" y="620" on="1"/>
        <pt x="149" y="721" on="1"/>
        <pt x="232" y="721" on="1"/>
        <pt x="232" y="620" on="1"/>
        <pt x="439" y="620" on="1"/>
        <pt x="439" y="550" on="1"/>
        <pt x="232" y="550" on="1"/>
        <pt x="232" y="427" on="1"/>
        <pt x="237" y="428" on="0"/>
        <pt x="261" y="431" on="0"/>
        <pt x="289" y="433" on="0"/>
        <pt x="319" y="435" on="0"/>
        <pt x="331" y="435" on="1"/>
        <pt x="379" y="435" on="0"/>
        <pt x="470" y="416" on="0"/>
        <pt x="541" y="369" on="0"/>
        <pt x="585" y="288" on="0"/>
        <pt x="585" y="226" on="1"/>
        <pt x="585" y="166" on="0"/>
        <pt x="543" y="78" on="0"/>
        <pt x="469" y="20" on="0"/>
        <pt x="370" y="-8" on="0"/>
        <pt x="312" y="-8" on="1"/>
        <pt x="298" y="-8" on="0"/>
        <pt x="258" y="-7" on="0"/>
        <pt x="213" y="-4" on="0"/>
        <pt x="168" y="2" on="0"/>
        <pt x="149" y="7" on="1"/>
        <pt x="149" y="550" on="1"/>
        <pt x="0" y="550" on="1"/>
      </contour>
      <contour>
        <pt x="323" y="64" on="1"/>
        <pt x="359" y="64" on="0"/>
        <pt x="422" y="83" on="0"/>
        <pt x="470" y="122" on="0"/>
        <pt x="497" y="181" on="0"/>
        <pt x="497" y="220" on="1"/>
        <pt x="497" y="262" on="0"/>
        <pt x="467" y="318" on="0"/>
        <pt x="418" y="350" on="0"/>
        <pt x="354" y="363" on="0"/>
        <pt x="320" y="363" on="1"/>
        <pt x="311" y="363" on="0"/>
        <pt x="285" y="361" on="0"/>
        <pt x="259" y="359" on="0"/>
        <pt x="237" y="355" on="0"/>
        <pt x="232" y="354" on="1"/>
        <pt x="232" y="70" on="1"/>
        <pt x="246" y="67" on="0"/>
        <pt x="298" y="64" on="0"/>
      </contour>
    </TTGlyph>
    <TTGlyph name="afii10147" xMin="56" yMin="-12" xMax="628" yMax="712">
      <contour>
        <pt x="56" y="350" on="1"/>
        <pt x="56" y="525" on="0"/>
        <pt x="204" y="712" on="0"/>
        <pt x="341" y="712" on="1"/>
        <pt x="415" y="712" on="0"/>
        <pt x="523" y="660" on="0"/>
        <pt x="594" y="565" on="0"/>
        <pt x="628" y="432" on="0"/>
        <pt x="628" y="350" on="1"/>
        <pt x="628" y="175" on="0"/>
        <pt x="479" y="-12" on="0"/>
        <pt x="341" y="-12" on="1"/>
        <pt x="268" y="-12" on="0"/>
        <pt x="161" y="40" on="0"/>
        <pt x="90" y="135" on="0"/>
        <pt x="56" y="268" on="0"/>
      </contour>
      <contour>
        <pt x="540" y="392" on="1"/>
        <pt x="532" y="511" on="0"/>
        <pt x="423" y="638" on="0"/>
        <pt x="341" y="638" on="1"/>
        <pt x="305" y="638" on="0"/>
        <pt x="237" y="613" on="0"/>
        <pt x="183" y="555" on="0"/>
        <pt x="148" y="461" on="0"/>
        <pt x="144" y="392" on="1"/>
      </contour>
      <contour>
        <pt x="144" y="318" on="1"/>
        <pt x="152" y="189" on="0"/>
        <pt x="261" y="62" on="0"/>
        <pt x="341" y="62" on="1"/>
        <pt x="378" y="62" on="0"/>
        <pt x="448" y="86" on="0"/>
        <pt x="502" y="145" on="0"/>
        <pt x="537" y="243" on="0"/>
        <pt x="540" y="318" on="1"/>
      </contour>
    </TTGlyph>
    <TTGlyph name="afii10148" xMin="-2" yMin="-11" xMax="657" yMax="707">
      <contour>
        <pt x="304" y="-11" on="1"/>
        <pt x="267" y="-11" on="1"/>
        <pt x="-2" y="700" on="1"/>
        <pt x="88" y="700" on="1"/>
        <pt x="266" y="219" on="1"/>
        <pt x="290" y="113" on="1"/>
        <pt x="292" y="113" on="1"/>
        <pt x="308" y="221" on="1"/>
        <pt x="327" y="287" on="0"/>
        <pt x="368" y="420" on="0"/>
        <pt x="389" y="492" on="1"/>
        <pt x="412" y="570" on="0"/>
        <pt x="453" y="657" on="0"/>
        <pt x="495" y="698" on="0"/>
        <pt x="539" y="707" on="0"/>
        <pt x="565" y="707" on="1"/>
        <pt x="600" y="707" on="0"/>
        <pt x="640" y="696" on="0"/>
        <pt x="657" y="685" on="1"/>
        <pt x="633" y="615" on="1"/>
        <pt x="613" y="626" on="0"/>
        <pt x="578" y="633" on="0"/>
        <pt x="564" y="633" on="1"/>
        <pt x="536" y="633" on="0"/>
        <pt x="498" y="581" on="0"/>
        <pt x="478" y="520" on="1"/>
      </contour>
    </TTGlyph>
    <TTGlyph name="afii10193" xMin="77" yMin="-179" xMax="458" yMax="500">
      <contour>
        <pt x="77" y="0" on="1"/>
        <pt x="77" y="500" on="1"/>
        <pt x="157" y="500" on="1"/>
        <pt x="157" y="70" on="1"/>
        <pt x="378" y="70" on="1"/>
        <pt x="378" y="500" on="1"/>
        <pt x="458" y="500" on="1"/>
        <pt x="458" y="0" on="1"/>
        <pt x="312" y="0" on="1"/>
        <pt x="297" y="-179" on="1"/>
        <pt x="245" y="-179" on="1"/>
        <pt x="225" y="0" on="1"/>
      </contour>
    </TTGlyph>
    <TTGlyph name="afii10194" xMin="1" yMin="-6" xMax="467" yMax="700">
      <contour>
        <pt x="1" y="500" on="1"/>
        <pt x="110" y="500" on="1"/>
        <pt x="110" y="700" on="1"/>
        <pt x="190" y="700" on="1"/>
        <pt x="190" y="500" on="1"/>
        <pt x="350" y="500" on="1"/>
        <pt x="350" y="434" on="1"/>
        <pt x="190" y="434" on="1"/>
        <pt x="190" y="309" on="1"/>
        <pt x="214" y="313" on="0"/>
        <pt x="258" y="316" on="0"/>
        <pt x="278" y="316" on="1"/>
        <pt x="330" y="316" on="0"/>
        <pt x="402" y="293" on="0"/>
        <pt x="447" y="253" on="0"/>
        <pt x="467" y="198" on="0"/>
        <pt x="467" y="167" on="1"/>
        <pt x="467" y="76" on="0"/>
        <pt x="358" y="-6" on="0"/>
        <pt x="243" y="-6" on="1"/>
        <pt x="179" y="-6" on="0"/>
        <pt x="110" y="0" on="1"/>
        <pt x="110" y="434" on="1"/>
        <pt x="1" y="434" on="1"/>
      </contour>
      <contour>
        <pt x="190" y="70" on="1"/>
        <pt x="229" y="64" on="0"/>
        <pt x="261" y="64" on="1"/>
        <pt x="324" y="64" on="0"/>
        <pt x="384" y="113" on="0"/>
        <pt x="384" y="158" on="1"/>
        <pt x="384" y="198" on="0"/>
        <pt x="326" y="250" on="0"/>
        <pt x="264" y="250" on="1"/>
        <pt x="247" y="250" on="0"/>
        <pt x="208" y="248" on="0"/>
        <pt x="190" y="243" on="1"/>
      </contour>
    </TTGlyph>
    <TTGlyph name="afii10195" xMin="49" yMin="-12" xMax="487" yMax="512">
      <contour>
        <pt x="49" y="250" on="1"/>
        <pt x="49" y="377" on="0"/>
        <pt x="162" y="512" on="0"/>
        <pt x="268" y="512" on="1"/>
        <pt x="324" y="512" on="0"/>
        <pt x="407" y="475" on="0"/>
        <pt x="461" y="406" on="0"/>
        <pt x="487" y="309" on="0"/>
        <pt x="487" y="250" on="1"/>
        <pt x="487" y="123" on="0"/>
        <pt x="374" y="-12" on="0"/>
        <pt x="268" y="-12" on="1"/>
        <pt x="212" y="-12" on="0"/>
        <pt x="129" y="25" on="0"/>
        <pt x="75" y="94" on="0"/>
        <pt x="49" y="191" on="0"/>
      </contour>
      <contour>
        <pt x="404" y="281" on="1"/>
        <pt x="396" y="366" on="0"/>
        <pt x="325" y="442" on="0"/>
        <pt x="268" y="442" on="1"/>
        <pt x="242" y="442" on="0"/>
        <pt x="195" y="426" on="0"/>
        <pt x="158" y="388" on="0"/>
        <pt x="134" y="326" on="0"/>
        <pt x="132" y="281" on="1"/>
      </contour>
      <contour>
        <pt x="132" y="217" on="1"/>
        <pt x="137" y="139" on="0"/>
        <pt x="213" y="58" on="0"/>
        <pt x="268" y="58" on="1"/>
        <pt x="293" y="58" on="0"/>
        <pt x="340" y="74" on="0"/>
        <pt x="377" y="110" on="0"/>
        <pt x="401" y="171" on="0"/>
        <pt x="404" y="217" on="1"/>
      </contour>
    </TTGlyph>
    <TTGlyph name="afii10196" xMin="10" yMin="-11" xMax="530" yMax="507">
      <contour>
        <pt x="261" y="-11" on="1"/>
        <pt x="227" y="-11" on="1"/>
        <pt x="10" y="500" on="1"/>
        <pt x="102" y="500" on="1"/>
        <pt x="222" y="207" on="1"/>
        <pt x="250" y="112" on="1"/>
        <pt x="251" y="112" on="1"/>
        <pt x="276" y="209" on="1"/>
        <pt x="290" y="245" on="0"/>
        <pt x="307" y="287" on="0"/>
        <pt x="316" y="311" on="0"/>
        <pt x="320" y="321" on="0"/>
        <pt x="322" y="325" on="1"/>
        <pt x="338" y="368" on="0"/>
        <pt x="366" y="435" on="0"/>
        <pt x="399" y="482" on="0"/>
        <pt x="442" y="507" on="0"/>
        <pt x="472" y="507" on="1"/>
        <pt x="490" y="507" on="0"/>
        <pt x="518" y="503" on="0"/>
        <pt x="530" y="498" on="1"/>
        <pt x="518" y="424" on="1"/>
        <pt x="509" y="428" on="0"/>
        <pt x="492" y="433" on="0"/>
        <pt x="484" y="433" on="1"/>
        <pt x="467" y="433" on="0"/>
        <pt x="433" y="403" on="0"/>
        <pt x="413" y="356" on="1"/>
      </contour>
    </TTGlyph>
    <TTGlyph name="afii10846" xMin="49" yMin="-12" xMax="458" yMax="512">
      <contour>
        <pt x="65" y="460" on="1"/>
        <pt x="95" y="484" on="0"/>
        <pt x="186" y="512" on="0"/>
        <pt x="237" y="512" on="1"/>
        <pt x="294" y="512" on="0"/>
        <pt x="378" y="475" on="0"/>
        <pt x="432" y="406" on="0"/>
        <pt x="458" y="309" on="0"/>
        <pt x="458" y="250" on="1"/>
        <pt x="458" y="123" on="0"/>
        <pt x="346" y="-12" on="0"/>
        <pt x="246" y="-12" on="1"/>
        <pt x="213" y="-12" on="0"/>
        <pt x="143" y="8" on="0"/>
        <pt x="86" y="58" on="0"/>
        <pt x="49" y="143" on="0"/>
        <pt x="49" y="208" on="1"/>
        <pt x="49" y="224" on="0"/>
        <pt x="52" y="257" on="0"/>
        <pt x="54" y="276" on="1"/>
        <pt x="380" y="276" on="1"/>
        <pt x="375" y="361" on="0"/>
        <pt x="302" y="442" on="0"/>
        <pt x="214" y="442" on="1"/>
        <pt x="180" y="442" on="0"/>
        <pt x="113" y="418" on="0"/>
        <pt x="95" y="402" on="1"/>
      </contour>
      <contour>
        <pt x="248" y="58" on="1"/>
        <pt x="303" y="58" on="0"/>
        <pt x="378" y="136" on="0"/>
        <pt x="378" y="213" on="1"/>
        <pt x="127" y="213" on="1"/>
        <pt x="127" y="198" on="1"/>
        <pt x="127" y="128" on="0"/>
        <pt x="196" y="58" on="0"/>
      </contour>
    </TTGlyph>
    <TTGlyph name="afii57929" xMin="40" yMin="500" xMax="155" yMax="708">
      <component glyphName="quoteright" x="0" y="0" flags="0x204"/>
    </TTGlyph>
    <TTGlyph name="afii61289" xMin="73" yMin="-12" xMax="406" yMax="712">
      <contour>
        <pt x="406" y="30" on="1"/>
        <pt x="384" y="16" on="0"/>
        <pt x="313" y="-12" on="0"/>
        <pt x="278" y="-12" on="1"/>
        <pt x="215" y="-12" on="0"/>
        <pt x="158" y="49" on="0"/>
        <pt x="158" y="114" on="1"/>
        <pt x="158" y="218" on="1"/>
        <pt x="108" y="174" on="1"/>
        <pt x="73" y="218" on="1"/>
        <pt x="158" y="292" on="1"/>
        <pt x="158" y="546" on="1"/>
        <pt x="158" y="590" on="0"/>
        <pt x="178" y="653" on="0"/>
        <pt x="213" y="693" on="0"/>
        <pt x="260" y="712" on="0"/>
        <pt x="287" y="712" on="1"/>
        <pt x="335" y="712" on="0"/>
        <pt x="397" y="653" on="0"/>
        <pt x="397" y="593" on="1"/>
        <pt x="397" y="519" on="0"/>
        <pt x="317" y="353" on="0"/>
        <pt x="226" y="265" on="1"/>
        <pt x="226" y="125" on="1"/>
        <pt x="226" y="81" on="0"/>
        <pt x="260" y="48" on="0"/>
        <pt x="284" y="48" on="1"/>
        <pt x="309" y="48" on="0"/>
        <pt x="369" y="69" on="0"/>
        <pt x="389" y="80" on="1"/>
      </contour>
      <contour>
        <pt x="333" y="588" on="1"/>
        <pt x="333" y="622" on="0"/>
        <pt x="305" y="652" on="0"/>
        <pt x="287" y="652" on="1"/>
        <pt x="275" y="652" on="0"/>
        <pt x="253" y="645" on="0"/>
        <pt x="236" y="624" on="0"/>
        <pt x="226" y="587" on="0"/>
        <pt x="226" y="557" on="1"/>
        <pt x="226" y="345" on="1"/>
        <pt x="282" y="410" on="0"/>
        <pt x="333" y="531" on="0"/>
      </contour>
    </TTGlyph>
    <TTGlyph name="afii61352" xMin="85" yMin="-11" xMax="960" yMax="712">
      <contour>
        <pt x="669" y="313" on="1"/>
        <pt x="947" y="313" on="1"/>
        <pt x="947" y="239" on="1"/>
        <pt x="669" y="239" on="1"/>
      </contour>
      <contour>
        <pt x="211" y="454" on="1"/>
        <pt x="157" y="559" on="1"/>
        <pt x="153" y="559" on="1"/>
        <pt x="165" y="458" on="1"/>
        <pt x="165" y="0" on="1"/>
        <pt x="85" y="0" on="1"/>
        <pt x="85" y="711" on="1"/>
        <pt x="129" y="711" on="1"/>
        <pt x="445" y="248" on="1"/>
        <pt x="496" y="148" on="1"/>
        <pt x="501" y="148" on="1"/>
        <pt x="490" y="244" on="1"/>
        <pt x="490" y="700" on="1"/>
        <pt x="570" y="700" on="1"/>
        <pt x="570" y="-11" on="1"/>
        <pt x="524" y="-11" on="1"/>
      </contour>
      <contour>
        <pt x="650" y="542" on="1"/>
        <pt x="650" y="587" on="0"/>
        <pt x="674" y="651" on="0"/>
        <pt x="715" y="693" on="0"/>
        <pt x="772" y="712" on="0"/>
        <pt x="805" y="712" on="1"/>
        <pt x="838" y="712" on="0"/>
        <pt x="895" y="694" on="0"/>
        <pt x="936" y="654" on="0"/>
        <pt x="960" y="589" on="0"/>
        <pt x="960" y="542" on="1"/>
        <pt x="960" y="495" on="0"/>
        <pt x="936" y="430" on="0"/>
        <pt x="895" y="390" on="0"/>
        <pt x="838" y="372" on="0"/>
        <pt x="805" y="372" on="1"/>
        <pt x="772" y="372" on="0"/>
        <pt x="715" y="390" on="0"/>
        <pt x="674" y="430" on="0"/>
        <pt x="650" y="495" on="0"/>
      </contour>
      <contour>
        <pt x="724" y="542" on="1"/>
        <pt x="724" y="482" on="0"/>
        <pt x="767" y="430" on="0"/>
        <pt x="805" y="430" on="1"/>
        <pt x="824" y="430" on="0"/>
        <pt x="854" y="441" on="0"/>
        <pt x="875" y="466" on="0"/>
        <pt x="886" y="509" on="0"/>
        <pt x="886" y="542" on="1"/>
        <pt x="886" y="575" on="0"/>
        <pt x="875" y="618" on="0"/>
        <pt x="854" y="643" on="0"/>
        <pt x="824" y="654" on="0"/>
        <pt x="805" y="654" on="1"/>
        <pt x="767" y="654" on="0"/>
        <pt x="724" y="607" on="0"/>
      </contour>
    </TTGlyph>
    <TTGlyph name="agrave" xMin="39" yMin="-8" xMax="430" yMax="720">
      <component glyphName="a" x="0" y="0" flags="0x204"/>
      <component glyphName="grave" x="85" y="0" flags="0x4"/>
    </TTGlyph>
    <TTGlyph name="amacron" xMin="39" yMin="-8" xMax="430" yMax="643">
      <component glyphName="a" x="0" y="0" flags="0x204"/>
      <component glyphName="macron" x="41" y="0" flags="0x4"/>
    </TTGlyph>
    <TTGlyph name="ampersand" xMin="118" yMin="-12" xMax="737" yMax="712">
      <contour>
        <pt x="118" y="187" on="1"/>
        <pt x="118" y="227" on="0"/>
        <pt x="146" y="300" on="0"/>
        <pt x="194" y="362" on="0"/>
        <pt x="255" y="414" on="0"/>
        <pt x="288" y="434" on="1"/>
        <pt x="264" y="470" on="0"/>
        <pt x="229" y="542" on="0"/>
        <pt x="229" y="584" on="1"/>
        <pt x="229" y="608" on="0"/>
        <pt x="245" y="654" on="0"/>
        <pt x="280" y="690" on="0"/>
        <pt x="335" y="712" on="0"/>
        <pt x="374" y="712" on="1"/>
        <pt x="415" y="712" on="0"/>
        <pt x="471" y="691" on="0"/>
        <pt x="505" y="657" on="0"/>
        <pt x="520" y="615" on="0"/>
        <pt x="520" y="593" on="1"/>
        <pt x="520" y="551" on="0"/>
        <pt x="455" y="462" on="0"/>
        <pt x="385" y="421" on="1"/>
        <pt x="401" y="392" on="0"/>
        <pt x="444" y="331" on="0"/>
        <pt x="492" y="271" on="0"/>
        <pt x="542" y="212" on="0"/>
        <pt x="567" y="187" on="1"/>
        <pt x="578" y="199" on="0"/>
        <pt x="600" y="236" on="0"/>
        <pt x="621" y="277" on="0"/>
        <pt x="638" y="321" on="0"/>
        <pt x="645" y="341" on="1"/>
        <pt x="707" y="312" on="1"/>
        <pt x="701" y="295" on="0"/>
        <pt x="679" y="248" on="0"/>
        <pt x="652" y="199" on="0"/>
        <pt x="624" y="154" on="0"/>
        <pt x="612" y="139" on="1"/>
        <pt x="633" y="119" on="0"/>
        <pt x="667" y="90" on="0"/>
        <pt x="696" y="69" on="0"/>
        <pt x="723" y="52" on="0"/>
        <pt x="737" y="44" on="1"/>
        <pt x="687" y="-12" on="1"/>
        <pt x="634" y="14" on="0"/>
        <pt x="566" y="81" on="1"/>
        <pt x="548" y="63" on="0"/>
        <pt x="505" y="30" on="0"/>
        <pt x="451" y="4" on="0"/>
        <pt x="386" y="-12" on="0"/>
        <pt x="347" y="-12" on="1"/>
        <pt x="300" y="-12" on="0"/>
        <pt x="217" y="14" on="0"/>
        <pt x="155" y="65" on="0"/>
        <pt x="118" y="139" on="0"/>
      </contour>
      <contour>
        <pt x="519" y="131" on="1"/>
        <pt x="490" y="160" on="0"/>
        <pt x="434" y="228" on="0"/>
        <pt x="383" y="296" on="0"/>
        <pt x="340" y="359" on="0"/>
        <pt x="325" y="383" on="1"/>
        <pt x="298" y="363" on="0"/>
        <pt x="252" y="321" on="0"/>
        <pt x="217" y="274" on="0"/>
        <pt x="198" y="220" on="0"/>
        <pt x="198" y="189" on="1"/>
        <pt x="198" y="158" on="0"/>
        <pt x="224" y="109" on="0"/>
        <pt x="269" y="76" on="0"/>
        <pt x="327" y="58" on="0"/>
        <pt x="359" y="58" on="1"/>
        <pt x="384" y="58" on="0"/>
        <pt x="431" y="71" on="0"/>
        <pt x="473" y="91" on="0"/>
        <pt x="508" y="117" on="0"/>
      </contour>
      <contour>
        <pt x="307" y="584" on="1"/>
        <pt x="307" y="554" on="0"/>
        <pt x="332" y="495" on="0"/>
        <pt x="352" y="466" on="1"/>
        <pt x="405" y="500" on="0"/>
        <pt x="446" y="556" on="0"/>
        <pt x="446" y="577" on="1"/>
        <pt x="446" y="609" on="0"/>
        <pt x="415" y="649" on="0"/>
        <pt x="377" y="649" on="1"/>
        <pt x="341" y="649" on="0"/>
        <pt x="307" y="613" on="0"/>
      </contour>
    </TTGlyph>
    <TTGlyph name="aogonek" xMin="39" yMin="-195" xMax="456" yMax="508">
      <contour>
        <pt x="69" y="463" on="1"/>
        <pt x="107" y="486" on="0"/>
        <pt x="208" y="508" on="0"/>
        <pt x="263" y="508" on="1"/>
        <pt x="315" y="508" on="0"/>
        <pt x="378" y="480" on="0"/>
        <pt x="411" y="435" on="0"/>
        <pt x="422" y="381" on="0"/>
        <pt x="422" y="354" on="1"/>
        <pt x="422" y="294" on="0"/>
        <pt x="416" y="180" on="0"/>
        <pt x="416" y="129" on="1"/>
        <pt x="416" y="92" on="0"/>
        <pt x="422" y="26" on="0"/>
        <pt x="430" y="-2" on="1"/>
        <pt x="407" y="-2" on="1"/>
        <pt x="382" y="-18" on="0"/>
        <pt x="354" y="-61" on="0"/>
        <pt x="354" y="-87" on="1"/>
        <pt x="354" y="-107" on="0"/>
        <pt x="380" y="-138" on="0"/>
        <pt x="405" y="-138" on="1"/>
        <pt x="424" y="-138" on="0"/>
        <pt x="445" y="-128" on="1"/>
        <pt x="456" y="-171" on="1"/>
        <pt x="441" y="-183" on="0"/>
        <pt x="391" y="-195" on="0"/>
        <pt x="370" y="-195" on="1"/>
        <pt x="325" y="-195" on="0"/>
        <pt x="271" y="-147" on="0"/>
        <pt x="271" y="-106" on="1"/>
        <pt x="271" y="-67" on="0"/>
        <pt x="323" y="-10" on="0"/>
        <pt x="368" y="7" on="1"/>
        <pt x="350" y="68" on="1"/>
        <pt x="345" y="68" on="1"/>
        <pt x="336" y="54" on="0"/>
        <pt x="309" y="27" on="0"/>
        <pt x="271" y="6" on="0"/>
        <pt x="221" y="-8" on="0"/>
        <pt x="189" y="-8" on="1"/>
        <pt x="157" y="-8" on="0"/>
        <pt x="102" y="12" on="0"/>
        <pt x="62" y="49" on="0"/>
        <pt x="39" y="101" on="0"/>
        <pt x="39" y="134" on="1"/>
        <pt x="39" y="178" on="0"/>
        <pt x="75" y="237" on="0"/>
        <pt x="140" y="272" on="0"/>
        <pt x="231" y="287" on="0"/>
        <pt x="286" y="287" on="1"/>
        <pt x="300" y="287" on="0"/>
        <pt x="327" y="287" on="0"/>
        <pt x="341" y="285" on="1"/>
        <pt x="344" y="315" on="0"/>
        <pt x="344" y="339" on="1"/>
        <pt x="344" y="394" on="0"/>
        <pt x="300" y="438" on="0"/>
        <pt x="242" y="438" on="1"/>
        <pt x="225" y="438" on="0"/>
        <pt x="186" y="434" on="0"/>
        <pt x="145" y="425" on="0"/>
        <pt x="108" y="413" on="0"/>
        <pt x="94" y="405" on="1"/>
      </contour>
      <contour>
        <pt x="211" y="62" on="1"/>
        <pt x="239" y="62" on="0"/>
        <pt x="283" y="77" on="0"/>
        <pt x="315" y="100" on="0"/>
        <pt x="336" y="128" on="0"/>
        <pt x="341" y="141" on="1"/>
        <pt x="341" y="224" on="1"/>
        <pt x="327" y="225" on="0"/>
        <pt x="298" y="226" on="0"/>
        <pt x="284" y="226" on="1"/>
        <pt x="253" y="226" on="0"/>
        <pt x="194" y="219" on="0"/>
        <pt x="149" y="200" on="0"/>
        <pt x="122" y="167" on="0"/>
        <pt x="122" y="142" on="1"/>
        <pt x="122" y="107" on="0"/>
        <pt x="172" y="62" on="0"/>
      </contour>
    </TTGlyph>
    <TTGlyph name="approxequal" xMin="31" yMin="210" xMax="474" yMax="503">
      <component glyphName="asciitilde" x="0" y="83" flags="0x204"/>
      <component glyphName="asciitilde" x="0" y="-83" flags="0x4"/>
    </TTGlyph>
    <TTGlyph name="aring" xMin="39" yMin="-8" xMax="430" yMax="734">
      <component glyphName="a" x="0" y="0" flags="0x204"/>
      <component glyphName="ring" x="92" y="0" flags="0x4"/>
    </TTGlyph>
    <TTGlyph name="asciicircum" xMin="48" yMin="435" xMax="432" yMax="711">
      <contour>
        <pt x="234" y="711" on="1"/>
        <pt x="263" y="711" on="1"/>
        <pt x="432" y="435" on="1"/>
        <pt x="350" y="435" on="1"/>
        <pt x="270" y="570" on="1"/>
        <pt x="247" y="639" on="1"/>
        <pt x="216" y="569" on="1"/>
        <pt x="124" y="435" on="1"/>
        <pt x="48" y="435" on="1"/>
      </contour>
    </TTGlyph>
    <TTGlyph name="asciitilde" xMin="31" yMin="293" xMax="474" yMax="420">
      <contour>
        <pt x="31" y="361" on="1"/>
        <pt x="74" y="394" on="0"/>
        <pt x="144" y="420" on="0"/>
        <pt x="173" y="420" on="1"/>
        <pt x="201" y="420" on="0"/>
        <pt x="249" y="403" on="0"/>
        <pt x="293" y="382" on="0"/>
        <pt x="335" y="365" on="0"/>
        <pt x="358" y="365" on="1"/>
        <pt x="377" y="365" on="0"/>
        <pt x="417" y="381" on="0"/>
        <pt x="440" y="401" on="1"/>
        <pt x="474" y="340" on="1"/>
        <pt x="436" y="314" on="0"/>
        <pt x="375" y="293" on="0"/>
        <pt x="350" y="293" on="1"/>
        <pt x="323" y="293" on="0"/>
        <pt x="278" y="310" on="0"/>
        <pt x="237" y="331" on="0"/>
        <pt x="196" y="348" on="0"/>
        <pt x="172" y="348" on="1"/>
        <pt x="149" y="348" on="0"/>
        <pt x="97" y="327" on="0"/>
        <pt x="65" y="301" on="1"/>
      </contour>
    </TTGlyph>
    <TTGlyph name="asterisk" xMin="40" yMin="450" xMax="310" yMax="715">
      <contour>
        <pt x="130" y="715" on="1"/>
        <pt x="155" y="673" on="1"/>
        <pt x="173" y="617" on="1"/>
        <pt x="194" y="674" on="1"/>
        <pt x="218" y="714" on="1"/>
        <pt x="266" y="688" on="1"/>
        <pt x="240" y="645" on="1"/>
        <pt x="194" y="597" on="1"/>
        <pt x="262" y="609" on="1"/>
        <pt x="310" y="609" on="1"/>
        <pt x="310" y="553" on="1"/>
        <pt x="264" y="553" on="1"/>
        <pt x="200" y="565" on="1"/>
        <pt x="246" y="517" on="1"/>
        <pt x="269" y="478" on="1"/>
        <pt x="222" y="450" on="1"/>
        <pt x="196" y="492" on="1"/>
        <pt x="173" y="553" on="1"/>
        <pt x="154" y="495" on="1"/>
        <pt x="129" y="453" on="1"/>
        <pt x="79" y="481" on="1"/>
        <pt x="106" y="523" on="1"/>
        <pt x="148" y="565" on="1"/>
        <pt x="90" y="553" on="1"/>
        <pt x="40" y="553" on="1"/>
        <pt x="40" y="609" on="1"/>
        <pt x="90" y="609" on="1"/>
        <pt x="152" y="597" on="1"/>
        <pt x="107" y="641" on="1"/>
        <pt x="81" y="687" on="1"/>
      </contour>
    </TTGlyph>
    <TTGlyph name="at" xMin="87" yMin="-200" xMax="977" yMax="712">
      <contour>
        <pt x="707" y="491" on="1"/>
        <pt x="741" y="491" on="1"/>
        <pt x="690" y="204" on="1"/>
        <pt x="685" y="178" on="0"/>
        <pt x="680" y="137" on="0"/>
        <pt x="680" y="121" on="1"/>
        <pt x="680" y="96" on="0"/>
        <pt x="697" y="73" on="0"/>
        <pt x="718" y="73" on="1"/>
        <pt x="752" y="73" on="0"/>
        <pt x="819" y="109" on="0"/>
        <pt x="871" y="175" on="0"/>
        <pt x="904" y="268" on="0"/>
        <pt x="904" y="326" on="1"/>
        <pt x="904" y="403" on="0"/>
        <pt x="852" y="521" on="0"/>
        <pt x="758" y="602" on="0"/>
        <pt x="628" y="644" on="0"/>
        <pt x="550" y="644" on="1"/>
        <pt x="469" y="644" on="0"/>
        <pt x="326" y="584" on="0"/>
        <pt x="221" y="478" on="0"/>
        <pt x="160" y="330" on="0"/>
        <pt x="160" y="243" on="1"/>
        <pt x="160" y="154" on="0"/>
        <pt x="215" y="14" on="0"/>
        <pt x="317" y="-82" on="0"/>
        <pt x="459" y="-132" on="0"/>
        <pt x="546" y="-132" on="1"/>
        <pt x="575" y="-132" on="0"/>
        <pt x="649" y="-119" on="0"/>
        <pt x="679" y="-104" on="1"/>
        <pt x="699" y="-168" on="1"/>
        <pt x="654" y="-187" on="0"/>
        <pt x="578" y="-200" on="0"/>
        <pt x="534" y="-200" on="1"/>
        <pt x="441" y="-200" on="0"/>
        <pt x="278" y="-144" on="0"/>
        <pt x="157" y="-34" on="0"/>
        <pt x="87" y="129" on="0"/>
        <pt x="87" y="236" on="1"/>
        <pt x="87" y="345" on="0"/>
        <pt x="162" y="521" on="0"/>
        <pt x="290" y="645" on="0"/>
        <pt x="460" y="712" on="0"/>
        <pt x="555" y="712" on="1"/>
        <pt x="645" y="712" on="0"/>
        <pt x="799" y="659" on="0"/>
        <pt x="912" y="560" on="0"/>
        <pt x="977" y="417" on="0"/>
        <pt x="977" y="326" on="1"/>
        <pt x="977" y="262" on="0"/>
        <pt x="933" y="145" on="0"/>
        <pt x="858" y="57" on="0"/>
        <pt x="758" y="4" on="0"/>
        <pt x="702" y="4" on="1"/>
        <pt x="660" y="4" on="0"/>
        <pt x="610" y="40" on="0"/>
        <pt x="610" y="89" on="1"/>
        <pt x="610" y="98" on="0"/>
        <pt x="612" y="119" on="0"/>
        <pt x="614" y="131" on="1"/>
        <pt x="610" y="131" on="1"/>
        <pt x="596" y="108" on="0"/>
        <pt x="558" y="63" on="0"/>
        <pt x="511" y="27" on="0"/>
        <pt x="458" y="4" on="0"/>
        <pt x="429" y="4" on="1"/>
        <pt x="405" y="4" on="0"/>
        <pt x="361" y="25" on="0"/>
        <pt x="329" y="65" on="0"/>
        <pt x="310" y="120" on="0"/>
        <pt x="310" y="155" on="1"/>
        <pt x="310" y="219" on="0"/>
        <pt x="352" y="343" on="0"/>
        <pt x="423" y="439" on="0"/>
        <pt x="518" y="498" on="0"/>
        <pt x="571" y="498" on="1"/>
        <pt x="608" y="498" on="0"/>
        <pt x="652" y="476" on="0"/>
        <pt x="673" y="460" on="1"/>
      </contour>
      <contour>
        <pt x="650" y="393" on="1"/>
        <pt x="633" y="413" on="0"/>
        <pt x="599" y="428" on="0"/>
        <pt x="573" y="428" on="1"/>
        <pt x="534" y="428" on="0"/>
        <pt x="466" y="381" on="0"/>
        <pt x="417" y="306" on="0"/>
        <pt x="388" y="213" on="0"/>
        <pt x="388" y="168" on="1"/>
        <pt x="388" y="129" on="0"/>
        <pt x="420" y="74" on="0"/>
        <pt x="462" y="74" on="1"/>
        <pt x="482" y="74" on="0"/>
        <pt x="525" y="100" on="0"/>
        <pt x="567" y="145" on="0"/>
        <pt x="605" y="201" on="0"/>
        <pt x="620" y="230" on="1"/>
      </contour>
    </TTGlyph>
    <TTGlyph name="atilde" xMin="39" yMin="-8" xMax="430" yMax="714">
      <component glyphName="a" x="0" y="0" flags="0x204"/>
      <component glyphName="tilde" x="49" y="0" flags="0x4"/>
    </TTGlyph>
    <TTGlyph name="b" xMin="77" yMin="-9" xMax="491" yMax="700">
      <contour>
        <pt x="77" y="700" on="1"/>
        <pt x="157" y="700" on="1"/>
        <pt x="157" y="451" on="1"/>
        <pt x="161" y="451" on="1"/>
        <pt x="184" y="480" on="0"/>
        <pt x="255" y="512" on="0"/>
        <pt x="297" y="512" on="1"/>
        <pt x="394" y="512" on="0"/>
        <pt x="491" y="388" on="0"/>
        <pt x="491" y="258" on="1"/>
        <pt x="491" y="127" on="0"/>
        <pt x="363" y="-9" on="0"/>
        <pt x="247" y="-9" on="1"/>
        <pt x="191" y="-9" on="0"/>
        <pt x="100" y="15" on="0"/>
        <pt x="77" y="29" on="1"/>
      </contour>
      <contour>
        <pt x="283" y="442" on="1"/>
        <pt x="233" y="442" on="0"/>
        <pt x="171" y="386" on="0"/>
        <pt x="157" y="335" on="1"/>
        <pt x="157" y="83" on="1"/>
        <pt x="176" y="72" on="0"/>
        <pt x="230" y="61" on="0"/>
        <pt x="259" y="61" on="1"/>
        <pt x="327" y="61" on="0"/>
        <pt x="408" y="157" on="0"/>
        <pt x="408" y="259" on="1"/>
        <pt x="408" y="298" on="0"/>
        <pt x="394" y="366" on="0"/>
        <pt x="364" y="414" on="0"/>
        <pt x="317" y="442" on="0"/>
      </contour>
    </TTGlyph>
    <TTGlyph name="backslash" xMin="-37" yMin="-140" xMax="399" yMax="712">
      <contour>
        <pt x="399" y="-111" on="1"/>
        <pt x="333" y="-140" on="1"/>
        <pt x="-37" y="684" on="1"/>
        <pt x="30" y="712" on="1"/>
      </contour>
    </TTGlyph>
    <TTGlyph name="bar" xMin="85" yMin="-130" xMax="153" yMax="700">
      <contour>
        <pt x="85" y="700" on="1"/>
        <pt x="153" y="700" on="1"/>
        <pt x="153" y="-130" on="1"/>
        <pt x="85" y="-130" on="1"/>
      </contour>
    </TTGlyph>
    <TTGlyph name="braceleft" xMin="57" yMin="-230" xMax="317" yMax="701">
      <contour>
        <pt x="137" y="112" on="1"/>
        <pt x="137" y="163" on="0"/>
        <pt x="95" y="200" on="0"/>
        <pt x="57" y="200" on="1"/>
        <pt x="57" y="270" on="1"/>
        <pt x="95" y="270" on="0"/>
        <pt x="137" y="310" on="0"/>
        <pt x="137" y="354" on="1"/>
        <pt x="137" y="596" on="1"/>
        <pt x="137" y="643" on="0"/>
        <pt x="184" y="701" on="0"/>
        <pt x="232" y="701" on="1"/>
        <pt x="317" y="701" on="1"/>
        <pt x="317" y="631" on="1"/>
        <pt x="267" y="631" on="1"/>
        <pt x="240" y="631" on="0"/>
        <pt x="215" y="604" on="0"/>
        <pt x="215" y="572" on="1"/>
        <pt x="215" y="335" on="1"/>
        <pt x="215" y="291" on="0"/>
        <pt x="173" y="245" on="0"/>
        <pt x="145" y="240" on="1"/>
        <pt x="145" y="234" on="1"/>
        <pt x="172" y="230" on="0"/>
        <pt x="215" y="177" on="0"/>
        <pt x="215" y="135" on="1"/>
        <pt x="215" y="-101" on="1"/>
        <pt x="215" y="-132" on="0"/>
        <pt x="239" y="-160" on="0"/>
        <pt x="268" y="-160" on="1"/>
        <pt x="317" y="-160" on="1"/>
        <pt x="317" y="-230" on="1"/>
        <pt x="232" y="-230" on="1"/>
        <pt x="187" y="-230" on="0"/>
        <pt x="137" y="-177" on="0"/>
        <pt x="137" y="-126" on="1"/>
      </contour>
    </TTGlyph>
    <TTGlyph name="braceright" xMin="55" yMin="-230" xMax="315" yMax="701">
      <contour>
        <pt x="235" y="359" on="1"/>
        <pt x="235" y="308" on="0"/>
        <pt x="277" y="271" on="0"/>
        <pt x="315" y="271" on="1"/>
        <pt x="315" y="201" on="1"/>
        <pt x="277" y="201" on="0"/>
        <pt x="235" y="161" on="0"/>
        <pt x="235" y="117" on="1"/>
        <pt x="235" y="-125" on="1"/>
        <pt x="235" y="-172" on="0"/>
        <pt x="188" y="-230" on="0"/>
        <pt x="140" y="-230" on="1"/>
        <pt x="55" y="-230" on="1"/>
        <pt x="55" y="-160" on="1"/>
        <pt x="105" y="-160" on="1"/>
        <pt x="132" y="-160" on="0"/>
        <pt x="157" y="-133" on="0"/>
        <pt x="157" y="-101" on="1"/>
        <pt x="157" y="136" on="1"/>
        <pt x="157" y="180" on="0"/>
        <pt x="198" y="226" on="0"/>
        <pt x="226" y="231" on="1"/>
        <pt x="226" y="237" on="1"/>
        <pt x="199" y="241" on="0"/>
        <pt x="157" y="294" on="0"/>
        <pt x="157" y="336" on="1"/>
        <pt x="157" y="572" on="1"/>
        <pt x="157" y="603" on="0"/>
        <pt x="133" y="631" on="0"/>
        <pt x="105" y="631" on="1"/>
        <pt x="55" y="631" on="1"/>
        <pt x="55" y="701" on="1"/>
        <pt x="141" y="701" on="1"/>
        <pt x="185" y="701" on="0"/>
        <pt x="235" y="648" on="0"/>
        <pt x="235" y="597" on="1"/>
      </contour>
    </TTGlyph>
    <TTGlyph name="bracketleft" xMin="85" yMin="-230" xMax="266" yMax="700">
      <contour>
        <pt x="85" y="700" on="1"/>
        <pt x="266" y="700" on="1"/>
        <pt x="266" y="630" on="1"/>
        <pt x="163" y="630" on="1"/>
        <pt x="163" y="-160" on="1"/>
        <pt x="266" y="-160" on="1"/>
        <pt x="266" y="-230" on="1"/>
        <pt x="85" y="-230" on="1"/>
      </contour>
    </TTGlyph>
    <TTGlyph name="bracketright" xMin="38" yMin="-230" xMax="220" yMax="700">
      <contour>
        <pt x="220" y="-230" on="1"/>
        <pt x="38" y="-230" on="1"/>
        <pt x="38" y="-160" on="1"/>
        <pt x="142" y="-160" on="1"/>
        <pt x="142" y="630" on="1"/>
        <pt x="38" y="630" on="1"/>
        <pt x="38" y="700" on="1"/>
        <pt x="220" y="700" on="1"/>
      </contour>
    </TTGlyph>
    <TTGlyph name="breve" xMin="60" yMin="573" xMax="365" yMax="720">
      <contour>
        <pt x="105" y="720" on="1"/>
        <pt x="123" y="684" on="0"/>
        <pt x="183" y="643" on="0"/>
        <pt x="217" y="643" on="1"/>
        <pt x="251" y="643" on="0"/>
        <pt x="306" y="683" on="0"/>
        <pt x="323" y="720" on="1"/>
        <pt x="365" y="702" on="1"/>
        <pt x="362" y="678" on="0"/>
        <pt x="337" y="631" on="0"/>
        <pt x="298" y="595" on="0"/>
        <pt x="246" y="573" on="0"/>
        <pt x="216" y="573" on="1"/>
        <pt x="188" y="573" on="0"/>
        <pt x="138" y="590" on="0"/>
        <pt x="97" y="623" on="0"/>
        <pt x="67" y="668" on="0"/>
        <pt x="60" y="697" on="1"/>
      </contour>
    </TTGlyph>
    <TTGlyph name="brokenbar" xMin="85" yMin="-130" xMax="153" yMax="700">
      <contour>
        <pt x="85" y="206" on="1"/>
        <pt x="153" y="206" on="1"/>
        <pt x="153" y="-130" on="1"/>
        <pt x="85" y="-130" on="1"/>
      </contour>
      <contour>
        <pt x="153" y="364" on="1"/>
        <pt x="85" y="364" on="1"/>
        <pt x="85" y="700" on="1"/>
        <pt x="153" y="700" on="1"/>
      </contour>
    </TTGlyph>
    <TTGlyph name="bullet" xMin="87" yMin="172" xMax="365" yMax="450">
      <contour>
        <pt x="87" y="311" on="1"/>
        <pt x="87" y="342" on="0"/>
        <pt x="109" y="393" on="0"/>
        <pt x="146" y="430" on="0"/>
        <pt x="197" y="450" on="0"/>
        <pt x="226" y="450" on="1"/>
        <pt x="255" y="450" on="0"/>
        <pt x="306" y="431" on="0"/>
        <pt x="343" y="395" on="0"/>
        <pt x="365" y="344" on="0"/>
        <pt x="365" y="311" on="1"/>
        <pt x="365" y="278" on="0"/>
        <pt x="343" y="227" on="0"/>
        <pt x="306" y="191" on="0"/>
        <pt x="255" y="172" on="0"/>
        <pt x="226" y="172" on="1"/>
        <pt x="197" y="172" on="0"/>
        <pt x="146" y="191" on="0"/>
        <pt x="109" y="227" on="0"/>
        <pt x="87" y="278" on="0"/>
      </contour>
    </TTGlyph>
    <TTGlyph name="c" xMin="49" yMin="-12" xMax="418" yMax="512">
      <contour>
        <pt x="418" y="33" on="1"/>
        <pt x="388" y="11" on="0"/>
        <pt x="306" y="-12" on="0"/>
        <pt x="261" y="-12" on="1"/>
        <pt x="203" y="-12" on="0"/>
        <pt x="123" y="25" on="0"/>
        <pt x="72" y="94" on="0"/>
        <pt x="49" y="191" on="0"/>
        <pt x="49" y="250" on="1"/>
        <pt x="49" y="377" on="0"/>
        <pt x="161" y="512" on="0"/>
        <pt x="266" y="512" on="1"/>
        <pt x="314" y="512" on="0"/>
        <pt x="381" y="497" on="0"/>
        <pt x="408" y="483" on="1"/>
        <pt x="385" y="414" on="1"/>
        <pt x="362" y="427" on="0"/>
        <pt x="306" y="442" on="0"/>
        <pt x="274" y="442" on="1"/>
        <pt x="132" y="442" on="0"/>
        <pt x="132" y="250" on="1"/>
        <pt x="132" y="212" on="0"/>
        <pt x="147" y="143" on="0"/>
        <pt x="182" y="90" on="0"/>
        <pt x="239" y="58" on="0"/>
        <pt x="281" y="58" on="1"/>
        <pt x="317" y="58" on="0"/>
        <pt x="374" y="80" on="0"/>
        <pt x="392" y="94" on="1"/>
      </contour>
    </TTGlyph>
    <TTGlyph name="cacute" xMin="49" yMin="-12" xMax="418" yMax="720">
      <component glyphName="c" x="0" y="0" flags="0x204"/>
      <component glyphName="acute" x="171" y="0" flags="0x4"/>
    </TTGlyph>
    <TTGlyph name="caron" xMin="60" yMin="550" xMax="335" yMax="732">
      <contour>
        <pt x="212" y="550" on="1"/>
        <pt x="175" y="550" on="1"/>
        <pt x="60" y="732" on="1"/>
        <pt x="138" y="732" on="1"/>
        <pt x="177" y="666" on="1"/>
        <pt x="198" y="608" on="1"/>
        <pt x="220" y="666" on="1"/>
        <pt x="265" y="732" on="1"/>
        <pt x="335" y="732" on="1"/>
      </contour>
    </TTGlyph>
</ttFont>
